{"glyphs":{"0":{"ha":792,"x_min":-11,"x_max":764,"o":"m 594 944 q 564 933 578 933 q 538 935 550 932 q 514 946 525 939 q 492 960 503 953 q 525 1003 507 994 q 575 1000 543 1013 q 663 958 625 981 q 724 905 700 935 q 756 835 747 875 q 754 744 764 796 q 685 533 733 640 q 569 328 636 426 q 421 149 501 231 q 257 14 340 67 q 118 0 193 -28 q 110 3 114 1 q 100 6 106 4 q 45 30 67 18 q 11 58 24 42 q -6 95 -1 74 q -10 149 -11 117 q -2 221 -8 185 q 15 293 4 257 q 161 619 78 471 q 367 885 244 767 q 428 908 399 913 q 488 874 458 904 q 353 701 415 799 q 243 496 290 603 q 167 279 196 389 q 135 69 139 169 q 397 289 283 154 q 578 579 510 424 q 615 670 596 621 q 641 768 633 719 q 640 863 649 817 q 594 944 631 908 z "},"1":{"ha":679,"x_min":-40,"x_max":744,"o":"m 201 60 q 321 75 264 68 q 431 82 378 82 q 467 77 451 82 q 497 57 483 72 q 472 44 486 46 q 443 40 457 43 q 303 16 363 26 q 195 -5 243 6 q 106 -26 147 -15 q 19 -49 64 -36 q 3 -53 10 -51 q -8 -53 -3 -54 q -21 -47 -14 -51 q -40 -32 -28 -42 q -3 -12 -26 -22 q 44 6 19 -3 q 91 22 68 14 q 129 39 114 31 q 99 117 101 71 q 112 219 97 164 q 155 337 126 275 q 217 461 183 399 q 285 583 250 524 q 349 693 319 642 q 313 674 329 682 q 278 654 296 665 q 245 638 258 643 q 219 634 232 633 q 193 643 207 635 q 158 668 179 651 q 358 827 254 753 q 563 976 461 901 q 588 997 575 988 q 611 1018 600 1007 q 637 1031 625 1029 q 664 1021 649 1032 q 666 1020 665 1021 q 668 1019 667 1019 q 722 986 704 999 q 742 963 739 974 q 733 936 744 951 q 700 893 722 921 q 610 772 658 838 q 511 634 561 706 q 413 488 461 563 q 323 340 364 414 q 250 194 282 265 q 201 60 218 124 z "},"2":{"ha":739,"x_min":0,"x_max":804,"o":"m 717 922 q 590 900 658 919 q 460 847 521 881 q 355 763 399 813 q 303 653 311 714 q 230 689 250 657 q 225 757 210 721 q 293 848 250 807 q 389 919 336 889 q 501 970 442 950 q 618 999 561 990 q 704 990 665 1006 q 767 943 743 974 q 798 872 792 913 q 786 788 804 831 q 685 615 746 696 q 555 456 624 533 q 417 303 486 379 q 293 147 349 228 q 377 140 335 147 q 457 118 419 133 q 526 78 494 103 q 576 15 557 53 q 571 3 574 13 q 460 44 515 29 q 349 61 404 60 q 240 47 294 63 q 132 -7 186 31 q 97 -24 108 -25 q 63 -4 85 -24 q 33 22 47 8 q 0 50 18 35 q 178 258 83 161 q 368 458 274 356 q 467 565 415 511 q 565 676 518 618 q 652 794 613 733 q 717 922 692 856 z "},"3":{"ha":778,"x_min":-8,"x_max":890,"o":"m 1 63 q 121 117 54 88 q 250 179 188 147 q 363 243 313 211 q 432 304 413 275 q 438 339 447 328 q 407 357 429 350 q 333 396 365 372 q 274 449 301 419 q 245 496 249 474 q 265 544 242 518 q 374 648 317 600 q 492 740 432 696 q 611 826 551 783 q 728 914 671 868 q 578 876 656 906 q 431 811 501 847 q 303 738 360 775 q 214 676 246 700 q 169 720 179 696 q 186 772 158 744 q 283 841 218 803 q 427 914 349 879 q 590 976 506 949 q 743 1014 674 1003 q 783 1017 763 1017 q 818 1006 804 1018 q 854 967 838 986 q 885 926 871 947 q 885 905 890 918 q 872 883 879 892 q 843 844 858 864 q 807 808 828 825 q 574 623 682 706 q 372 453 467 540 q 421 422 400 433 q 459 400 442 411 q 494 373 476 389 q 536 329 513 357 q 538 207 588 268 q 444 124 501 163 q 324 56 386 86 q 203 4 261 25 q 106 -24 144 -17 q 72 -24 90 -26 q 43 -14 54 -21 q 25 1 36 -8 q 6 23 14 11 q -6 45 -3 35 q 1 63 -8 56 z "},"4":{"ha":600,"x_min":-12,"x_max":776,"o":"m 286 18 q 252 47 263 32 q 241 80 242 63 q 245 117 240 97 q 256 160 250 138 q 270 206 261 183 q 290 254 279 229 q 313 308 300 279 q 342 372 326 336 q 256 371 297 371 q 175 368 215 371 q 81 381 122 365 q 4 429 39 397 q -8 460 -12 444 q 10 492 -4 476 q 41 520 24 507 q 69 542 58 533 q 385 769 235 663 q 683 981 536 875 q 719 1002 710 1000 q 746 992 729 1004 q 774 956 772 974 q 765 921 776 938 q 733 889 753 904 q 697 861 714 874 q 565 757 631 808 q 433 653 499 706 q 306 547 368 601 q 186 429 244 492 q 232 423 203 425 q 292 423 261 421 q 349 433 322 425 q 385 457 375 442 q 474 594 429 529 q 579 710 519 660 q 608 724 596 725 q 638 713 619 724 q 668 687 665 696 q 660 658 671 678 q 473 349 558 503 q 321 28 388 194 q 306 10 315 8 q 286 18 297 11 z "},"5":{"ha":757,"x_min":-4,"x_max":879,"o":"m 567 613 q 466 590 515 608 q 372 545 417 572 q 287 485 326 518 q 215 414 247 451 q 197 392 206 403 q 178 368 189 381 q 126 361 154 343 q 88 388 107 374 q 44 418 68 401 q 181 667 103 549 q 338 906 260 785 q 322 922 329 914 q 308 936 315 929 q 328 958 315 957 q 353 960 340 958 q 481 975 418 968 q 603 989 543 982 q 720 1007 663 996 q 833 1035 778 1018 q 849 1028 840 1035 q 864 1013 857 1022 q 875 994 871 1004 q 878 978 879 985 q 858 951 875 957 q 822 938 840 944 q 658 901 739 914 q 493 885 576 889 q 453 872 467 882 q 428 839 439 863 q 385 752 408 794 q 339 663 363 710 q 438 692 393 679 q 524 703 483 704 q 601 682 564 701 q 676 615 638 663 q 705 553 700 586 q 703 485 710 519 q 670 385 694 439 q 610 277 646 331 q 531 174 575 224 q 437 85 486 124 q 337 21 388 46 q 239 -8 286 -4 q 194 -10 218 -11 q 151 -1 171 -8 q 99 24 124 10 q 49 56 74 38 q 15 95 28 71 q -1 147 3 119 q 2 203 -4 175 q 24 254 8 231 q 81 228 57 250 q 107 175 104 207 q 111 135 110 156 q 115 88 113 115 q 209 138 158 106 q 310 211 260 169 q 406 302 360 253 q 488 404 453 351 q 545 510 524 457 q 567 613 567 563 z "},"6":{"ha":690,"x_min":6,"x_max":747,"o":"m 697 783 q 678 792 688 788 q 658 803 669 797 q 673 868 665 835 q 664 935 681 901 q 579 910 621 932 q 501 853 538 888 q 431 777 464 819 q 369 691 397 735 q 317 606 340 647 q 278 532 294 564 q 276 526 276 531 l 276 524 q 340 496 308 508 q 401 468 372 483 q 467 403 451 443 q 472 314 483 363 q 447 239 464 281 q 403 156 429 197 q 345 78 378 114 q 276 19 313 42 q 201 -8 240 -4 q 122 11 161 -12 q 101 21 111 17 q 83 29 92 25 q 6 139 18 65 q 39 350 8 236 q 122 574 69 464 q 244 779 174 683 q 401 938 315 875 q 481 987 442 967 q 559 1013 521 1007 q 636 1006 597 1018 q 714 960 675 994 q 740 922 733 942 q 744 875 747 901 q 731 831 742 851 q 697 783 719 810 m 146 85 q 204 108 175 89 q 259 156 233 128 q 306 220 285 185 q 340 291 326 256 q 360 360 354 326 q 358 421 365 394 q 334 442 354 439 q 289 440 314 446 q 242 418 264 433 q 211 383 219 403 q 159 233 179 306 q 146 85 139 160 z "},"7":{"ha":661,"x_min":-28,"x_max":717,"o":"m 94 -18 q 22 46 44 7 q -1 131 0 85 q 11 227 -3 176 q 46 326 25 278 q 90 417 67 375 q 132 489 114 458 q 88 494 111 493 q 44 498 65 494 q 3 512 22 501 q -28 546 -15 522 q -7 558 -21 558 q 21 558 7 558 q 150 554 83 558 q 174 558 163 554 q 192 574 185 561 q 353 751 265 671 q 529 913 442 831 q 337 894 429 906 q 151 849 244 882 q 140 915 126 889 q 190 957 153 940 q 279 981 226 974 q 387 992 332 989 q 492 997 442 996 q 571 1000 542 997 q 616 992 596 1000 q 651 973 636 985 q 680 946 667 961 q 706 915 693 931 q 712 886 717 901 q 696 860 707 871 q 662 825 679 842 q 626 792 644 808 q 495 665 554 724 q 378 547 436 606 q 405 522 393 533 q 429 499 417 511 q 400 489 413 486 q 374 492 388 492 q 338 489 353 494 q 310 465 324 483 q 114 111 186 304 q 99 49 103 79 q 111 -11 94 19 q 94 -18 107 -24 z "},"8":{"ha":661,"x_min":-1,"x_max":714,"o":"m 192 485 q 142 551 163 518 q 113 617 122 583 q 109 686 104 650 q 135 765 114 722 q 305 931 201 872 q 526 1008 408 990 q 628 992 581 1015 q 700 918 676 968 q 711 883 708 903 q 708 849 714 864 q 653 724 686 782 q 582 610 619 665 q 508 500 544 556 q 442 382 471 444 q 400 399 418 383 q 369 436 382 415 q 345 458 358 453 q 310 456 332 463 q 350 403 328 428 q 392 352 372 378 q 428 299 413 326 q 449 239 443 272 q 364 56 469 128 q 280 9 324 28 q 185 -10 236 -10 q 105 7 142 -10 q 44 52 68 24 q 9 118 19 81 q 7 197 -1 156 q 36 286 18 247 q 78 358 54 325 q 130 422 101 392 q 192 485 158 451 m 365 490 q 490 700 428 600 q 596 904 551 800 q 583 925 603 924 q 535 921 563 926 q 482 906 507 915 q 453 896 457 897 q 347 840 394 874 q 260 758 300 807 q 228 699 242 729 q 210 639 215 669 q 213 579 206 608 q 240 522 219 550 q 307 505 278 513 q 365 490 336 497 m 107 65 q 243 83 188 54 q 322 165 299 113 q 331 287 344 218 q 258 422 317 356 q 190 347 222 393 q 136 251 158 301 q 106 151 114 200 q 107 65 97 101 z "},"9":{"ha":600,"x_min":-31,"x_max":640,"o":"m 338 529 q 282 496 310 514 q 225 463 254 478 q 112 443 165 432 q 19 507 58 454 q 3 539 6 522 q 4 574 0 556 q 77 717 31 646 q 183 848 124 789 q 313 947 243 907 q 458 999 383 988 q 524 996 492 1004 q 581 968 556 988 q 622 922 606 949 q 640 863 638 894 q 640 844 640 854 q 635 826 639 835 q 576 702 608 774 q 506 551 543 631 q 424 391 468 472 q 333 236 381 310 q 231 102 285 163 q 121 6 178 42 q 61 -9 88 -15 q 6 19 35 -3 q 17 65 -31 46 q 95 119 57 82 q 167 202 133 156 q 230 299 201 249 q 281 396 258 350 q 317 478 303 442 q 338 529 332 514 m 539 918 q 460 893 503 914 q 373 841 417 872 q 288 771 329 810 q 213 692 246 732 q 159 612 181 651 q 135 540 138 572 q 243 596 185 557 q 358 687 301 635 q 462 799 414 739 q 539 918 510 860 z "},"\u0000":{"ha":0,"x_min":0,"x_max":0,"o":""},"\r":{"ha":269,"x_min":0,"x_max":0,"o":""}," ":{"ha":269,"x_min":0,"x_max":0,"o":""},"E":{"ha":968,"x_min":-8,"x_max":1528,"o":"m 624 632 q 749 640 689 635 q 867 650 808 644 q 888 651 881 651 q 901 648 896 651 q 910 637 906 644 q 921 615 914 629 q 735 588 826 599 q 553 564 644 578 q 504 544 522 557 q 390 442 454 500 q 266 320 325 383 q 162 192 207 257 q 104 72 117 128 q 291 97 201 75 q 463 153 381 119 q 617 229 544 188 q 756 312 690 271 q 876 389 821 353 q 979 447 932 425 q 994 431 986 439 q 1013 414 1003 424 q 799 275 894 340 q 612 156 704 210 q 419 60 519 101 q 189 -8 318 18 q 128 -6 157 -15 q 74 19 99 3 q 22 66 40 44 q -3 110 3 88 q -2 159 -8 133 q 21 217 4 185 q 98 328 53 276 q 193 433 143 381 q 230 469 213 451 q 271 511 247 488 q 165 483 213 499 q 72 449 117 467 q 38 488 42 472 q 71 515 35 503 q 196 553 133 535 q 322 582 258 571 q 365 596 346 588 q 403 618 383 604 q 541 725 469 674 q 676 838 613 776 q 463 776 569 806 q 250 715 357 747 q 219 706 231 708 q 200 707 208 704 q 184 719 192 710 q 164 746 176 728 q 349 837 247 794 q 560 914 450 879 q 788 976 671 949 q 1019 1022 904 1003 q 1242 1050 1133 1040 q 1444 1060 1350 1060 q 1475 1052 1460 1060 q 1502 1033 1490 1044 q 1521 1008 1514 1021 q 1526 982 1528 994 q 1517 969 1525 975 q 1501 963 1508 963 q 1222 940 1360 960 q 951 886 1085 921 q 784 763 871 824 q 624 632 697 701 z "},"O":{"ha":914,"x_min":-3,"x_max":983,"o":"m 369 -3 q 284 -27 328 -24 q 196 -19 240 -31 q 160 -10 176 -14 q 129 0 144 -6 q 40 49 71 14 q 1 132 10 83 q 7 238 -3 188 q 35 336 17 289 q 77 428 53 383 q 126 519 101 474 q 140 549 135 535 q 136 581 144 563 q 131 701 111 643 q 199 811 150 760 q 315 906 247 863 q 454 980 383 949 q 590 1028 525 1011 q 699 1047 656 1046 q 788 1040 742 1051 q 874 1002 835 1028 q 941 936 914 976 q 972 843 968 896 q 960 672 983 758 q 892 502 938 586 q 785 340 847 418 q 651 197 722 263 q 508 79 581 131 q 369 -3 435 28 m 208 631 q 242 672 221 647 q 290 723 264 697 q 344 772 315 749 q 403 807 374 794 q 444 815 419 814 q 492 808 469 815 q 530 788 514 801 q 544 751 546 774 q 463 710 501 739 q 391 646 424 682 q 331 569 358 610 q 283 494 304 529 q 320 488 306 489 q 346 491 335 488 q 365 503 357 494 q 383 524 374 511 q 400 545 390 533 q 422 565 410 557 q 446 575 433 574 q 471 568 458 576 q 486 558 478 563 q 501 549 494 553 q 463 471 486 514 q 423 383 440 428 q 399 295 406 339 q 411 217 393 251 q 340 240 360 217 q 317 296 319 263 q 325 368 315 329 q 342 440 335 407 q 302 450 322 447 q 257 457 282 453 q 193 342 222 400 q 147 228 164 283 q 131 126 131 174 q 157 46 132 79 q 309 117 231 72 q 462 221 388 163 q 604 348 536 279 q 726 492 672 417 q 819 644 781 567 q 871 799 857 722 q 874 885 878 844 q 853 952 871 925 q 801 991 835 979 q 717 994 768 1003 q 548 951 629 981 q 400 876 467 922 q 284 769 333 831 q 208 631 235 708 z "},"N":{"ha":1096,"x_min":0,"x_max":1297,"o":"m 821 -29 q 773 3 785 -21 q 763 58 761 28 q 776 118 765 88 q 794 172 786 149 q 885 379 833 283 q 993 565 938 475 q 1104 744 1049 656 q 1204 931 1160 833 q 1211 968 1219 963 q 1144 942 1203 974 q 896 755 1018 864 q 663 521 774 646 q 458 263 553 396 q 290 6 363 129 q 239 38 257 17 q 224 96 221 60 q 233 147 226 122 q 246 197 239 172 q 320 389 275 297 q 419 568 365 481 q 532 741 474 656 q 644 914 590 826 q 462 840 553 888 q 292 728 371 792 q 150 586 213 664 q 53 422 88 508 q 8 452 17 428 q 8 507 0 476 q 31 567 15 538 q 60 614 47 597 q 606 1015 267 915 q 699 1015 661 1033 q 764 942 736 996 q 774 903 774 924 q 764 865 774 883 q 699 750 736 807 q 624 637 663 693 q 547 525 585 581 q 482 414 510 469 q 810 756 642 600 q 1175 1036 979 913 q 1223 1050 1200 1049 q 1268 1026 1246 1051 q 1295 976 1293 1003 q 1286 921 1297 950 q 1157 686 1226 800 q 1022 456 1088 572 q 903 221 957 340 q 821 -29 850 101 z "},"M":{"ha":1429,"x_min":-7,"x_max":1642,"o":"m 792 615 q 658 478 725 550 q 531 326 590 406 q 423 163 472 247 q 343 -10 374 79 q 303 5 318 -1 q 281 20 289 11 q 274 43 274 29 q 279 79 274 57 q 350 308 306 199 q 449 519 394 417 q 565 717 504 621 q 686 910 625 814 q 497 814 594 875 q 315 674 400 753 q 168 502 231 594 q 85 311 106 410 q 16 341 39 315 q 4 404 -7 367 q 67 543 25 475 q 166 674 110 611 q 289 792 222 736 q 426 895 356 849 q 565 978 496 942 q 697 1036 635 1014 q 737 1035 719 1040 q 769 1010 754 1029 q 772 1006 771 1007 q 774 1003 772 1006 q 806 963 794 979 q 820 932 818 947 q 815 898 822 917 q 793 853 808 879 q 695 689 746 767 q 608 529 644 611 q 623 544 615 538 q 638 558 631 551 q 738 652 688 604 q 838 744 788 700 q 881 765 864 767 q 922 742 899 763 q 938 721 933 733 q 936 693 943 708 q 916 644 925 668 q 896 597 907 621 q 848 483 872 538 q 801 371 824 428 q 990 552 901 458 q 1166 738 1079 646 q 1343 915 1253 829 q 1538 1072 1433 1001 q 1569 1084 1553 1081 q 1600 1072 1585 1088 q 1631 1040 1619 1057 q 1633 999 1642 1024 q 1519 756 1582 875 q 1398 517 1456 638 q 1297 272 1340 396 q 1242 13 1253 147 q 1156 65 1178 25 q 1140 163 1135 106 q 1169 288 1144 221 q 1222 418 1193 354 q 1371 719 1293 574 q 1532 1000 1449 865 q 1356 853 1440 939 q 1189 676 1271 768 q 1024 492 1107 583 q 853 326 942 401 q 815 308 833 311 q 774 319 797 304 q 744 351 751 333 q 740 390 738 368 q 780 503 757 450 q 826 610 803 557 q 837 643 836 635 q 831 649 838 651 q 815 638 825 647 q 792 615 804 628 z "},"L":{"ha":439,"x_min":-226,"x_max":849,"o":"m 682 1014 q 558 940 611 988 q 457 836 504 893 q 340 653 389 753 q 256 447 290 553 q 199 234 221 340 q 164 31 176 128 q 322 41 246 36 q 470 44 399 46 q 608 31 542 42 q 735 -1 674 21 q 765 -14 743 -4 q 806 -36 786 -24 q 838 -62 826 -49 q 836 -87 849 -75 q 586 -28 715 -43 q 327 -24 457 -12 q 71 -71 197 -36 q -171 -161 -56 -106 q -221 -122 -215 -140 q -175 -81 -226 -103 q -71 -39 -124 -58 q 35 0 -18 -19 q 57 6 46 3 q 81 13 68 10 q 53 50 63 31 q 39 90 43 69 q 35 131 35 110 q 36 172 35 151 q 98 451 53 307 q 210 724 143 596 q 365 948 278 851 q 556 1083 453 1044 q 628 1086 594 1099 q 681 1038 661 1074 q 684 1029 682 1033 q 686 1021 686 1025 q 684 1015 686 1017 q 682 1014 682 1013 z "},"K":{"ha":1157,"x_min":-17,"x_max":1483,"o":"m 1247 -8 q 1190 -78 1229 -57 q 1096 -85 1150 -99 q 906 -10 1003 -60 q 720 103 810 40 q 552 235 631 165 q 415 369 474 304 q 269 182 335 281 q 146 -24 203 83 q 103 -15 121 -25 q 69 11 85 -4 q 60 40 60 21 q 67 81 61 60 q 82 122 74 103 q 94 150 90 140 q 218 376 150 268 q 360 587 286 485 q 514 787 435 689 q 671 983 593 885 q 575 959 631 981 q 457 903 519 938 q 331 825 394 869 q 210 733 267 781 q 111 639 154 686 q 47 551 68 592 q 26 565 36 558 q 6 578 17 571 q -8 619 -17 593 q 128 794 49 713 q 302 940 208 875 q 498 1049 396 1004 q 700 1113 600 1093 q 752 1109 729 1118 q 794 1081 775 1100 q 835 1030 821 1051 q 851 987 849 1008 q 845 942 854 965 q 817 885 836 918 q 742 781 782 829 q 676 676 703 732 q 841 765 751 719 q 1026 849 931 811 q 1220 910 1122 886 q 1410 933 1318 935 q 1461 916 1446 933 q 1483 858 1476 899 q 1319 846 1410 863 q 1133 798 1229 829 q 939 724 1036 767 q 755 634 842 682 q 597 538 668 586 q 483 447 526 490 q 535 397 500 431 q 618 322 571 364 q 722 232 665 279 q 836 142 778 185 q 953 63 894 99 q 1063 6 1011 26 q 1156 -14 1114 -14 q 1225 15 1199 -14 q 1236 23 1231 24 q 1245 17 1242 22 q 1250 5 1249 13 q 1247 -8 1251 -3 z "},"J":{"ha":967,"x_min":-6,"x_max":1040,"o":"m 693 256 q 713 252 703 253 q 731 247 722 251 q 746 235 739 243 q 756 210 753 226 q 710 210 731 210 q 670 208 689 210 q 634 199 651 206 q 600 178 617 193 q 467 75 538 119 q 318 0 397 31 q 224 -29 269 -18 q 128 -39 178 -40 q 65 -25 93 -36 q 14 13 38 -14 q 21 94 -6 56 q 96 164 47 133 q 203 215 144 194 q 304 240 261 235 q 390 249 347 247 q 478 253 433 251 q 511 259 497 254 q 538 276 525 264 q 669 424 601 344 q 792 588 736 503 q 883 763 847 674 q 919 939 919 851 q 760 938 838 947 q 608 903 682 928 q 464 840 533 878 q 331 756 394 803 q 258 698 294 728 q 188 635 221 668 q 129 564 156 601 q 86 483 103 526 q 25 510 38 486 q 20 565 13 533 q 49 628 28 596 q 86 681 69 661 q 294 872 181 792 q 543 1006 408 951 q 681 1050 610 1033 q 817 1060 753 1067 q 937 1017 882 1053 q 1025 904 992 981 q 1039 834 1038 868 q 1028 767 1040 800 q 960 609 994 676 q 887 484 926 542 q 799 372 847 426 q 693 256 751 318 m 53 22 q 163 35 111 22 q 263 72 215 49 q 353 127 310 96 q 440 194 397 158 q 333 188 396 196 q 211 160 271 179 q 106 106 151 140 q 53 22 61 72 z "},"I":{"ha":576,"x_min":-10,"x_max":825,"o":"m 106 -42 q 81 -26 93 -32 q 61 -12 68 -19 q 53 5 54 -6 q 61 35 53 15 q 184 257 114 149 q 333 469 254 365 q 496 672 413 574 q 657 865 579 771 q 681 902 669 881 q 710 951 692 924 q 603 933 667 947 q 472 899 540 919 q 335 852 403 878 q 217 799 268 826 q 138 744 167 772 q 118 689 110 715 q 60 672 86 663 q 10 701 35 681 q 6 763 -10 731 q 51 823 21 794 q 117 874 82 851 q 171 910 151 897 q 396 1010 282 975 q 629 1061 510 1046 q 688 1060 661 1067 q 735 1038 714 1053 q 776 1001 757 1022 q 811 956 794 979 q 822 909 825 935 q 808 858 819 883 q 779 809 796 832 q 750 772 763 786 q 420 389 581 583 q 121 -19 260 194 q 115 -29 118 -24 q 106 -42 111 -35 z "},"H":{"ha":1365,"x_min":-29,"x_max":1525,"o":"m 632 538 q 725 545 674 544 q 826 551 776 546 q 920 572 876 557 q 989 622 964 586 q 1144 835 1060 735 q 1336 1019 1229 935 q 1375 1049 1356 1035 q 1415 1075 1394 1063 q 1457 1088 1443 1090 q 1490 1065 1471 1086 q 1506 1047 1499 1057 q 1525 1026 1514 1038 q 1289 816 1393 931 q 1094 571 1185 701 q 1164 560 1131 564 q 1228 546 1197 557 q 1278 510 1258 533 q 1314 461 1299 488 q 1288 442 1301 446 q 1258 439 1275 439 q 1028 439 1144 440 q 1013 432 1021 438 q 1001 419 1004 426 q 909 235 949 328 q 854 43 869 143 q 854 -17 849 13 q 864 -81 860 -46 q 822 -65 838 -79 q 796 -29 807 -51 q 784 78 779 17 q 806 203 789 139 q 843 326 822 267 q 879 426 864 385 q 867 428 871 428 q 856 428 863 429 q 708 411 782 419 q 560 396 635 403 q 522 385 536 394 q 493 361 508 376 q 363 196 429 278 q 231 31 297 114 q 220 19 224 24 q 211 13 217 15 q 200 13 200 13 q 148 45 164 33 q 131 68 132 57 q 139 93 129 79 q 164 132 149 107 q 233 242 196 188 q 308 360 269 297 q 167 336 235 349 q 28 303 100 324 q 8 316 19 310 q -12 333 -3 322 q -24 361 -29 349 q -3 384 -18 374 q 30 401 11 394 q 60 413 49 408 q 217 453 139 432 q 376 494 294 475 q 415 508 400 499 q 443 535 431 517 q 598 735 525 642 q 728 931 671 829 q 749 986 739 950 q 460 888 593 960 q 219 708 326 815 q 183 672 207 696 q 139 622 158 649 q 112 569 119 594 q 124 525 104 543 q 61 540 83 521 q 43 592 39 560 q 60 644 47 617 q 92 697 74 671 q 129 746 110 724 q 165 785 149 768 q 392 964 265 889 q 665 1072 518 1039 q 749 1067 713 1081 q 815 1021 785 1053 q 846 875 885 954 q 744 702 800 783 q 632 538 689 621 z "},"G":{"ha":1157,"x_min":3,"x_max":1343,"o":"m 131 65 q 305 103 222 72 q 465 178 388 133 q 614 278 542 224 q 758 390 686 333 q 901 501 829 447 q 1050 599 974 556 q 1102 609 1076 614 q 1139 578 1128 604 q 1140 563 1142 571 q 1133 549 1138 556 q 1118 528 1128 538 q 1101 511 1108 519 q 1008 388 1057 458 q 919 241 960 318 q 852 87 879 164 q 825 -56 825 10 q 812 -87 824 -79 q 778 -85 800 -96 q 702 -31 726 -60 q 673 30 678 -1 q 678 95 668 61 q 703 163 688 129 q 733 231 718 197 q 757 297 749 265 q 636 216 693 256 q 526 140 579 176 q 421 72 472 104 q 315 15 369 40 q 280 1 301 8 q 235 -10 258 -6 q 192 -16 213 -15 q 157 -10 171 -17 q 51 60 86 21 q 10 146 17 100 q 19 244 3 192 q 69 354 36 296 q 166 491 111 426 q 283 615 221 556 q 458 766 363 692 q 656 901 553 840 q 868 1006 760 963 q 1083 1061 976 1049 q 1149 1062 1121 1065 q 1201 1046 1178 1058 q 1244 1013 1225 1033 q 1283 964 1264 992 q 1299 913 1303 939 q 1283 861 1294 888 q 1249 877 1256 864 q 1239 906 1243 890 q 1234 935 1238 921 q 1228 969 1231 950 q 1044 936 1138 965 q 861 860 951 907 q 684 752 771 813 q 519 625 597 692 q 372 488 440 558 q 249 351 303 417 q 202 285 228 322 q 156 209 176 249 q 127 132 136 169 q 131 65 118 94 m 975 601 q 830 559 900 583 q 690 503 760 535 q 658 492 676 497 q 578 513 604 465 q 574 527 572 518 q 581 540 575 536 q 710 628 632 592 q 873 688 788 664 q 1043 727 958 713 q 1194 751 1128 742 q 1284 733 1250 757 q 1342 669 1318 710 q 1328 647 1343 650 q 1294 644 1314 643 q 1132 632 1211 644 q 975 601 1053 619 z "},"F":{"ha":899,"x_min":-29,"x_max":1442,"o":"m 525 567 q 673 577 601 572 q 819 589 744 582 q 843 583 832 593 q 856 556 854 572 q 846 525 858 540 q 800 506 833 510 q 726 497 768 501 q 638 488 683 492 q 549 479 593 483 q 467 472 504 475 q 410 394 438 440 q 360 295 383 347 q 317 190 336 243 q 285 92 299 136 q 265 17 272 49 q 260 -22 258 -14 q 256 -30 260 -28 q 245 -32 251 -32 q 232 -30 239 -32 q 221 -25 225 -28 q 156 21 181 -6 q 133 96 132 47 q 149 195 138 149 q 177 284 161 242 q 213 367 193 326 q 254 450 233 408 q 159 461 206 454 q 72 488 113 468 q 42 512 51 497 q 30 540 32 526 q 31 565 28 554 q 42 579 35 576 q 106 606 72 592 q 170 638 139 621 q 227 674 201 654 q 268 715 253 693 q 232 728 247 722 q 201 740 217 735 l 71 789 q 26 819 46 800 q -7 861 7 839 q 6 914 -29 894 q 69 939 33 931 q 713 1041 396 1001 q 1350 1107 1031 1081 q 1397 1105 1382 1114 q 1424 1072 1413 1096 q 1431 1047 1426 1058 q 1438 1021 1435 1035 q 1437 997 1442 1006 q 1422 983 1432 988 q 1400 976 1413 978 q 1376 975 1388 975 q 1233 972 1310 972 q 1081 966 1156 971 q 941 950 1006 961 q 836 914 876 939 q 666 749 749 835 q 525 567 583 664 m 178 558 q 232 557 206 558 q 282 558 258 556 q 326 570 306 561 q 363 600 346 579 q 511 778 432 694 q 679 942 590 863 q 576 935 633 940 q 456 923 518 931 q 333 906 394 915 q 219 888 271 897 q 131 868 168 878 q 79 851 93 858 q 124 832 100 836 q 174 813 149 821 q 224 793 199 804 q 261 773 243 783 q 290 749 279 763 q 324 695 318 718 q 314 651 331 672 q 288 626 304 639 q 253 602 272 614 q 214 579 233 590 q 178 558 194 568 z "},"P":{"ha":1264,"x_min":19,"x_max":1456,"o":"m 1235 1015 q 1298 990 1268 1007 q 1355 949 1328 972 q 1405 901 1382 926 q 1447 851 1428 875 q 1456 825 1456 840 q 1450 794 1456 810 q 1436 763 1444 778 q 1421 736 1428 747 q 1293 596 1367 658 q 1137 486 1219 533 q 967 407 1054 439 q 799 356 881 375 q 649 330 718 336 q 532 329 579 324 q 485 233 508 289 q 443 123 461 178 q 415 22 425 68 q 410 -47 406 -25 q 413 -55 414 -50 q 409 -63 413 -60 q 399 -69 406 -67 q 388 -71 393 -72 q 310 -37 336 -64 q 272 25 283 -11 q 245 126 258 75 q 213 220 232 176 q 167 297 194 264 q 100 344 140 329 q 69 367 79 353 q 58 395 60 381 q 59 422 56 410 q 69 436 63 433 q 133 463 100 449 q 198 494 167 478 q 255 531 229 511 q 296 572 281 550 q 227 590 278 578 q 101 601 176 601 q 86 613 97 601 q 63 640 75 625 q 41 669 51 656 q 29 685 31 682 q 31 725 19 700 q 82 782 43 750 q 224 872 138 829 q 415 948 311 914 q 633 1007 519 982 q 857 1042 747 1032 q 1065 1047 967 1053 q 1235 1015 1163 1040 m 706 851 q 764 851 731 868 q 787 833 775 840 q 810 818 799 825 q 838 788 836 799 q 824 753 840 776 q 762 663 797 711 q 690 566 726 615 q 618 469 653 517 q 558 382 583 422 q 715 419 633 392 q 875 485 796 446 q 1029 572 954 524 q 1166 669 1104 619 q 1274 768 1228 719 q 1346 860 1321 817 q 1350 891 1357 879 q 1308 914 1343 903 q 1032 941 1182 950 q 730 892 882 932 q 435 788 578 853 q 181 646 293 722 q 220 638 199 642 q 261 630 242 635 q 296 619 281 625 q 318 606 311 613 q 360 545 346 575 q 358 494 375 515 q 323 464 349 482 q 267 427 297 446 q 208 392 238 408 q 163 367 179 376 q 222 317 200 347 q 257 251 244 286 q 276 183 269 217 q 286 124 282 149 q 343 318 303 217 q 440 517 383 419 q 565 700 496 614 q 706 851 633 786 z "},"Q":{"ha":949,"x_min":-6,"x_max":1010,"o":"m 533 40 q 474 10 501 24 q 419 -19 447 -4 q 306 -42 361 -43 q 196 -12 251 -42 q 183 -7 193 -10 q 69 83 100 25 q 42 210 39 140 q 76 342 49 281 q 136 463 103 404 q 49 518 82 492 q 5 575 15 544 q 8 643 -6 606 q 60 733 21 681 q 155 836 99 786 q 278 927 211 886 q 418 997 344 968 q 565 1039 492 1026 q 709 1044 639 1051 q 840 1006 779 1038 q 952 908 918 965 q 989 776 986 850 q 958 581 993 679 q 866 392 922 482 q 739 226 810 303 q 601 96 668 150 q 656 20 628 57 q 719 -47 683 -17 q 799 -97 754 -76 q 904 -124 844 -117 q 1010 -172 969 -131 q 985 -187 1000 -187 q 957 -186 969 -187 q 728 -103 831 -156 q 533 40 625 -51 m 793 875 q 669 828 729 865 q 556 739 610 790 q 458 629 503 688 q 376 519 413 571 q 391 512 374 513 q 432 514 408 511 q 478 520 456 517 q 508 525 500 524 q 544 529 529 529 q 571 525 558 529 q 594 510 583 521 q 619 483 606 500 q 563 211 525 364 q 697 343 632 269 q 810 499 763 417 q 882 672 858 582 q 892 853 906 761 q 819 975 872 944 q 665 993 767 1006 q 424 921 533 975 q 225 783 315 867 q 185 742 208 768 q 142 686 163 717 q 106 624 121 656 q 90 567 90 593 q 106 524 89 540 q 167 508 122 508 q 262 644 210 579 q 374 767 314 710 q 502 870 435 824 q 642 949 569 917 q 685 960 665 958 q 724 956 706 961 q 759 942 742 951 q 796 918 776 932 q 793 875 819 901 m 468 133 q 431 297 426 217 q 478 458 435 378 q 408 453 439 456 q 344 449 376 451 q 327 441 336 447 q 313 428 318 435 q 263 341 290 390 q 218 240 236 292 q 197 136 200 188 q 221 43 194 85 q 291 49 258 42 q 353 69 324 57 q 412 99 383 82 q 468 133 440 115 z "},"R":{"ha":1614,"x_min":-3,"x_max":1861,"o":"m 726 363 q 843 265 778 317 q 982 165 908 214 q 1134 71 1056 115 q 1291 -4 1213 26 q 1445 -49 1369 -35 q 1589 -51 1521 -62 q 1618 -43 1601 -46 q 1644 -42 1635 -40 q 1650 -52 1654 -44 q 1617 -74 1646 -60 q 1504 -112 1561 -104 q 1390 -113 1447 -121 q 1278 -87 1333 -106 q 1169 -47 1222 -69 q 550 356 806 96 q 498 265 522 313 q 457 168 474 218 q 434 67 440 118 q 436 -33 428 17 q 436 -53 449 -47 q 413 -56 424 -60 q 282 79 290 -25 q 314 313 276 200 q 417 526 351 426 q 568 710 482 626 q 747 857 654 794 q 644 831 706 850 q 515 785 583 813 q 378 722 447 757 q 249 647 308 686 q 149 565 190 607 q 97 479 108 522 q 31 476 54 468 q 3 505 8 485 q 8 551 -3 525 q 44 603 19 578 q 178 719 101 665 q 344 817 256 772 q 529 898 433 863 q 722 960 625 933 q 910 1005 818 988 q 1081 1031 1001 1022 q 1273 1044 1164 1039 q 1491 1035 1382 1049 q 1694 985 1600 1022 q 1840 874 1788 947 q 1858 807 1861 838 q 1836 751 1854 776 q 1791 703 1818 725 q 1738 663 1764 681 q 1503 538 1628 589 q 1247 453 1378 488 q 983 399 1115 419 q 726 363 851 378 m 596 457 q 888 483 736 463 q 1183 542 1039 504 q 1457 638 1328 581 q 1683 775 1586 696 q 1720 811 1703 792 q 1750 853 1738 831 q 1740 886 1761 872 q 1688 909 1719 900 q 1624 923 1656 918 q 1582 929 1592 928 q 1221 944 1403 954 q 860 893 1039 935 q 879 879 871 885 q 897 867 888 874 q 910 850 910 858 q 905 833 910 842 q 892 817 900 825 q 879 803 883 810 q 731 635 803 722 q 596 457 658 549 z "},"S":{"ha":1081,"x_min":8,"x_max":1331,"o":"m 261 188 q 276 167 269 176 q 292 147 283 158 q 231 107 268 132 q 158 51 193 82 q 100 -12 122 21 q 86 -75 78 -44 q 297 -49 186 -79 q 512 34 407 -19 q 708 157 617 88 q 864 300 800 226 q 911 374 890 333 q 835 385 879 385 q 751 382 790 386 q 502 355 622 368 q 263 328 382 342 q 187 327 221 325 q 124 340 153 329 q 71 373 96 351 q 22 431 46 394 q 17 488 8 460 q 42 540 25 517 q 191 688 101 619 q 385 815 281 757 q 602 918 490 872 q 817 997 714 964 q 1008 1049 921 1029 q 1150 1072 1094 1068 q 1258 1040 1215 1078 q 1299 994 1279 1022 q 1325 939 1318 965 q 1308 882 1331 911 q 1188 772 1260 824 q 1040 678 1117 721 q 891 602 964 635 q 767 549 818 569 q 738 539 749 542 q 717 539 726 536 q 697 551 707 542 q 671 578 686 561 q 811 659 740 619 q 951 742 882 699 q 1084 835 1019 786 q 1207 944 1149 883 q 910 881 1058 925 q 623 769 763 836 q 358 617 483 703 q 128 431 232 531 q 291 423 208 419 q 458 435 374 426 q 624 453 542 444 q 788 461 707 461 q 897 440 847 460 q 968 364 946 419 q 963 306 976 336 q 925 247 949 275 q 772 108 865 176 q 574 -16 679 39 q 361 -106 468 -71 q 167 -146 254 -142 q 111 -137 140 -149 q 60 -106 82 -126 q 29 -60 39 -86 q 31 -10 19 -35 q 67 47 43 19 q 123 99 92 75 q 190 146 154 124 q 261 188 225 168 z "},"T":{"ha":407,"x_min":0,"x_max":1418,"o":"m 118 -119 q 51 -99 75 -114 q 15 -60 26 -83 q 1 -9 3 -37 q 3 51 0 19 q 26 170 8 107 q 68 299 44 233 q 119 430 92 364 q 172 557 147 496 q 191 655 193 607 q 174 749 189 703 q 135 839 158 794 q 89 925 111 883 q 79 972 74 960 q 125 994 85 985 q 426 1055 268 1025 q 737 1108 585 1085 q 1024 1144 889 1131 q 1258 1156 1160 1157 q 1346 1129 1313 1158 q 1404 1063 1379 1100 q 1406 1030 1418 1042 q 1356 1021 1394 1018 q 998 1004 1178 1021 q 639 971 818 988 q 596 943 611 969 q 512 805 563 888 q 407 625 461 722 q 299 424 353 528 q 206 222 246 319 q 144 39 165 124 q 133 -104 124 -46 q 134 -120 136 -121 q 118 -119 132 -119 m 165 904 q 210 802 189 851 q 251 701 231 753 q 289 766 272 736 q 322 824 306 796 q 356 880 339 851 q 394 940 374 908 q 333 931 361 936 q 278 922 306 926 q 224 913 251 918 q 165 904 197 908 z "},"U":{"ha":1185,"x_min":-24,"x_max":1372,"o":"m 876 -132 q 775 -14 763 -115 q 833 208 796 99 q 917 420 871 317 q 1015 621 963 524 q 1117 808 1067 718 q 911 608 1010 706 q 719 421 813 511 q 533 247 625 331 q 347 88 440 163 q 290 44 319 64 q 228 15 260 25 q 166 6 197 4 q 104 29 135 8 q 4 251 -24 104 q 54 448 17 344 q 149 651 92 551 q 279 839 206 750 q 438 994 353 928 q 483 1017 464 1015 q 517 1010 501 1019 q 546 985 532 1001 q 578 954 560 968 q 411 769 489 868 q 274 563 333 671 q 176 338 214 456 q 131 97 139 221 q 275 169 210 124 q 403 264 340 214 q 642 480 528 376 q 866 681 757 583 q 1080 874 975 779 q 1288 1063 1185 968 q 1306 1076 1296 1076 q 1325 1069 1317 1076 q 1358 1038 1344 1058 q 1364 994 1372 1017 q 1235 708 1304 846 q 1099 433 1165 569 q 973 158 1032 297 q 876 -132 914 18 z "},"V":{"ha":772,"x_min":-14,"x_max":1383,"o":"m 265 172 q 428 322 349 242 q 586 487 507 403 q 747 654 665 571 q 915 811 828 738 q 1097 946 1001 885 q 1300 1046 1193 1007 q 1336 1050 1318 1051 q 1366 1043 1354 1049 q 1381 1029 1378 1038 q 1371 1015 1383 1021 q 1147 889 1251 964 q 946 724 1042 814 q 762 536 850 635 q 586 339 674 438 q 409 148 499 240 q 222 -21 319 56 q 129 -24 178 -50 q 93 -6 110 -15 q 57 11 76 3 q 4 111 -14 43 q 101 363 36 246 q 238 594 165 481 q 362 788 301 694 q 485 972 422 882 q 404 935 449 958 q 315 881 360 911 q 228 815 269 851 q 155 739 186 779 q 108 656 124 699 q 101 568 93 613 q 40 589 61 571 q 17 636 18 607 q 24 695 15 667 q 49 750 33 724 q 83 799 64 776 q 119 842 101 822 q 293 992 200 928 q 490 1092 386 1056 q 508 1096 499 1094 q 529 1097 518 1097 q 572 1084 550 1097 q 613 1051 594 1071 q 640 1010 631 1032 q 644 971 650 989 q 615 896 632 932 q 578 825 597 860 q 407 536 494 679 q 246 244 319 393 q 219 189 233 219 q 201 140 204 158 q 210 126 197 122 q 265 172 224 129 z "},"W":{"ha":1399,"x_min":-11,"x_max":1788,"o":"m 401 803 q 341 758 371 782 q 303 696 311 733 q 269 703 285 692 q 246 732 254 714 q 239 771 238 750 q 256 807 240 792 q 338 870 300 842 q 413 925 376 899 q 489 979 450 951 q 576 1039 528 1007 q 633 1038 607 1060 q 667 1006 651 1018 q 693 981 683 993 q 701 951 703 968 q 682 907 700 935 q 548 706 618 803 q 410 512 478 610 q 283 313 343 414 q 182 100 224 213 q 382 278 288 188 q 569 455 476 368 q 759 621 663 542 q 964 765 856 700 q 1005 773 986 776 q 1043 757 1024 769 q 1064 699 1078 731 q 1006 544 1036 619 q 948 396 975 469 q 901 248 921 322 q 878 96 882 174 q 1059 374 971 246 q 1239 623 1147 501 q 1431 868 1331 744 q 1647 1135 1531 992 q 1713 1170 1679 1174 q 1782 1131 1746 1167 q 1786 1110 1788 1119 q 1780 1092 1785 1100 q 1768 1076 1775 1083 q 1756 1060 1761 1068 q 1541 798 1643 926 q 1342 543 1439 669 q 1154 292 1246 417 q 971 43 1063 167 q 951 22 961 32 q 932 1 940 11 q 896 -22 917 -15 q 851 -21 875 -29 q 803 6 825 -10 q 783 53 781 21 q 813 223 793 142 q 858 381 832 304 q 915 535 883 458 q 981 690 947 611 q 775 527 869 619 q 590 336 681 435 q 408 142 499 238 q 213 -31 317 46 q 158 -53 181 -54 q 101 -29 136 -51 q 79 -15 90 -22 q 57 0 68 -7 q 6 118 -11 43 q 74 308 31 219 q 170 481 117 397 q 283 643 224 564 q 401 803 343 722 z "},"X":{"ha":813,"x_min":14,"x_max":1522,"o":"m 629 -67 q 574 -56 601 -65 q 524 -33 546 -47 q 487 -1 501 -19 q 471 40 472 18 q 484 253 464 143 q 533 471 504 363 q 407 368 471 422 q 281 257 343 314 q 161 141 219 200 q 51 24 103 82 q 40 31 44 29 q 33 35 36 33 q 26 40 31 38 q 14 49 22 43 q 259 319 125 200 q 536 546 393 438 q 562 572 551 557 q 579 601 572 586 q 651 801 617 704 q 722 994 685 899 q 590 937 647 971 q 483 860 532 903 l 475 860 q 434 888 442 869 q 435 929 426 907 q 465 972 444 951 q 511 1006 486 993 q 568 1033 546 1024 q 608 1049 590 1043 q 645 1062 626 1056 q 692 1079 664 1068 q 786 1071 747 1099 q 803 1057 794 1063 q 819 1044 811 1051 q 867 1011 847 1029 q 881 965 886 993 q 848 846 869 903 q 813 735 826 789 q 1132 914 975 826 q 1453 1074 1289 1001 q 1490 1078 1479 1082 q 1522 1053 1501 1075 q 1503 1040 1514 1042 q 1311 953 1401 999 q 1136 858 1221 907 q 971 758 1051 808 q 810 654 890 707 q 797 644 804 651 q 782 628 789 636 q 769 611 775 619 q 763 597 764 603 q 703 451 733 536 q 651 273 672 365 q 622 91 629 181 q 629 -67 614 1 z "},"Y":{"ha":1263,"x_min":3,"x_max":1432,"o":"m 553 938 q 272 768 397 863 q 54 550 147 674 q 74 538 65 544 q 87 524 83 531 q 87 513 90 517 q 71 510 83 508 q 16 531 29 514 q 6 572 3 549 q 24 620 10 596 q 51 661 39 644 q 160 777 100 722 q 285 878 219 832 q 420 959 351 924 q 556 1017 489 994 q 647 1004 607 1033 q 678 977 667 989 q 692 954 689 965 q 690 930 694 943 q 672 899 685 917 q 610 815 644 857 q 539 730 575 772 q 468 645 503 688 q 407 563 433 603 q 365 486 381 524 q 353 417 350 449 q 463 449 403 421 q 592 519 524 476 q 735 617 661 563 q 886 733 810 672 q 1038 854 963 793 q 1186 972 1114 915 q 1240 1013 1214 993 q 1292 1053 1265 1033 q 1333 1069 1308 1064 q 1381 1069 1358 1074 q 1418 1047 1404 1064 q 1426 994 1432 1029 q 1330 706 1399 849 q 1164 435 1261 563 q 947 205 1067 308 q 694 35 826 101 q 592 -8 642 7 q 488 -27 542 -24 q 376 -19 435 -31 q 249 19 318 -8 q 210 43 219 31 q 204 67 200 56 q 224 85 208 78 q 258 96 239 93 q 469 151 363 108 q 677 255 576 193 q 871 394 778 317 q 1042 554 964 471 q 1179 722 1119 638 q 1274 883 1239 807 q 1303 956 1296 932 q 1304 984 1311 981 q 1276 972 1297 988 q 1217 928 1254 957 q 1034 776 1132 858 q 834 615 936 693 q 629 472 732 538 q 432 372 526 407 q 368 363 401 361 q 308 378 335 365 q 263 411 281 390 q 244 457 244 432 q 263 544 244 500 q 310 630 282 588 q 375 713 339 672 q 445 792 411 753 q 508 867 479 831 q 553 938 538 904 z "},"Z":{"ha":1240,"x_min":-7,"x_max":1447,"o":"m 696 193 q 867 129 783 165 q 1033 61 950 93 q 1064 44 1050 54 q 1094 22 1078 33 q 1063 16 1075 13 q 1039 22 1050 19 q 850 90 943 60 q 663 151 757 121 q 625 154 642 157 q 590 144 608 151 q 376 60 482 93 q 157 17 271 28 q 74 30 110 11 q 8 72 39 49 q 0 105 -7 89 q 23 134 7 121 q 58 157 39 147 q 88 172 76 167 q 190 199 129 189 q 316 216 251 210 q 442 224 381 222 q 546 225 504 226 q 545 222 554 225 q 519 215 536 219 q 482 206 503 210 q 443 198 461 201 q 415 194 425 194 q 413 197 406 193 q 547 281 465 229 q 722 398 629 332 q 913 542 815 464 q 1096 708 1011 621 q 1244 890 1181 796 q 1336 1081 1308 983 q 1144 1062 1244 1088 q 946 985 1044 1036 q 756 864 847 935 q 591 712 665 793 q 465 544 517 631 q 394 372 413 457 q 344 381 363 374 q 309 415 314 390 q 313 467 304 439 q 335 524 321 496 q 358 568 350 551 q 517 794 422 692 q 723 972 611 896 q 960 1097 835 1049 q 1210 1161 1085 1144 q 1275 1163 1235 1169 q 1353 1132 1315 1157 q 1419 1060 1392 1107 q 1447 940 1447 1014 q 1331 712 1408 817 q 1156 517 1254 607 q 946 353 1057 428 q 728 214 835 278 q 713 205 719 210 q 696 193 707 200 m 401 175 q 271 161 335 172 q 163 135 207 150 q 99 106 118 121 q 106 83 81 92 q 166 93 124 83 q 255 117 208 103 q 342 147 301 132 q 401 175 383 163 z "},"a":{"ha":617,"x_min":-65,"x_max":661,"o":"m 451 158 q 401 113 419 129 q 370 87 382 96 q 353 74 358 78 q 343 69 347 71 q 294 69 318 61 q 256 97 271 76 q 234 151 240 118 q 238 225 228 183 l 183 172 q 113 133 153 142 q 36 135 72 125 q -28 174 0 146 q -61 243 -56 201 q -46 342 -65 290 q 5 441 -26 393 q 74 530 36 489 q 144 596 113 571 q 207 635 178 622 q 264 648 236 647 q 319 637 292 649 q 379 604 347 625 q 417 631 399 615 q 456 647 436 646 q 494 633 475 647 q 536 607 514 618 q 487 501 513 554 q 438 394 461 449 q 397 285 415 340 q 372 172 379 229 q 504 292 446 226 q 618 429 563 357 l 661 410 q 563 277 615 339 q 451 158 511 215 m 356 563 q 333 578 346 579 q 308 569 319 576 q 161 426 219 511 q 81 243 103 340 q 151 293 111 257 q 231 375 192 329 q 304 471 271 421 q 356 563 338 521 z "},"b":{"ha":578,"x_min":-99,"x_max":604,"o":"m 604 396 q 467 306 536 354 q 326 213 397 258 q 180 131 254 168 q 28 75 106 94 l -3 -58 q -42 -46 -24 -51 q -78 -31 -61 -40 q -95 1 -92 -22 q -97 52 -99 25 q -90 104 -94 79 q -82 140 -85 129 q -35 317 -62 222 q 28 513 -7 413 q 106 711 64 613 q 195 899 147 810 q 297 1064 243 989 q 410 1190 350 1139 q 487 1219 453 1228 q 554 1158 521 1211 q 444 1022 496 1104 q 347 848 392 939 q 263 667 301 757 q 193 510 224 578 q 245 535 222 524 q 292 556 268 547 q 358 564 328 568 q 412 542 389 560 q 448 497 435 525 q 461 436 461 469 q 456 402 461 419 q 444 361 451 385 q 517 401 481 382 q 583 440 553 421 l 604 396 m 68 178 q 174 242 126 210 q 260 314 222 275 q 327 400 299 353 q 374 508 356 447 q 260 457 311 486 q 169 388 208 428 q 105 297 131 349 q 68 178 79 244 z "},"c":{"ha":467,"x_min":-49,"x_max":515,"o":"m 515 397 q 369 264 444 325 q 210 156 293 203 q 142 129 171 136 q 87 128 113 122 q 35 153 61 135 q -21 203 10 172 q -38 230 -32 214 q -46 261 -44 246 q -33 356 -49 307 q 9 451 -17 404 q 68 538 35 497 q 133 606 101 578 q 203 647 168 636 q 270 651 238 657 q 333 626 303 646 q 390 575 363 606 q 410 536 411 551 q 385 489 410 521 q 350 516 365 503 q 319 544 335 529 q 235 481 274 519 q 167 394 197 442 q 111 297 136 347 q 68 196 86 246 q 291 285 190 219 q 475 433 392 350 l 515 397 z "},"d":{"ha":569,"x_min":-32,"x_max":742,"o":"m 629 403 q 509 165 565 282 q 386 -68 453 47 q 347 -106 371 -93 q 292 -107 324 -118 q 256 -95 274 -101 q 224 -79 239 -89 q 200 -55 210 -69 q 189 -18 190 -40 q 188 51 186 13 q 196 130 190 90 q 209 209 201 169 q 225 282 217 249 q 174 226 200 254 q 120 178 147 197 q 65 156 93 160 q 7 175 36 153 q -29 250 -26 203 q 0 442 -32 353 q 110 603 32 531 q 206 658 154 646 q 315 635 257 669 q 324 632 321 632 q 333 633 325 631 q 408 798 372 719 q 481 947 444 876 q 558 1080 518 1017 q 644 1200 599 1143 q 669 1218 658 1218 q 700 1206 681 1218 q 728 1187 718 1194 q 740 1170 738 1179 q 738 1149 742 1161 q 724 1118 733 1136 q 572 800 644 958 q 436 478 499 642 q 394 360 415 422 q 353 232 372 297 q 318 103 333 167 q 293 -19 303 39 q 306 -10 290 -31 q 346 51 321 11 q 402 144 371 92 q 465 251 433 197 q 526 354 497 306 q 574 433 554 403 l 629 403 m 83 219 q 299 550 256 346 q 218 508 258 543 q 147 426 178 474 q 97 323 115 378 q 83 219 79 268 z "},"e":{"ha":511,"x_min":-31,"x_max":553,"o":"m 553 393 q 401 263 479 325 q 235 154 324 200 q 47 160 140 104 q -10 214 11 183 q -28 288 -31 244 q 22 478 -21 392 q 150 626 64 564 q 216 655 183 651 q 281 648 249 658 q 341 617 313 638 q 394 575 369 597 q 406 463 451 524 q 246 346 343 379 q 174 344 208 332 q 107 368 139 356 q 78 303 88 335 q 68 235 68 271 q 80 192 68 203 q 124 188 92 181 q 232 231 181 203 q 331 291 283 258 q 422 360 378 324 q 513 428 467 396 l 553 393 m 301 572 q 258 547 282 565 q 211 506 235 529 q 168 460 188 483 q 139 419 149 438 q 191 429 164 417 q 242 463 218 442 q 282 512 265 483 q 301 572 299 540 z "},"f":{"ha":440,"x_min":-149,"x_max":533,"o":"m 453 394 q 397 387 431 388 q 329 389 364 386 q 264 396 294 392 q 217 404 233 400 q 244 222 242 318 q 226 33 246 125 q 163 -142 206 -60 q 57 -282 121 -225 q 17 -302 39 -299 q -26 -294 -4 -306 l -74 -276 q -132 -206 -119 -256 q -136 -49 -149 -131 q -97 115 -124 33 q -39 275 -71 197 q 15 418 -7 353 l -22 450 q -9 466 -17 463 q 8 471 -1 469 q 26 472 17 472 q 43 478 35 472 q 205 762 124 633 q 393 990 286 890 q 435 1011 415 1008 q 471 1006 454 1014 q 503 985 488 999 q 533 956 518 971 q 497 917 514 935 q 464 879 479 899 q 337 692 397 790 q 217 471 276 594 q 276 461 244 467 q 340 451 307 456 q 404 447 372 447 q 465 456 436 447 l 453 394 m 3 -96 q -5 -133 -1 -111 q -10 -172 -8 -154 q -8 -201 -11 -190 q 7 -207 -4 -212 q 71 -151 42 -190 q 122 -62 100 -112 q 160 47 144 -12 q 181 164 175 106 q 184 275 188 222 q 165 368 181 328 q 72 141 113 256 q 3 -96 31 26 z "},"g":{"ha":864,"x_min":-222,"x_max":763,"o":"m 600 292 q 490 253 543 276 q 388 206 438 231 q 288 156 338 181 q 186 111 238 131 q 40 133 107 79 q 8 160 25 147 q -26 188 -10 172 q -62 301 -78 229 q -3 442 -44 376 q 97 560 39 508 q 222 648 154 613 q 360 697 290 683 q 469 681 424 708 q 551 604 515 653 q 554 594 554 600 q 557 576 554 588 q 529 588 542 582 q 504 599 517 594 q 479 606 492 604 q 450 601 467 607 q 233 460 318 556 q 94 229 147 365 q 216 272 158 247 q 332 319 274 296 q 435 357 383 340 q 543 381 488 374 q 647 366 601 388 q 729 303 693 344 q 758 235 754 271 q 753 163 763 199 q 688 -11 731 79 q 587 -190 644 -101 q 458 -360 529 -278 q 310 -511 388 -443 q 149 -630 232 -579 q -17 -704 65 -681 q -104 -708 -64 -718 q -181 -671 -144 -697 q -213 -632 -204 -654 q -221 -582 -222 -610 q -197 -485 -219 -535 q -143 -391 -175 -436 q -75 -306 -111 -346 q -8 -239 -39 -267 q 389 19 165 -75 q 431 35 410 29 q 475 49 453 42 q 504 57 483 51 q 549 67 525 63 q 597 75 574 72 q 635 74 621 78 q 654 119 643 93 q 674 174 665 146 q 688 228 683 201 q 685 272 692 254 q 659 297 679 290 q 600 292 639 303 m 525 4 q 222 -153 361 -58 q -31 -382 82 -249 q -78 -445 -54 -410 q -117 -516 -101 -481 q -139 -582 -133 -551 q -132 -631 -144 -612 q -87 -649 -119 -649 q 4 -624 -56 -650 q 183 -511 93 -585 q 351 -348 272 -437 q 497 -163 431 -258 q 607 13 563 -68 l 618 35 l 525 4 z "},"o":{"ha":485,"x_min":-56,"x_max":504,"o":"m 504 394 q 458 373 481 385 q 413 353 436 361 q 377 335 393 346 q 350 301 361 324 q 218 139 303 206 q 137 104 178 108 q 49 129 96 100 q -36 213 -17 169 q -37 329 -56 256 q 23 487 -15 418 q 119 618 61 556 q 159 646 135 635 q 210 661 183 657 q 263 664 236 665 q 311 654 290 663 q 379 605 358 635 q 404 539 400 575 q 401 463 408 503 q 386 385 394 424 q 440 407 413 392 q 492 435 468 422 l 504 394 m 292 381 q 308 417 299 393 q 326 469 318 442 q 340 525 335 497 q 342 574 344 553 q 326 606 339 594 q 286 610 313 617 q 292 589 289 600 q 293 569 296 578 q 281 547 289 558 q 264 533 272 535 q 232 522 244 531 q 211 501 219 513 q 196 477 203 490 q 181 453 189 464 q 201 415 192 429 q 221 394 210 401 q 249 383 232 386 q 292 381 265 381 m 79 167 q 183 233 140 185 q 258 335 226 282 q 182 356 203 336 q 149 407 161 376 q 103 295 125 358 q 79 167 82 232 z "},"n":{"ha":790,"x_min":-47,"x_max":832,"o":"m 832 379 q 742 298 788 338 q 651 218 697 258 q 603 205 628 200 q 551 228 579 210 q 521 265 524 244 q 518 306 518 286 q 524 376 519 342 q 531 447 528 411 q 516 508 535 506 q 453 481 497 511 q 283 344 364 415 q 139 185 203 272 q 115 155 124 165 q 95 143 106 144 q 69 149 85 142 q 25 171 53 156 q 5 181 14 176 q -14 192 -4 185 q -47 244 -47 210 q 7 465 -37 360 q 142 644 51 569 q 183 662 161 663 q 225 651 204 661 q 265 628 246 642 q 300 604 285 614 q 237 535 268 576 q 178 451 206 494 q 130 365 151 407 q 96 293 108 322 q 182 368 135 328 q 278 445 229 408 q 372 513 326 482 q 454 563 418 544 q 501 569 478 574 q 551 549 525 564 q 613 456 611 511 q 606 365 611 408 q 613 281 600 321 q 706 354 661 317 q 794 432 750 392 l 832 379 z "},"m":{"ha":1004,"x_min":-101,"x_max":1060,"o":"m 1060 397 q 985 307 1018 346 q 926 237 953 268 q 874 178 899 206 q 825 122 850 151 q 776 106 800 99 q 729 128 753 113 q 692 169 703 146 q 690 224 681 192 q 710 293 700 258 q 733 361 721 328 q 765 438 747 400 q 803 521 783 476 q 724 456 760 490 q 655 385 688 421 q 590 315 622 350 q 524 249 558 279 q 485 228 504 233 q 444 239 467 222 q 409 276 418 258 q 407 328 400 294 q 419 381 411 354 q 435 432 428 407 q 447 482 443 457 q 450 532 451 507 q 260 319 349 429 q 72 107 171 210 q 48 86 58 93 q 27 79 38 79 q 5 85 17 79 q -24 101 -7 90 q -72 138 -54 121 q -95 174 -89 154 q -97 217 -101 193 q -81 276 -93 242 q 8 460 -40 374 q 122 611 57 546 q 172 642 146 633 q 224 649 199 651 q 269 635 249 647 q 301 606 289 624 q 235 531 269 578 q 169 430 201 483 q 108 324 136 376 q 61 233 79 271 q 152 323 104 271 q 249 428 200 375 q 347 532 299 482 q 439 618 394 582 q 476 634 458 633 q 515 618 494 635 q 544 581 538 597 q 540 531 550 565 q 508 412 525 472 q 478 296 492 351 q 560 371 519 331 q 640 453 600 411 q 719 535 679 494 q 801 613 760 576 q 833 631 817 625 q 869 621 850 636 q 905 585 889 604 q 914 535 921 567 q 891 458 903 494 q 868 385 879 421 q 855 345 863 368 q 840 298 847 322 q 824 251 832 274 q 811 213 817 229 q 865 263 838 233 q 917 324 892 293 q 966 387 942 356 q 1014 443 990 418 l 1060 397 z "},"l":{"ha":408,"x_min":-56,"x_max":607,"o":"m 79 89 q 180 165 135 122 q 265 253 225 207 q 342 347 304 299 q 418 443 379 396 q 439 426 429 433 q 460 413 449 419 q 388 311 422 361 q 318 213 354 261 q 242 119 282 165 q 157 32 203 74 q 107 13 133 13 q 49 31 81 14 q -19 91 3 56 q -43 175 -40 126 q -12 424 -56 301 q 108 705 38 571 q 275 963 179 839 q 375 1085 324 1026 q 493 1183 426 1143 q 531 1194 517 1199 q 574 1168 546 1190 q 601 1138 596 1150 q 597 1099 607 1125 q 419 757 528 917 q 183 454 311 597 q 133 372 156 418 q 98 278 111 326 q 79 180 85 229 q 79 89 74 131 m 504 1039 q 373 848 433 946 q 264 646 313 750 q 398 833 333 738 q 504 1039 463 928 z "},"k":{"ha":510,"x_min":-81,"x_max":553,"o":"m 33 35 q -19 40 6 29 q -68 67 -44 51 q -78 85 -75 71 q -81 114 -81 99 q -79 144 -81 129 q -76 164 -78 158 q -3 430 -49 292 q 104 699 43 568 q 240 945 165 831 q 403 1139 315 1060 q 437 1158 421 1156 q 468 1156 453 1161 q 499 1140 483 1150 q 533 1119 515 1129 q 426 952 479 1036 q 326 782 374 868 q 236 606 278 696 q 161 419 194 517 q 242 460 204 435 q 313 517 281 486 q 372 579 344 547 q 419 639 399 611 q 448 624 435 632 q 481 606 461 617 q 333 445 408 518 q 161 315 257 372 q 185 263 172 290 q 215 218 199 236 q 250 196 231 200 q 293 214 269 192 q 343 263 313 232 q 406 329 374 294 q 467 396 438 364 q 517 446 497 428 l 553 406 q 505 355 535 388 q 442 287 475 322 q 380 219 410 251 q 332 168 350 186 q 302 141 317 153 q 275 119 288 129 q 250 108 265 113 q 217 107 235 104 q 181 122 199 110 q 149 157 163 133 q 122 206 133 181 q 97 254 111 231 q 58 145 78 197 q 33 35 39 93 z "},"j":{"ha":707,"x_min":-312,"x_max":647,"o":"m 493 522 q 388 507 436 517 q 298 481 340 497 q 214 441 256 465 q 128 382 172 417 q 102 364 117 372 q 78 358 88 356 q 38 378 57 365 q 4 407 19 392 q 1 442 -8 419 q 26 488 10 464 q 62 531 43 511 q 89 557 81 550 q 165 607 124 585 q 251 642 207 629 q 340 657 296 656 q 426 646 385 658 q 520 594 486 626 q 589 508 554 561 q 618 410 614 468 q 613 293 622 353 q 587 178 604 233 q 551 88 569 124 q 449 -112 506 -10 q 326 -308 392 -214 q 186 -481 261 -401 q 29 -614 111 -560 q -75 -647 -21 -644 q -176 -627 -129 -649 q -258 -564 -224 -606 q -301 -464 -292 -522 q -292 -348 -312 -406 q -234 -238 -271 -290 q -151 -142 -197 -186 q -67 -67 -106 -97 q 115 60 17 0 q 322 175 213 121 q 340 162 331 168 q 364 144 350 156 q 150 4 256 76 q -51 -153 44 -68 q -120 -219 -86 -183 q -181 -297 -154 -256 q -224 -381 -208 -337 q -239 -468 -240 -424 q -222 -536 -235 -506 q -187 -584 -208 -567 q -135 -601 -165 -601 q -65 -578 -104 -601 q 1 -530 -31 -556 q 61 -472 33 -504 q 233 -256 149 -372 q 379 -11 317 -139 q 474 251 442 117 q 493 522 507 386 m 576 646 q 492 782 454 668 q 493 788 493 785 q 513 824 497 810 q 549 844 529 839 q 589 844 568 850 q 625 822 610 839 q 644 792 640 803 q 635 760 647 782 q 606 703 621 731 q 576 646 592 675 z "},"i":{"ha":317,"x_min":-67,"x_max":361,"o":"m 361 392 q 294 310 329 351 q 227 234 260 269 q 167 172 194 199 q 125 131 140 144 q 87 110 108 115 q 44 108 65 104 q 1 122 22 111 q -37 153 -21 133 q -53 180 -47 164 q -61 213 -58 196 q -54 295 -67 249 q -20 388 -42 342 q 26 475 1 433 q 72 542 51 517 q 135 567 97 569 q 197 532 172 564 q 201 499 207 515 q 169 421 189 460 q 129 343 150 382 q 90 265 108 304 q 64 188 72 226 q 134 229 100 203 q 200 289 168 256 q 263 359 232 322 q 322 431 293 396 l 361 392 m 149 663 q 153 711 149 683 q 167 762 157 739 q 196 797 178 785 q 242 799 214 810 q 283 777 268 788 q 303 755 299 767 q 303 727 308 743 q 286 689 299 711 q 276 672 279 678 q 269 659 272 665 q 263 646 267 653 q 253 628 258 639 q 233 603 242 606 q 199 613 225 600 q 165 628 181 619 q 149 663 149 636 z "},"h":{"ha":790,"x_min":-135,"x_max":838,"o":"m 838 383 q 790 339 818 367 q 731 282 761 311 q 670 227 700 253 q 617 189 640 201 q 514 192 565 163 q 475 265 467 217 q 492 356 482 313 q 514 442 503 400 q 376 358 440 404 q 254 260 313 311 q 140 153 196 208 q 29 46 85 99 q 1 19 17 33 q -33 11 -14 4 q -81 33 -57 19 q -125 61 -104 46 q -135 87 -135 67 q -131 130 -135 107 q -119 173 -126 153 q -110 200 -112 193 q -45 349 -78 275 q 28 496 -12 424 q 154 710 88 606 q 294 912 221 815 q 450 1096 368 1008 q 625 1258 532 1183 q 715 1281 679 1290 q 793 1222 750 1272 q 783 1198 800 1207 q 757 1183 767 1189 q 551 1009 649 1115 q 367 780 453 903 q 210 528 282 657 q 82 286 138 399 q 69 242 64 250 q 108 264 75 233 q 190 331 147 297 q 278 397 233 365 q 369 456 324 429 q 457 500 415 483 q 493 508 475 507 q 531 500 511 510 q 585 455 569 478 q 600 406 600 432 q 590 352 600 381 q 568 290 579 324 q 563 265 565 278 q 556 233 560 253 q 615 270 582 244 q 681 326 647 296 q 744 383 714 356 q 797 426 774 411 l 838 383 z "},"p":{"ha":703,"x_min":-203,"x_max":739,"o":"m -74 -232 q -78 -251 -72 -244 q -97 -254 -85 -257 q -163 -218 -140 -242 q -194 -161 -186 -194 q -198 -86 -203 -128 q -181 3 -193 -44 q -112 210 -156 104 q -16 413 -69 315 q 99 596 38 511 q 221 740 160 681 q 374 700 301 821 q 334 673 357 696 q 288 622 311 650 q 243 567 264 594 q 210 526 222 540 q 289 565 250 546 q 365 598 328 585 q 433 617 401 611 q 492 614 465 622 q 533 590 514 607 q 572 551 553 572 q 597 501 594 528 q 589 447 600 474 q 547 374 572 408 q 494 311 522 340 q 556 333 528 321 q 608 358 583 344 q 656 390 632 372 q 708 428 681 407 l 739 382 q 590 282 671 322 q 419 217 508 242 q 238 178 331 192 q 54 161 146 165 q 10 68 35 121 q -35 -40 -14 15 q -67 -145 -56 -94 q -74 -232 -79 -196 m 494 569 q 378 550 438 575 q 264 478 318 525 q 165 367 210 431 q 93 236 119 304 q 197 271 147 250 q 296 319 247 292 q 358 365 322 336 q 426 427 394 393 q 478 499 457 461 q 494 569 499 536 z "},"q":{"ha":825,"x_min":-100,"x_max":868,"o":"m 528 533 q 576 531 557 543 q 618 500 594 519 q 646 401 665 458 q 596 294 625 344 q 534 195 567 243 q 469 99 501 147 q 410 1 436 51 q 526 113 469 54 q 634 229 582 171 q 735 342 686 288 q 831 440 785 396 q 863 419 858 426 q 851 393 868 413 q 752 281 804 340 q 646 162 700 221 q 536 47 592 103 q 425 -54 481 -8 q 420 -217 429 -135 q 390 -376 411 -299 q 333 -520 368 -453 q 251 -639 299 -587 q 216 -656 232 -656 q 176 -646 200 -657 q 121 -608 144 -628 q 88 -551 97 -587 q 85 -437 74 -500 q 122 -310 97 -375 q 181 -185 147 -246 q 243 -76 214 -125 q 410 180 332 63 q 563 414 488 297 q 581 456 581 443 q 569 467 582 468 q 531 451 557 465 q 472 415 506 438 q 270 263 365 342 q 72 121 175 185 q 16 113 47 106 q -42 140 -15 119 q -84 187 -68 160 q -94 242 -100 214 q -67 326 -87 283 q -15 410 -46 368 q 52 490 15 451 q 129 561 89 528 q 209 627 167 592 q 295 681 251 663 q 381 690 339 699 q 458 626 424 682 q 399 602 438 626 q 315 538 361 578 q 221 451 269 499 q 130 357 172 403 q 58 273 88 311 q 18 215 28 235 q 26 199 8 194 q 96 242 43 203 q 206 327 150 282 q 315 413 261 372 q 423 486 369 454 q 528 533 476 518 m 372 -46 q 296 -185 332 -107 q 234 -340 260 -262 q 197 -487 208 -418 q 193 -597 185 -556 q 265 -487 229 -546 q 326 -361 300 -429 q 367 -215 353 -293 q 372 -46 381 -136 z "},"r":{"ha":650,"x_min":-86,"x_max":694,"o":"m 694 386 q 630 331 663 360 q 565 279 597 303 q 503 239 532 256 q 450 218 474 222 q 403 221 425 214 q 369 242 382 228 q 353 278 357 257 q 361 324 350 300 q 396 395 376 361 q 435 463 415 429 q 471 529 454 496 q 499 599 488 563 q 344 509 417 565 q 209 383 271 453 q 99 233 147 313 q 18 76 50 154 q -22 88 -1 78 q -57 115 -42 99 q -79 154 -72 132 q -79 204 -86 176 q -46 326 -65 265 q -1 446 -26 388 q 58 556 25 504 q 136 650 92 608 q 170 672 154 668 q 202 669 186 675 q 233 651 218 663 q 263 625 247 639 l 186 496 q 309 589 249 542 q 444 667 369 636 q 517 675 485 683 q 578 639 550 667 q 597 610 592 625 q 594 575 603 594 q 510 419 560 490 q 415 275 460 349 q 433 268 411 258 q 490 303 454 278 q 572 363 526 328 q 658 431 617 397 l 694 386 z "},"s":{"ha":336,"x_min":-306,"x_max":367,"o":"m 367 396 q 265 318 318 351 q 158 244 211 285 q 179 150 171 192 q 185 70 188 108 q 168 -6 183 32 q 118 -92 153 -44 q -106 -239 32 -199 q -204 -238 -160 -254 q -287 -185 -249 -222 q -303 -151 -300 -169 q -302 -111 -306 -132 q -290 -69 -299 -90 q -269 -28 -282 -49 q -214 44 -246 13 q -142 106 -182 76 q -56 165 -103 135 q 47 233 -8 196 q 19 313 31 281 q -1 367 7 344 q -13 403 -8 389 q -21 432 -18 418 q -24 522 -32 478 q 9 604 -15 567 q 70 669 33 642 q 153 706 107 696 q 198 706 175 710 q 241 690 221 701 q 278 663 261 679 q 306 625 294 646 q 296 622 301 622 q 286 622 290 622 q 184 594 224 619 q 126 524 144 568 q 111 419 108 479 q 136 286 114 358 l 343 431 l 367 396 m -236 -153 q -129 -115 -182 -147 q -35 -36 -76 -83 q 28 67 6 11 q 46 174 51 122 q -53 108 -3 142 q -145 35 -104 74 q -212 -50 -186 -4 q -236 -153 -239 -96 z "},"t":{"ha":469,"x_min":-82,"x_max":1279,"o":"m 504 406 q 311 190 403 288 q 122 4 219 92 q 74 -25 96 -15 q 24 -17 53 -35 q 8 -9 17 -12 q -8 0 0 -6 q -60 42 -44 15 q -78 104 -76 68 q -72 204 -81 156 q -47 300 -62 253 q 49 536 -10 424 q 174 758 107 649 q 189 781 182 769 q 207 810 196 793 q 133 809 169 810 q 61 813 96 808 q -6 828 26 817 q -65 868 -37 840 q -81 896 -81 882 q -76 921 -82 910 q -58 939 -69 932 q -33 946 -46 946 q 10 922 -22 931 q 84 910 42 914 q 173 905 126 906 q 261 904 219 904 q 336 996 300 950 q 409 1085 372 1042 q 483 1169 446 1129 q 560 1244 519 1210 q 585 1261 572 1254 q 613 1258 597 1268 q 641 1233 628 1247 q 665 1203 654 1218 q 661 1184 667 1201 q 648 1145 656 1167 q 633 1103 640 1124 q 625 1076 626 1083 q 606 1087 614 1082 q 589 1099 597 1092 l 464 928 q 677 947 568 940 q 883 953 786 954 q 1059 944 981 953 q 1183 919 1138 936 q 1231 897 1210 910 q 1269 864 1251 883 q 1278 843 1279 851 q 1260 839 1278 835 q 1138 868 1206 860 q 997 877 1071 876 q 844 872 922 878 q 692 858 767 865 q 550 842 618 850 q 428 829 482 833 q 399 822 411 826 q 378 804 388 818 q 269 624 322 715 q 173 437 217 532 q 98 242 129 342 q 53 40 67 143 q 167 128 113 78 q 272 233 221 178 q 374 343 324 288 q 476 447 424 399 l 504 406 z "},"u":{"ha":722,"x_min":-51,"x_max":767,"o":"m 61 163 q 174 221 115 179 q 286 313 232 263 q 386 415 340 364 q 461 503 432 467 q 493 490 476 496 q 522 474 510 483 q 538 452 533 465 q 533 418 542 439 q 488 306 510 360 q 463 188 465 253 q 547 237 506 206 q 623 303 589 268 q 683 370 657 338 q 725 426 710 403 q 745 410 733 419 q 767 393 757 400 q 727 331 751 365 q 675 265 703 297 q 617 203 647 232 q 563 156 588 174 q 516 131 539 139 q 465 139 493 124 q 417 170 433 156 q 393 203 400 185 q 389 250 386 222 q 400 322 392 278 q 340 264 372 294 q 274 204 308 233 q 203 149 239 175 q 132 107 167 124 q 21 118 74 82 q 2 130 13 125 q -15 143 -8 135 q -46 211 -40 171 q -43 298 -51 251 q -15 394 -35 344 q 28 488 4 443 q 79 569 53 532 q 128 629 106 607 q 197 653 160 658 q 256 611 233 647 q 258 587 263 597 q 246 565 253 576 q 185 476 217 526 q 128 372 154 426 q 83 264 101 318 q 61 163 65 210 z "},"v":{"ha":603,"x_min":-60,"x_max":668,"o":"m 604 349 q 516 344 563 340 q 428 365 469 349 q 372 298 403 333 q 306 226 340 263 q 235 153 272 189 q 164 89 199 118 q 107 66 136 65 q 47 86 78 67 q -9 125 14 111 q -44 156 -32 139 q -58 199 -57 174 q -49 274 -60 225 q 13 458 -26 369 q 110 629 53 546 q 142 669 128 656 q 172 683 157 682 q 206 670 188 683 q 247 632 224 657 q 211 551 232 597 q 169 454 190 504 q 128 354 147 404 q 95 263 108 304 q 78 192 82 221 q 82 153 74 163 q 117 160 94 147 q 165 194 139 172 q 219 246 192 217 q 272 306 247 275 q 317 363 297 336 q 347 407 338 389 q 350 417 350 410 q 349 432 350 424 q 347 448 349 440 q 343 460 344 456 q 338 579 328 519 q 376 693 349 639 q 442 794 403 747 q 525 875 482 842 q 593 899 567 906 q 657 858 619 893 q 666 841 664 853 q 665 821 668 829 q 624 714 649 769 q 571 605 600 658 q 511 502 542 551 q 453 413 481 453 q 535 399 485 397 q 621 419 585 400 l 604 349 m 406 486 q 456 551 431 511 q 504 635 482 592 q 542 717 526 678 q 563 779 558 756 q 511 722 538 760 q 463 642 485 685 q 425 556 440 599 q 406 486 410 514 z "},"w":{"ha":893,"x_min":-72,"x_max":928,"o":"m 894 397 q 828 384 861 393 q 763 364 794 375 q 742 351 751 360 q 726 331 733 342 q 633 204 681 260 q 532 104 586 149 q 456 57 493 72 q 375 63 419 42 q 320 94 342 78 q 287 132 299 111 q 272 178 275 153 q 274 240 269 204 q 274 256 274 247 q 276 278 275 264 q 260 266 267 271 q 249 256 254 261 q 187 198 217 228 q 122 140 157 168 q 76 117 101 124 q 26 115 51 111 q -21 131 1 118 q -57 167 -43 144 q -69 198 -67 179 q -71 233 -72 217 q -55 315 -68 265 q -20 417 -42 364 q 30 519 1 471 q 92 599 58 568 q 162 633 125 629 q 238 600 199 636 q 163 503 200 565 q 95 377 125 442 q 48 258 65 313 q 33 182 31 203 q 81 207 51 182 q 146 269 111 232 q 218 350 181 307 q 289 428 256 393 q 350 483 322 463 q 393 496 378 503 q 419 484 411 489 q 442 467 428 479 q 443 449 446 461 q 438 429 440 438 q 397 277 414 349 q 376 131 381 206 q 435 158 403 136 q 503 213 468 181 q 569 287 538 246 q 625 371 601 328 q 607 382 615 376 q 590 394 599 388 q 517 535 513 444 q 566 747 519 646 q 678 932 613 849 l 714 967 q 775 999 749 997 q 840 978 801 1001 l 879 953 q 924 864 928 919 q 903 752 919 811 q 864 635 886 693 q 817 521 842 576 q 775 418 793 465 q 845 442 810 431 q 911 454 881 454 l 894 397 m 813 876 q 803 869 807 872 q 796 864 799 867 q 728 763 760 817 q 674 650 696 708 q 644 533 653 592 q 647 417 636 474 q 684 472 664 436 q 724 552 704 508 q 760 644 743 596 q 790 736 778 692 q 809 817 803 781 q 813 876 815 854 z "},"x":{"ha":676,"x_min":-44,"x_max":717,"o":"m 717 388 q 615 263 658 317 q 533 166 572 208 q 454 88 494 124 q 361 15 414 51 q 307 0 333 -4 q 251 17 281 4 q 191 50 214 33 q 159 89 168 67 q 152 142 150 111 q 167 218 154 172 q 98 151 135 189 q 36 89 61 114 q 1 74 17 69 q -44 100 -14 78 q 6 149 -28 118 q 76 212 39 179 q 144 276 113 244 q 190 329 176 308 q 233 434 211 379 q 276 543 254 489 q 316 648 297 597 q 350 740 335 699 q 245 672 293 718 q 160 574 197 626 q 99 471 124 521 q 68 392 75 421 q 53 380 65 379 q 33 385 42 381 q -8 427 4 400 q -15 487 -19 454 q 8 554 -11 519 q 56 618 26 589 q 174 723 114 676 q 313 796 235 769 q 358 801 336 803 q 401 785 381 800 q 422 770 411 776 q 443 757 432 764 q 473 731 461 743 q 490 706 485 719 q 493 676 494 693 q 485 636 492 660 q 461 564 474 600 q 433 485 449 528 q 469 509 446 490 q 518 549 493 528 q 565 588 543 569 q 597 610 588 606 q 610 615 606 614 q 621 615 615 617 q 634 609 626 614 q 656 596 642 604 q 608 562 639 586 q 540 504 578 538 q 460 432 503 471 q 378 353 418 393 q 328 217 349 286 q 297 78 308 149 q 340 89 313 72 q 402 135 368 106 q 474 203 436 164 q 550 283 513 242 q 622 364 588 325 q 683 432 657 403 l 717 388 z "},"y":{"ha":997,"x_min":-194,"x_max":1042,"o":"m 1042 379 q 996 322 1028 353 q 926 263 964 292 q 853 210 889 235 q 796 174 818 186 q 768 133 774 160 q 675 -162 740 -12 q 514 -446 610 -312 q 295 -685 418 -579 q 29 -849 172 -792 q -49 -858 -10 -864 q -126 -826 -87 -851 q -180 -757 -165 -799 q -192 -667 -194 -715 q -175 -568 -190 -619 q -138 -469 -160 -517 q -92 -383 -117 -422 q -49 -318 -68 -343 q 103 -157 21 -228 q 274 -28 185 -86 q 456 78 363 29 q 646 175 550 126 q 670 196 661 183 q 682 228 679 208 q 688 277 683 244 q 696 347 693 310 q 699 422 699 385 q 690 487 699 460 q 663 526 681 514 q 611 524 644 538 q 485 453 544 492 q 371 373 426 415 q 263 286 315 331 q 158 199 211 242 q 64 197 115 164 q 37 215 50 207 q 10 231 24 222 q -31 289 -26 256 q -29 358 -35 322 q -7 434 -22 390 q 29 520 8 478 q 74 597 50 563 q 125 647 99 632 q 165 649 144 658 q 214 610 185 640 q 177 535 197 575 q 138 452 157 494 q 103 368 119 410 q 79 288 88 326 q 178 366 118 317 q 302 465 238 415 q 429 556 367 515 q 536 610 492 597 q 591 618 563 619 q 647 606 619 617 q 697 575 674 594 q 738 531 721 556 q 767 466 757 503 q 782 389 778 429 q 785 308 786 349 q 783 235 785 268 q 833 265 801 242 q 899 316 865 288 q 963 374 933 344 q 1006 422 992 403 l 1042 379 m 656 106 q 291 -108 457 17 q 7 -404 125 -232 q -69 -529 -35 -465 q -114 -669 -103 -593 q -117 -754 -125 -725 q -90 -794 -110 -783 q -42 -799 -71 -804 q 19 -779 -12 -793 q 83 -745 51 -765 q 140 -707 114 -725 q 319 -545 239 -635 q 464 -352 400 -456 q 576 -133 528 -249 q 656 106 624 -18 z "},"z":{"ha":733,"x_min":-514,"x_max":774,"o":"m 774 371 q 675 247 729 304 q 558 138 621 190 q 599 22 600 83 q 575 -101 599 -40 q 513 -219 551 -162 q 438 -319 474 -275 q 240 -524 346 -432 q 10 -687 135 -617 q -125 -751 -57 -725 q -268 -789 -193 -778 q -382 -776 -331 -796 q -478 -714 -433 -757 q -512 -647 -510 -685 q -501 -569 -514 -608 q -465 -495 -487 -531 q -422 -436 -442 -460 q -242 -267 -343 -340 q -30 -130 -140 -193 q 192 -10 81 -67 q 406 107 304 46 q 431 125 418 115 q 463 149 443 135 q 399 185 432 169 q 334 214 367 200 q 269 242 301 228 q 208 274 238 256 q 172 333 169 297 q 199 408 175 368 q 268 510 229 465 q 338 604 307 556 q 266 573 308 599 q 182 513 224 547 q 106 442 140 479 q 54 378 71 406 q -3 400 13 381 q -15 445 -18 419 q 3 499 -12 471 q 36 547 18 526 q 106 610 65 579 q 188 665 146 642 q 272 699 231 688 q 342 704 313 710 q 380 690 358 700 q 422 667 401 681 q 458 635 443 653 q 478 601 474 618 q 477 565 482 583 q 463 531 472 547 q 443 499 454 514 q 424 472 432 485 q 360 387 392 428 q 306 300 329 346 q 408 244 358 272 q 514 189 458 217 q 740 426 642 289 l 774 371 m 474 74 q 399 28 433 50 q 332 -15 365 6 q 117 -137 224 -78 q -96 -260 10 -196 q -260 -373 -183 -312 q -389 -512 -336 -433 q -428 -579 -411 -544 q -447 -642 -444 -614 q -433 -690 -449 -671 q -375 -712 -418 -710 q -287 -700 -329 -712 q -203 -668 -244 -687 q 115 -462 -29 -586 q 365 -190 260 -337 q 442 -60 411 -126 q 474 74 474 7 z "},"D":{"ha":1157,"x_min":-6,"x_max":1260,"o":"m 125 190 q 139 170 132 179 q 153 151 146 161 q 126 131 140 139 q 99 114 113 122 q 74 94 86 106 q 57 65 63 83 q 197 86 132 65 q 333 133 263 107 q 299 251 301 190 q 313 374 296 311 q 363 499 331 436 q 435 622 396 561 q 515 738 474 682 q 590 846 556 794 q 602 864 596 854 q 617 882 608 874 q 467 830 547 871 q 313 733 386 789 q 181 615 239 678 q 103 496 124 551 q 59 533 69 511 q 53 580 49 556 q 72 629 57 604 q 103 676 86 654 q 223 800 153 743 q 375 902 293 857 q 547 981 457 947 q 728 1033 638 1014 q 906 1056 818 1051 q 1069 1050 993 1061 q 1158 1006 1117 1043 q 1226 919 1200 969 q 1256 809 1251 868 q 1232 700 1260 750 q 1052 456 1158 565 q 817 262 946 347 q 539 113 688 176 q 233 3 390 49 q 176 -6 206 -4 q 115 -10 146 -8 q 76 -4 93 -11 q 45 14 58 3 q 22 40 32 25 q 3 69 11 54 q 6 114 -6 94 q 39 149 18 133 q 84 174 60 164 q 125 190 108 185 m 382 160 q 531 228 453 189 q 686 317 608 268 q 838 423 764 367 q 976 542 913 479 q 1090 671 1040 604 q 1169 807 1140 738 q 1183 848 1178 828 q 1185 886 1188 868 q 1172 919 1183 904 q 1139 942 1161 933 q 978 967 1058 971 q 814 943 897 963 q 824 913 829 925 q 808 886 819 900 q 717 771 763 828 q 631 653 671 714 q 556 539 594 600 q 482 413 517 478 q 420 283 447 347 q 382 160 393 218 z "},"$":{"ha":833,"x_min":-8,"x_max":871,"o":"m 474 500 q 535 489 496 499 q 608 461 574 479 q 661 417 642 443 q 664 360 681 392 q 576 262 628 306 q 465 187 525 218 q 339 138 404 156 q 211 117 274 119 q 184 28 196 72 q 157 -60 172 -15 q 122 -49 126 -54 q 122 -24 117 -43 l 157 121 q 93 151 126 135 q 35 190 60 168 q 1 241 10 213 q 8 307 -8 269 q 47 292 39 300 q 58 261 56 285 q 69 215 58 232 q 96 188 79 197 q 134 178 113 179 q 178 179 156 176 q 219 299 194 226 q 279 444 244 371 q 190 453 228 446 q 114 485 151 461 q 91 515 93 497 q 97 550 89 532 q 119 585 106 568 q 143 613 132 601 q 222 687 176 651 q 318 753 268 722 q 419 811 368 785 q 514 861 469 838 q 537 877 526 868 q 556 897 547 886 q 586 948 569 922 q 621 1000 603 974 l 660 981 q 647 949 653 964 q 632 917 640 933 l 689 933 q 750 940 721 943 q 806 918 779 938 q 831 901 817 910 q 854 881 844 892 q 867 858 864 871 q 863 829 871 846 q 833 781 853 808 q 790 731 814 753 q 738 700 765 708 q 683 710 710 692 q 723 778 703 744 q 767 853 743 813 q 656 812 708 840 q 554 758 604 783 q 540 748 547 754 q 529 736 533 742 q 465 623 497 679 q 399 504 432 567 l 474 500 m 249 199 q 332 230 286 208 q 423 278 378 251 q 506 335 468 306 q 567 389 544 364 q 575 415 582 407 q 544 428 568 424 q 447 438 496 435 q 353 439 397 442 q 326 381 340 413 q 297 317 311 350 q 269 254 282 285 q 249 199 257 224 m 301 500 q 328 545 313 521 q 358 595 343 569 q 389 645 374 621 q 415 689 404 669 q 347 648 389 676 q 271 588 306 619 q 217 531 236 557 q 218 501 199 506 q 242 501 232 501 q 260 501 251 501 q 277 500 268 500 q 301 500 286 500 z "},"%":{"ha":881,"x_min":-11,"x_max":828,"o":"m 268 19 q 193 21 219 10 q 157 55 167 32 q 151 109 147 78 q 167 174 154 140 q 373 550 247 375 q 681 867 499 725 q 524 869 601 876 q 367 851 447 863 q 377 833 374 840 q 385 818 381 825 q 382 663 429 742 q 316 582 354 618 q 228 519 278 546 q 164 499 196 503 q 97 513 132 496 q 85 517 90 515 q 72 522 79 519 q 3 568 18 544 q 4 643 -11 592 q 164 911 44 790 q 176 922 169 917 q 189 932 183 926 q 271 970 236 968 q 354 938 306 972 q 440 924 396 926 q 528 924 483 922 q 618 928 574 926 q 706 929 663 931 q 756 920 733 929 q 803 897 779 911 q 826 874 824 885 q 813 843 828 863 q 768 799 793 818 q 603 623 686 714 q 451 435 521 532 q 331 234 381 338 q 268 19 282 131 m 131 590 q 213 635 174 608 q 276 695 253 661 q 301 769 300 729 q 268 854 301 810 q 183 729 215 793 q 131 590 151 665 m 594 308 q 584 331 590 319 q 571 360 578 343 q 631 351 606 358 q 674 325 657 343 q 732 265 704 296 q 785 203 760 235 q 806 140 811 167 q 768 83 801 113 q 726 51 749 65 q 679 22 703 38 q 565 -7 621 -10 q 451 19 510 -4 q 407 76 410 35 q 529 294 406 210 q 558 303 540 301 q 594 308 576 304 m 642 250 q 600 221 621 243 q 565 171 579 199 q 542 113 550 143 q 539 60 535 83 q 558 61 553 60 q 584 71 571 65 q 610 82 597 76 q 690 154 683 118 q 642 250 697 190 z "},"&":{"ha":1129,"x_min":-15,"x_max":1096,"o":"m 374 678 q 451 676 415 674 q 526 685 488 678 q 606 706 565 697 q 660 685 642 715 q 673 663 667 674 q 686 640 679 651 q 692 604 699 615 q 654 586 686 593 q 438 513 535 554 q 250 404 340 471 q 163 327 201 369 q 104 231 125 285 q 91 145 81 178 q 144 90 101 113 q 317 53 228 56 q 494 70 407 50 q 663 129 582 90 q 811 218 744 168 q 842 245 822 226 q 882 288 861 264 q 919 337 903 311 q 942 384 936 363 q 937 421 947 406 q 892 440 926 436 q 756 433 829 447 q 617 385 683 419 q 500 295 551 350 q 431 167 449 240 q 383 217 393 189 q 381 275 372 244 q 411 336 389 306 q 462 394 433 367 q 519 443 490 421 q 571 478 549 465 q 737 538 656 526 q 899 529 818 549 q 979 479 950 515 q 1024 394 1008 443 q 1026 324 1036 358 q 994 258 1015 289 q 946 199 974 226 q 894 153 918 172 q 685 25 794 71 q 458 -39 576 -21 q 329 -44 393 -47 q 208 -22 265 -40 q 103 34 151 -3 q 19 129 54 71 q -7 249 -15 188 q 44 376 1 311 q 127 470 81 429 q 226 547 174 511 q 274 576 250 561 q 324 606 297 590 q 303 632 313 619 q 286 657 294 644 q 296 760 253 706 q 545 965 400 886 q 847 1065 690 1043 q 992 1055 931 1076 q 1086 963 1054 1033 q 1094 930 1093 947 q 1078 886 1096 913 q 1055 913 1063 899 q 1039 940 1047 928 q 1019 960 1031 953 q 985 968 1007 968 q 805 945 890 968 q 642 883 719 922 q 498 790 565 843 q 374 678 431 738 z "},"":{"ha":918,"x_min":3,"x_max":926,"o":"m 135 344 q 154 393 146 371 q 171 439 163 415 q 136 437 153 438 q 104 431 119 436 q 65 431 82 426 q 33 442 49 435 q 17 457 17 449 q 35 469 18 465 q 91 482 63 479 q 146 491 119 485 q 195 510 172 497 q 233 550 218 522 q 324 685 272 618 q 438 808 376 751 q 567 910 499 865 q 704 979 635 954 q 763 990 733 990 q 818 981 792 989 q 866 961 844 974 q 900 936 888 949 q 925 877 926 917 q 910 793 924 838 q 876 708 896 749 q 849 650 857 668 q 800 666 808 657 q 801 703 792 675 q 818 764 810 735 q 831 822 826 793 q 833 878 835 850 q 821 938 832 907 q 679 866 749 910 q 549 767 610 822 q 440 649 489 713 q 358 518 390 586 q 417 524 386 521 q 475 528 447 526 q 517 522 503 529 q 547 494 532 515 q 457 483 501 489 q 367 469 413 476 q 331 460 346 467 q 310 435 317 453 q 300 407 307 421 q 285 375 293 393 q 310 376 300 376 q 328 378 319 376 q 381 385 354 382 q 431 396 407 389 q 474 394 457 401 q 514 372 492 388 q 390 342 451 351 q 267 317 329 332 q 255 272 261 299 q 246 215 249 244 q 245 158 243 186 q 257 110 247 131 q 285 81 267 90 q 336 78 304 71 q 442 121 392 89 q 539 194 493 153 q 626 278 585 235 q 704 358 667 322 q 719 363 711 365 q 735 354 728 361 q 751 340 743 347 q 767 329 760 332 q 733 278 756 310 q 679 210 711 246 q 608 140 647 175 q 526 76 569 104 q 435 30 482 47 q 342 15 389 13 q 233 42 279 19 q 160 101 188 64 q 122 185 132 138 q 122 290 111 233 q 70 300 96 296 q 21 311 44 304 q 10 319 14 314 q 3 329 7 325 q 17 336 10 332 q 32 342 24 340 q 84 343 58 343 q 135 344 110 343 z "},"":{"ha":849,"x_min":-10,"x_max":822,"o":"m 800 639 q 756 651 772 646 q 733 662 740 656 q 726 679 726 668 q 726 710 725 690 q 731 772 731 746 q 729 819 732 797 q 720 863 726 840 q 703 915 714 885 q 634 819 663 872 q 581 708 606 767 q 528 588 556 650 q 465 464 501 526 q 524 464 494 463 q 583 463 554 465 q 638 454 611 461 q 688 431 664 447 q 694 424 692 428 q 700 415 697 421 q 576 397 640 396 q 454 399 511 399 q 432 396 442 399 q 415 382 422 393 q 387 331 403 358 q 354 274 371 303 q 320 216 338 244 q 289 165 303 188 q 426 117 367 142 q 543 89 486 93 q 615 97 579 86 q 685 124 650 107 q 702 117 693 124 q 718 99 711 110 q 727 78 725 89 q 725 60 729 67 q 712 47 722 53 q 693 38 701 40 q 577 31 628 24 q 484 52 526 38 q 404 81 442 67 q 328 97 367 96 q 245 81 289 99 q 147 11 201 63 q 119 -6 132 -4 q 83 0 107 -8 q 53 13 68 6 q 22 25 38 19 q 10 63 -10 39 q 149 231 83 150 q 263 407 215 313 q 218 426 240 418 q 176 446 196 435 q 165 467 157 457 q 192 476 172 478 q 243 472 217 474 q 297 467 269 469 q 362 584 333 524 q 418 704 390 644 q 477 822 446 764 q 550 931 508 879 q 632 990 592 985 q 733 954 672 994 q 769 926 751 943 q 799 890 786 910 q 817 847 811 869 q 818 804 822 825 q 810 723 814 763 q 800 639 806 683 z "},"":{"ha":743,"x_min":3,"x_max":713,"o":"m 156 960 q 122 889 135 935 q 106 791 110 843 q 110 690 103 739 q 135 610 117 640 q 276 666 214 628 q 393 753 339 704 q 496 858 447 803 q 594 965 544 913 q 622 983 611 982 q 657 974 633 985 q 685 958 672 967 q 713 939 697 950 q 568 712 631 828 q 443 476 506 596 q 489 474 467 474 q 531 469 511 475 q 567 458 550 467 q 596 431 585 450 q 581 428 588 429 q 568 426 575 428 q 496 419 532 424 q 424 408 460 415 q 404 394 410 406 q 381 349 392 371 q 358 300 369 326 q 422 303 392 301 q 479 304 451 304 q 524 299 510 307 q 561 267 539 292 q 539 261 550 264 q 517 256 528 258 q 439 244 478 250 q 363 236 400 239 q 313 205 336 233 q 272 138 290 176 q 240 60 254 99 q 217 0 226 21 q 211 -12 214 -6 q 204 -25 208 -18 q 169 -36 194 -43 q 147 -25 158 -31 q 124 -15 135 -19 q 97 22 92 -3 q 126 119 113 74 q 154 208 139 164 q 92 215 121 208 q 40 244 64 222 q 74 263 56 257 q 110 270 92 268 q 147 274 128 272 q 183 282 165 275 q 201 327 192 304 q 221 378 211 350 q 162 369 189 372 q 110 358 135 365 q 53 356 78 347 q 6 382 29 365 q 22 404 8 397 q 50 415 35 411 q 98 424 71 421 q 153 429 125 426 q 206 439 181 432 q 251 460 232 446 q 274 484 263 467 q 294 522 285 501 q 313 561 304 542 q 328 592 321 581 q 246 557 292 567 q 156 553 200 547 q 76 583 113 560 q 24 646 40 606 q 6 704 10 674 q 4 765 3 735 q 44 938 10 854 q 74 981 56 967 q 124 981 93 994 q 156 960 139 974 z "},"(":{"ha":503,"x_min":14,"x_max":824,"o":"m 146 -107 q 63 -38 92 -83 q 24 63 35 7 q 19 183 14 119 q 35 307 24 246 q 63 423 47 368 q 93 517 79 478 q 190 745 131 629 q 324 963 249 861 q 487 1145 399 1065 q 672 1265 575 1225 q 725 1278 697 1275 q 775 1274 753 1281 q 810 1251 797 1268 q 821 1207 824 1235 q 621 1079 713 1160 q 454 899 529 999 q 322 692 379 800 q 222 479 264 583 q 172 323 194 410 q 138 153 150 236 q 127 0 126 69 q 146 -107 128 -69 z "},"[":{"ha":501,"x_min":-69,"x_max":742,"o":"m 378 1200 q 432 1165 407 1168 q 483 1163 457 1161 q 566 1163 524 1165 q 649 1163 608 1161 q 701 1146 679 1164 q 742 1094 722 1128 q 603 1082 674 1083 q 467 1069 533 1081 q 399 811 439 938 q 310 561 358 685 q 210 317 263 438 q 104 78 157 196 q 99 61 101 71 q 89 39 96 51 q 202 36 147 36 q 313 33 257 36 q 376 9 347 31 q 432 -50 406 -12 q 416 -51 422 -51 q 403 -53 410 -51 q 279 -55 340 -54 q 156 -57 218 -56 q 103 -58 129 -58 q 49 -58 76 -58 q -12 -40 15 -58 q -69 15 -40 -21 q -48 24 -58 19 q -31 32 -37 29 q 64 295 14 167 q 164 551 114 424 q 261 803 214 678 q 350 1057 308 929 q 360 1115 357 1085 q 368 1178 364 1146 q 371 1185 368 1181 q 378 1200 374 1189 z "},")":{"ha":553,"x_min":-257,"x_max":554,"o":"m 418 1293 q 500 1258 471 1290 q 542 1176 529 1226 q 553 1065 554 1126 q 542 941 551 1003 q 519 823 533 879 q 492 728 504 767 q 419 551 463 643 q 319 370 375 460 q 200 199 264 281 q 67 53 136 117 q -4 -1 40 28 q -96 -47 -49 -31 q -187 -61 -143 -64 q -257 -21 -231 -58 q -57 107 -149 26 q 110 287 35 188 q 242 494 185 386 q 342 707 300 603 q 392 863 369 776 q 426 1033 414 950 q 437 1186 438 1117 q 418 1293 436 1256 z "},"]":{"ha":482,"x_min":-171,"x_max":640,"o":"m 193 -58 q 139 -23 164 -26 q 88 -21 114 -19 q 5 -22 47 -24 q -78 -21 -37 -19 q -130 -4 -108 -22 q -171 47 -151 14 q -33 60 -103 58 q 104 72 38 61 q 172 330 132 203 q 260 581 213 457 q 361 825 308 704 q 467 1064 414 946 q 472 1081 469 1071 q 482 1103 475 1090 q 369 1106 424 1106 q 258 1108 314 1106 q 194 1133 224 1111 q 139 1192 165 1154 q 155 1193 149 1193 q 168 1194 161 1193 q 292 1197 231 1196 q 415 1199 353 1197 q 468 1200 442 1200 q 522 1200 494 1200 q 583 1181 556 1200 q 640 1126 611 1163 q 619 1117 629 1122 q 601 1110 608 1113 q 507 847 557 975 q 407 591 457 718 q 310 338 357 464 q 221 85 263 213 q 210 26 214 57 q 203 -36 207 -4 q 200 -43 203 -39 q 193 -58 197 -47 z "},"{":{"ha":493,"x_min":15,"x_max":653,"o":"m 649 1047 q 626 1056 633 1053 q 613 1065 618 1060 q 602 1077 607 1069 q 589 1099 597 1085 q 547 1091 569 1107 q 499 1044 524 1075 q 451 969 475 1013 q 406 878 426 925 q 370 784 386 831 q 346 701 354 738 q 290 567 329 624 q 181 471 251 511 q 211 439 196 454 q 237 408 226 424 q 251 374 247 392 q 249 333 256 356 q 222 269 240 307 q 184 188 203 231 q 151 104 165 146 q 137 31 136 63 q 158 -21 138 -1 q 231 -37 179 -40 q 286 -35 267 -31 q 324 -64 306 -40 q 238 -95 286 -92 q 150 -85 190 -99 q 57 -29 85 -65 q 26 52 29 7 q 38 149 22 97 q 76 251 54 200 q 119 348 97 301 q 149 431 140 394 q 108 441 128 438 q 71 453 88 444 q 24 490 33 474 q 24 521 15 507 q 53 547 32 535 q 97 569 74 558 q 199 651 161 603 q 247 768 238 699 q 285 893 261 831 q 338 1009 308 956 q 403 1103 368 1063 q 479 1160 439 1143 q 526 1169 500 1169 q 577 1160 553 1168 q 621 1136 601 1151 q 649 1100 640 1121 q 651 1075 653 1089 q 649 1047 649 1061 z "},"<":{"ha":594,"x_min":19,"x_max":560,"o":"m 356 90 q 206 169 278 126 q 61 256 133 213 q 22 294 25 275 q 53 343 19 313 q 148 428 103 389 q 238 502 193 467 q 329 573 282 538 q 432 647 376 608 q 502 672 476 679 q 560 617 528 665 q 458 526 506 568 q 363 443 410 485 q 266 358 315 401 q 160 265 217 315 q 284 185 229 219 q 383 113 339 150 q 399 95 397 101 q 393 87 400 89 q 375 86 386 85 q 356 90 364 88 z "},"}":{"ha":518,"x_min":-147,"x_max":490,"o":"m -143 35 q -121 26 -129 29 q -107 17 -112 22 q -97 5 -101 13 q -83 -17 -92 -3 q -41 -9 -64 -25 q 6 38 -18 7 q 55 113 31 69 q 99 204 79 157 q 135 297 119 251 q 160 381 151 343 q 215 515 176 458 q 325 611 254 571 q 294 643 310 628 q 269 674 279 658 q 254 708 258 690 q 257 749 250 726 q 284 813 265 775 q 322 894 303 851 q 355 978 340 936 q 369 1051 369 1019 q 347 1103 368 1083 q 275 1119 326 1122 q 219 1117 239 1113 q 182 1146 200 1122 q 267 1177 219 1174 q 356 1167 315 1181 q 449 1110 421 1146 q 480 1030 476 1075 q 467 933 483 985 q 430 831 451 882 q 387 734 408 781 q 357 651 365 688 q 398 641 378 644 q 435 629 418 638 q 481 592 472 608 q 482 561 490 575 q 452 535 474 547 q 408 513 431 524 q 306 431 344 479 q 258 314 268 383 q 220 189 243 251 q 167 73 197 126 q 101 -21 138 19 q 26 -78 65 -61 q -21 -87 6 -87 q -72 -78 -47 -86 q -115 -54 -96 -69 q -143 -18 -135 -39 q -145 7 -147 -7 q -143 35 -143 21 z "},">":{"ha":586,"x_min":18,"x_max":529,"o":"m 408 426 q 254 540 331 488 q 131 647 178 592 q 130 673 124 665 q 153 678 136 681 q 161 674 157 678 q 171 668 165 671 q 278 594 224 631 q 385 517 332 557 q 446 469 417 494 q 503 417 475 444 q 524 374 529 388 q 486 339 519 360 q 273 217 383 278 q 71 92 163 156 q 42 116 56 104 q 23 142 28 128 q 25 172 18 156 q 57 207 32 188 q 228 322 136 268 q 408 426 321 376 z "},"/":{"ha":550,"x_min":-46,"x_max":774,"o":"m 774 1129 q 563 843 663 989 q 372 546 464 697 q 194 240 281 394 q 22 -69 107 86 q 12 -67 17 -68 q 1 -62 7 -65 q -29 -44 -18 -51 q -43 -26 -40 -36 q -42 -4 -46 -17 q -31 29 -39 8 q 88 279 18 144 q 245 557 158 414 q 433 845 332 700 q 647 1126 535 990 q 712 1170 682 1168 q 774 1129 742 1172 z "},"|":{"ha":311,"x_min":28,"x_max":439,"o":"m 439 1181 q 358 1003 397 1101 q 286 794 319 904 q 225 564 253 683 q 176 324 197 444 q 144 85 156 203 q 132 -143 133 -33 q 67 -146 92 -157 q 38 -99 42 -135 q 31 96 28 -10 q 49 315 33 201 q 92 544 65 428 q 153 772 118 661 q 233 985 189 883 q 326 1168 276 1086 q 375 1204 349 1204 q 439 1181 401 1204 z "},"-":{"ha":592,"x_min":47,"x_max":513,"o":"m 50 364 q 54 376 47 372 q 72 382 61 381 q 97 383 83 383 q 118 383 110 383 q 292 385 206 385 q 471 386 379 385 q 494 363 482 383 q 513 322 506 342 q 435 319 482 319 q 335 317 388 318 q 227 313 282 315 q 125 307 172 311 q 78 322 93 304 q 50 364 63 339 z "},"_":{"ha":813,"x_min":21,"x_max":715,"o":"m 715 -32 q 676 -36 696 -36 q 639 -37 657 -36 q 372 -42 504 -40 q 103 -47 239 -44 q 69 -45 82 -47 q 49 -37 57 -43 q 35 -18 42 -31 q 21 15 29 -6 q 42 31 29 31 q 68 32 56 32 q 278 28 174 28 q 651 32 464 28 q 693 22 683 33 q 715 -32 703 11 z "},"+":{"ha":622,"x_min":54,"x_max":493,"o":"m 74 375 q 67 390 71 382 q 61 406 64 399 q 61 442 54 431 q 92 461 68 454 q 140 467 117 465 q 188 469 163 468 q 218 470 203 471 q 251 469 233 469 q 267 517 258 494 q 286 564 275 540 q 301 606 294 583 q 332 643 307 629 q 362 601 354 622 q 369 556 369 579 q 360 510 368 533 q 347 464 353 488 q 397 453 372 458 q 444 440 421 447 q 471 431 461 436 q 485 419 481 426 q 492 399 490 411 q 493 365 493 386 q 407 375 450 371 q 321 386 364 379 q 269 264 289 324 q 219 144 249 204 q 183 192 192 168 q 182 244 174 215 q 202 312 193 278 q 224 385 211 346 q 147 380 183 382 q 74 375 110 378 z "},"=":{"ha":789,"x_min":57,"x_max":665,"o":"m 57 544 q 84 551 71 547 q 113 554 97 554 q 353 551 235 557 q 594 526 472 544 q 649 503 636 521 q 665 438 663 485 q 401 444 532 440 q 139 451 269 447 q 100 456 115 451 q 76 470 85 460 q 64 498 68 481 q 57 544 60 515 m 72 313 q 103 322 89 315 q 131 328 117 328 q 235 328 176 328 q 357 330 294 329 q 479 331 419 331 q 585 329 539 331 q 636 314 624 329 q 651 251 649 299 l 558 251 q 465 248 518 250 q 354 244 411 246 q 243 240 297 242 q 150 239 189 239 q 117 240 129 239 q 97 249 104 242 q 84 272 89 257 q 72 313 79 288 z "},"\\":{"ha":775,"x_min":-106,"x_max":714,"o":"m -106 1129 q -44 1170 -74 1172 q 21 1126 -14 1168 q 235 845 133 990 q 423 557 336 700 q 580 279 510 414 q 699 29 650 144 q 710 -4 707 8 q 711 -26 714 -17 q 697 -44 708 -36 q 667 -62 686 -51 q 656 -67 661 -65 q 646 -69 651 -68 q 474 240 561 86 q 296 546 388 394 q 105 843 204 697 q -106 1129 6 989 z "},"":{"ha":1271,"x_min":-65,"x_max":1218,"o":"m 344 56 q 268 107 296 68 q 239 160 249 131 q 238 225 229 189 l 183 172 q 113 133 153 142 q 36 135 72 125 q -28 174 0 146 q -61 243 -56 201 q -46 342 -65 290 q 5 441 -26 393 q 74 530 36 489 q 144 596 113 571 q 207 635 178 622 q 264 648 236 647 q 319 637 292 649 q 379 604 347 625 q 417 631 399 615 q 456 647 436 646 q 494 633 475 647 q 536 607 514 618 q 483 486 513 544 q 426 369 453 428 q 385 251 400 311 q 376 125 369 192 q 522 171 446 140 q 674 244 599 201 q 817 342 749 288 q 942 458 886 396 q 1034 590 997 521 q 1081 731 1071 658 q 1095 760 1083 751 q 1142 751 1107 769 q 1206 669 1194 710 q 1204 585 1218 629 q 1115 417 1176 494 q 975 278 1054 340 q 806 169 896 215 q 635 96 717 124 q 565 74 601 85 q 493 57 529 64 q 422 48 457 50 q 356 53 386 46 l 344 56 m 356 563 q 333 578 346 579 q 308 569 319 576 q 161 426 219 511 q 81 243 103 340 q 151 293 111 257 q 231 375 192 329 q 304 471 271 421 q 356 563 338 521 z "},"":{"ha":1303,"x_min":-99,"x_max":1250,"o":"m -3 -58 q -42 -46 -24 -51 q -78 -31 -61 -40 q -95 1 -92 -22 q -97 52 -99 25 q -90 104 -94 79 q -82 140 -85 129 q -35 317 -62 222 q 28 513 -7 413 q 106 711 64 613 q 195 899 147 810 q 297 1064 243 989 q 410 1190 350 1139 q 487 1219 453 1228 q 554 1158 521 1211 q 444 1022 496 1104 q 347 848 392 939 q 263 667 301 757 q 193 510 224 578 q 245 535 222 524 q 292 556 268 547 q 358 564 328 568 q 412 542 389 560 q 448 497 435 525 q 461 436 461 469 q 456 404 461 421 q 446 367 451 388 q 610 472 522 419 q 788 559 697 524 q 972 605 879 594 q 1151 586 1064 615 q 1222 538 1196 571 q 1250 438 1247 506 q 1231 394 1244 399 q 1197 400 1217 390 q 1074 435 1143 429 q 928 431 1004 442 q 771 398 851 421 q 613 346 690 375 q 466 284 536 317 q 340 222 396 251 q 188 134 265 174 q 28 75 110 94 l -3 -58 m 68 178 q 174 242 126 210 q 260 314 222 275 q 327 400 299 353 q 374 508 356 447 q 260 457 311 486 q 169 388 208 428 q 105 297 131 349 q 68 178 79 244 z "},"":{"ha":944,"x_min":-49,"x_max":903,"o":"m -21 203 q -38 230 -32 214 q -46 261 -44 246 q -33 356 -49 307 q 9 451 -17 404 q 68 538 35 497 q 133 606 101 578 q 203 647 168 636 q 270 651 238 657 q 333 626 303 646 q 390 575 363 606 q 410 536 411 551 q 385 489 410 521 q 350 516 365 503 q 319 544 335 529 q 238 482 275 519 q 169 399 200 444 q 114 303 139 353 q 71 204 89 253 q 216 252 140 221 q 365 328 292 283 q 507 426 439 372 q 629 543 575 481 q 719 673 683 606 q 765 811 756 740 q 780 841 768 832 q 826 832 792 850 q 891 750 879 790 q 889 665 903 710 q 800 498 861 575 q 660 358 739 421 q 491 250 581 296 q 319 176 401 204 q 195 142 260 157 q 71 133 131 126 q 27 159 49 142 q -21 203 6 176 z "},"":{"ha":1174,"x_min":-32,"x_max":1119,"o":"m 300 49 q 236 81 264 56 q 206 149 208 106 q 206 185 204 165 q 212 224 208 206 q 219 258 215 243 q 225 282 222 274 q 174 226 200 254 q 120 178 147 197 q 65 156 93 160 q 7 175 36 153 q -29 250 -26 203 q 0 442 -32 353 q 110 603 32 531 q 206 658 154 646 q 315 635 257 669 q 324 632 321 632 q 333 633 325 631 q 408 798 372 719 q 481 947 444 876 q 558 1080 518 1017 q 644 1200 599 1143 q 669 1218 658 1218 q 700 1206 681 1218 q 728 1187 718 1194 q 740 1170 738 1179 q 738 1149 742 1161 q 724 1118 733 1136 q 475 588 583 832 q 304 113 367 343 q 447 165 372 131 q 593 246 521 200 q 731 348 665 292 q 850 466 797 404 q 938 595 903 528 q 982 731 972 663 q 997 760 985 751 q 1043 751 1008 769 q 1108 669 1096 710 q 1106 585 1119 629 q 1017 417 1078 494 q 876 278 956 340 q 708 169 797 215 q 536 96 618 124 q 419 60 478 76 q 300 49 360 43 m 83 219 q 299 550 256 346 q 218 508 258 543 q 147 426 178 474 q 97 323 115 378 q 83 219 79 268 z "},"":{"ha":940,"x_min":-29,"x_max":908,"o":"m -28 288 q 22 478 -21 392 q 150 626 64 564 q 216 655 183 651 q 281 648 249 658 q 341 617 313 638 q 394 575 369 597 q 406 463 451 524 q 246 346 343 379 q 174 344 208 332 q 107 368 139 356 q 88 326 99 351 q 72 276 78 301 q 66 227 65 250 q 79 192 67 204 q 224 242 149 208 q 373 322 300 275 q 514 426 446 368 q 635 548 582 483 q 725 682 689 613 q 771 822 761 751 q 785 852 774 843 q 832 843 797 861 q 897 761 885 801 q 894 676 908 721 q 806 509 867 586 q 665 369 744 432 q 497 261 586 307 q 325 188 407 215 q 227 160 279 172 q 125 144 175 147 q 65 153 93 142 q 17 183 38 164 q -17 230 -4 203 q -28 288 -29 257 m 301 572 q 258 547 282 565 q 211 506 235 529 q 168 460 188 483 q 139 419 149 438 q 191 429 164 417 q 242 463 218 442 q 282 512 265 483 q 301 572 299 540 z "},"":{"ha":1222,"x_min":-149,"x_max":1185,"o":"m 57 -282 q 17 -302 39 -299 q -26 -294 -4 -306 l -74 -276 q -132 -206 -119 -256 q -136 -49 -149 -131 q -97 115 -124 33 q -39 275 -71 197 q 15 418 -7 353 l -22 450 q -9 466 -17 463 q 8 471 -1 469 q 26 472 17 472 q 43 478 35 472 q 205 762 124 633 q 393 990 286 890 q 435 1011 415 1008 q 471 1006 454 1014 q 503 985 488 999 q 533 956 518 971 q 497 917 514 935 q 464 879 479 899 q 340 697 397 792 q 222 483 282 603 q 355 558 282 525 q 508 614 428 592 q 670 646 588 636 q 831 652 753 656 q 981 631 910 649 q 1108 579 1051 613 q 1167 518 1149 556 q 1174 414 1185 481 q 1146 376 1161 378 q 1114 389 1131 375 q 920 487 1035 456 q 682 520 806 518 q 437 497 558 522 q 221 422 315 471 q 242 238 242 338 q 222 41 243 138 q 160 -141 201 -56 q 57 -282 119 -226 m 3 -96 q -5 -133 -1 -111 q -10 -172 -8 -154 q -8 -201 -11 -190 q 7 -207 -4 -212 q 71 -151 42 -190 q 122 -62 100 -112 q 160 47 144 -12 q 181 164 175 106 q 184 275 188 222 q 165 368 181 328 q 72 141 113 256 q 3 -96 31 26 z "},"":{"ha":1415,"x_min":-222,"x_max":1351,"o":"m 650 108 q 676 178 663 140 q 689 247 689 217 q 669 291 689 276 q 600 292 650 306 q 490 253 543 276 q 388 206 438 231 q 288 156 338 181 q 186 111 238 131 q 40 133 107 79 q 8 160 25 147 q -26 188 -10 172 q -62 301 -78 229 q -3 442 -44 376 q 97 560 39 508 q 222 648 154 613 q 360 697 290 683 q 469 681 424 708 q 551 604 515 653 q 554 594 554 600 q 557 576 554 588 q 529 588 542 582 q 504 599 517 594 q 479 606 492 604 q 450 601 467 607 q 233 460 318 556 q 94 229 147 365 q 216 272 158 247 q 332 319 274 296 q 435 357 383 340 q 543 381 488 374 q 647 366 601 388 q 729 303 693 344 q 758 235 754 271 q 753 163 763 199 l 753 161 q 913 267 835 207 q 1055 397 992 328 q 1160 540 1118 465 q 1214 690 1203 615 q 1228 720 1217 711 q 1275 711 1240 729 q 1340 629 1328 669 q 1338 544 1351 589 q 1248 377 1310 454 q 1101 235 1186 300 q 914 121 1015 171 q 708 36 813 71 q 581 -197 660 -79 q 405 -417 501 -315 q 200 -596 308 -519 q -17 -704 92 -672 q -104 -708 -64 -718 q -181 -671 -144 -697 q -213 -632 -204 -654 q -221 -582 -222 -610 q -197 -485 -219 -535 q -143 -391 -175 -436 q -75 -306 -111 -346 q -8 -239 -39 -267 q 140 -119 63 -172 q 299 -25 217 -67 q 469 49 382 17 q 650 108 557 82 m -31 -382 q -78 -445 -54 -410 q -117 -516 -101 -481 q -139 -582 -133 -551 q -132 -631 -144 -612 q -87 -649 -119 -649 q 4 -624 -56 -650 q 183 -511 93 -585 q 351 -348 272 -437 q 497 -163 431 -258 q 607 13 563 -68 q 421 -42 510 -4 q 253 -132 332 -79 q 103 -249 174 -185 q -31 -382 32 -312 z "},"":{"ha":1426,"x_min":-135,"x_max":1379,"o":"m 514 192 q 475 265 467 217 q 492 356 482 313 q 514 442 503 400 q 376 358 440 404 q 254 260 313 311 q 140 153 196 208 q 29 46 85 99 q 1 19 17 33 q -33 11 -14 4 q -81 33 -57 19 q -125 61 -104 46 q -135 87 -135 67 q -131 130 -135 107 q -119 173 -126 153 q -110 200 -112 193 q -45 349 -78 275 q 28 496 -12 424 q 154 710 88 606 q 294 912 221 815 q 450 1096 368 1008 q 625 1258 532 1183 q 715 1281 679 1290 q 793 1222 750 1272 q 783 1198 800 1207 q 757 1183 767 1189 q 551 1009 649 1115 q 367 780 453 903 q 210 528 282 657 q 82 286 138 399 q 69 242 64 250 q 108 264 75 233 q 190 331 147 297 q 278 397 233 365 q 369 456 324 429 q 457 500 415 483 q 493 508 475 507 q 531 500 511 510 q 594 440 583 471 q 596 372 604 408 q 575 304 588 336 q 556 238 563 272 q 774 323 660 263 q 987 467 888 383 q 1156 653 1086 551 q 1242 860 1226 754 q 1256 890 1244 881 q 1303 881 1268 899 q 1367 799 1356 839 q 1365 714 1379 758 q 1276 547 1338 624 q 1136 407 1215 469 q 967 299 1057 344 q 796 225 878 253 q 689 193 744 207 q 581 178 633 179 q 514 192 546 174 z "},"":{"ha":936,"x_min":-67,"x_max":886,"o":"m 61 106 q 8 117 35 106 q -37 153 -18 129 q -53 180 -47 164 q -61 213 -58 196 q -54 295 -67 249 q -20 388 -42 342 q 26 475 1 433 q 72 542 51 517 q 135 567 97 569 q 197 532 172 564 q 201 499 207 515 q 169 422 189 460 q 129 344 150 383 q 90 267 108 306 q 64 190 72 229 q 208 238 133 207 q 355 313 282 269 q 494 410 428 357 q 615 526 561 464 q 703 654 668 588 q 749 792 739 721 q 763 822 751 813 q 810 813 775 831 q 874 731 863 771 q 872 646 886 690 q 746 428 835 524 q 542 266 657 333 q 300 158 426 199 q 61 106 174 118 m 149 663 q 153 711 149 683 q 167 762 157 739 q 196 797 178 785 q 242 799 214 810 q 283 777 268 788 q 303 755 299 767 q 303 727 308 743 q 286 689 299 711 l 253 628 q 233 603 242 606 q 199 613 225 600 q 165 628 181 619 q 149 663 149 636 z "},"":{"ha":1171,"x_min":-311,"x_max":1122,"o":"m -118 -118 q 17 -35 -54 -72 q 163 36 89 3 q 310 101 236 69 q 450 165 383 132 q 490 342 478 253 q 493 522 501 432 q 388 507 436 517 q 298 481 340 497 q 214 441 256 465 q 128 382 172 417 q 102 364 117 372 q 78 358 88 356 q 38 378 57 365 q 4 407 19 392 q 1 442 -8 419 q 26 488 10 464 q 62 531 43 511 q 89 557 81 550 q 165 607 124 585 q 251 642 207 629 q 340 657 296 656 q 426 646 385 658 q 520 594 486 626 q 589 508 554 561 q 619 388 618 460 q 604 247 619 317 q 740 344 675 290 q 856 458 804 397 q 941 584 907 518 q 985 719 975 650 q 999 749 988 740 q 1046 740 1011 758 q 1110 658 1099 699 q 1108 574 1122 618 q 1022 410 1082 486 q 885 272 963 333 q 721 164 808 210 q 551 89 633 118 l 551 88 q 449 -112 506 -10 q 326 -308 392 -214 q 186 -481 261 -401 q 29 -614 111 -560 q -75 -647 -21 -644 q -176 -627 -129 -649 q -258 -564 -224 -606 q -301 -464 -292 -522 q -297 -362 -311 -412 q -256 -267 -283 -312 q -191 -184 -228 -222 q -118 -118 -154 -146 m -208 -561 q -167 -595 -190 -587 q -117 -597 -143 -603 q -65 -577 -92 -592 q -15 -544 -39 -562 q 29 -507 10 -526 q 61 -472 49 -487 q 249 -231 158 -361 q 403 42 340 -101 q 236 -16 322 14 q 69 -85 150 -46 q -78 -178 -11 -125 q -189 -307 -146 -232 q -218 -369 -206 -336 q -235 -436 -231 -403 q -233 -501 -239 -469 q -208 -561 -228 -533 m 576 646 q 492 782 454 668 q 493 788 493 785 q 513 824 497 810 q 549 844 529 839 q 589 844 568 850 q 625 822 610 839 q 644 792 640 803 q 635 760 647 782 q 606 703 621 731 q 576 646 592 675 z "},"":{"ha":1097,"x_min":-81,"x_max":1064,"o":"m 149 157 q 122 206 133 181 q 97 254 111 231 q 58 145 78 197 q 33 35 39 93 q -19 40 6 29 q -68 67 -44 51 q -78 85 -75 71 q -81 114 -81 99 q -79 144 -81 129 q -76 164 -78 158 q -3 430 -49 292 q 104 699 43 568 q 240 945 165 831 q 403 1139 315 1060 q 437 1158 421 1156 q 468 1156 453 1161 q 499 1140 483 1150 q 533 1119 515 1129 q 426 952 479 1036 q 326 782 374 868 q 236 606 278 696 q 161 419 194 517 q 242 460 204 435 q 313 517 281 486 q 372 579 344 547 q 419 639 399 611 q 448 624 435 632 q 481 606 461 617 q 333 445 408 518 q 161 315 257 372 q 197 237 182 264 q 232 201 213 210 q 279 199 251 192 q 354 224 307 206 q 546 319 450 260 q 722 452 642 378 q 858 613 803 526 q 926 790 913 699 q 941 820 929 811 q 988 811 953 829 q 1052 729 1040 769 q 1050 644 1064 689 q 983 508 1029 574 q 873 385 936 443 q 735 279 810 328 q 583 194 661 231 q 429 136 506 158 q 286 108 353 114 q 208 111 244 106 q 149 157 172 117 z "},"":{"ha":950,"x_min":-56,"x_max":910,"o":"m 49 31 q -19 91 3 56 q -43 175 -40 126 q -12 424 -56 301 q 108 705 38 571 q 275 963 179 839 q 375 1085 324 1026 q 493 1183 426 1143 q 531 1194 517 1199 q 574 1168 546 1190 q 601 1138 596 1150 q 597 1099 607 1125 q 419 757 528 917 q 183 454 311 597 q 134 374 156 419 q 99 281 113 329 q 79 185 85 233 q 78 96 74 138 q 223 142 147 111 q 372 217 299 174 q 514 315 446 260 q 636 431 582 369 q 726 561 690 493 q 772 700 763 629 q 787 730 775 721 q 833 721 799 739 q 898 639 886 679 q 896 554 910 599 q 807 387 868 464 q 667 247 746 310 q 498 139 588 185 q 326 65 408 93 q 201 28 267 46 q 75 18 135 11 q 49 31 60 24 m 504 1039 q 373 848 433 946 q 264 646 313 750 q 398 833 333 738 q 504 1039 463 928 z "},"":{"ha":1658,"x_min":-101,"x_max":1621,"o":"m 729 128 q 692 169 703 146 q 690 224 681 192 q 743 378 714 307 q 803 521 772 449 q 724 456 760 490 q 655 385 688 421 q 590 315 622 350 q 524 249 558 279 q 485 228 504 233 q 444 239 467 222 q 409 276 418 258 q 407 328 400 294 q 419 381 411 354 q 435 432 428 407 q 447 482 443 457 q 450 532 451 507 q 260 319 349 429 q 72 107 171 210 q 48 86 58 93 q 27 79 38 79 q 5 85 17 79 q -24 101 -7 90 q -72 138 -54 121 q -95 174 -89 154 q -97 217 -101 193 q -81 276 -93 242 q 8 460 -40 374 q 122 611 57 546 q 172 642 146 633 q 224 649 199 651 q 269 635 249 647 q 301 606 289 624 q 235 531 269 578 q 169 430 201 483 q 108 324 136 376 q 61 233 79 271 q 152 323 104 271 q 249 428 200 375 q 347 532 299 482 q 439 618 394 582 q 476 634 458 633 q 515 618 494 635 q 544 581 538 597 q 540 531 550 565 q 508 412 525 472 q 478 296 492 351 q 560 371 519 331 q 640 453 600 411 q 719 535 679 494 q 801 613 760 576 q 833 631 817 625 q 869 621 850 636 q 905 585 889 604 q 914 535 921 567 q 860 357 890 442 q 807 185 831 272 q 951 233 876 201 q 1097 309 1025 265 q 1234 406 1168 353 q 1352 521 1300 460 q 1439 649 1404 582 q 1483 785 1474 715 q 1498 815 1486 806 q 1544 806 1510 824 q 1609 724 1597 764 q 1607 639 1621 683 q 1518 472 1579 549 q 1378 332 1457 394 q 1209 224 1299 269 q 1038 150 1119 178 q 920 115 982 131 q 800 101 858 99 q 763 109 781 101 q 729 128 744 117 z "},"":{"ha":1463,"x_min":-47,"x_max":1431,"o":"m 551 228 q 521 265 524 244 q 518 306 518 286 q 524 376 519 342 q 531 447 528 411 q 516 508 535 506 q 453 481 497 511 q 283 344 364 415 q 139 185 203 272 q 115 155 124 165 q 95 143 106 144 q 69 149 85 142 q 25 171 53 156 q 5 181 14 176 q -14 192 -4 185 q -47 244 -47 210 q 7 465 -37 360 q 142 644 51 569 q 183 662 161 663 q 225 651 204 661 q 265 628 246 642 q 300 604 285 614 q 237 535 268 576 q 178 451 206 494 q 130 365 151 407 q 96 293 108 322 q 182 368 135 328 q 278 445 229 408 q 372 513 326 482 q 454 563 418 544 q 501 569 478 574 q 551 549 525 564 q 613 456 611 511 q 610 410 613 432 q 606 368 607 389 q 604 327 604 347 q 610 288 604 307 q 753 335 679 304 q 901 410 828 367 q 1040 508 974 454 q 1160 624 1107 563 q 1248 751 1213 685 q 1293 889 1283 818 q 1308 919 1296 910 q 1354 910 1319 928 q 1419 828 1407 868 q 1417 743 1431 788 q 1349 606 1394 671 q 1241 483 1303 540 q 1106 379 1179 426 q 955 297 1032 332 q 802 238 878 261 q 660 208 726 215 q 601 207 628 204 q 551 228 575 210 z "},"":{"ha":1375,"x_min":-56,"x_max":1321,"o":"m 350 301 q 218 139 303 206 q 137 104 178 108 q 49 129 96 100 q -36 213 -17 169 q -37 329 -56 256 q 23 487 -15 418 q 119 618 61 556 q 159 646 135 635 q 210 661 183 657 q 263 664 236 665 q 311 654 290 663 q 377 608 357 636 q 403 545 397 579 q 403 473 408 511 q 389 397 397 435 q 581 516 475 463 q 798 597 686 569 q 1022 622 910 625 q 1235 571 1135 618 q 1299 516 1278 551 q 1315 413 1321 481 q 1291 372 1306 374 q 1260 382 1276 369 q 1131 441 1203 421 q 980 467 1060 461 q 816 464 900 472 q 651 435 732 456 q 495 385 569 415 q 360 318 421 356 q 355 310 357 315 q 350 301 353 306 m 292 381 q 308 417 299 393 q 326 469 318 442 q 340 525 335 497 q 342 574 344 553 q 326 606 339 594 q 286 610 313 617 q 292 589 289 600 q 293 569 296 578 q 281 547 289 558 q 264 533 272 535 q 232 522 244 531 q 211 501 219 513 q 196 477 203 490 q 181 453 189 464 q 201 415 192 429 q 221 394 210 401 q 249 383 232 386 q 292 381 265 381 m 79 167 q 183 233 140 185 q 258 335 226 282 q 182 356 203 336 q 149 407 161 376 q 103 295 125 358 q 79 167 82 232 z "},"":{"ha":1397,"x_min":-283,"x_max":1354,"o":"m 54 161 q 47 151 50 156 q 42 140 43 147 q -70 -130 -18 0 q -154 -393 -122 -260 q -169 -457 -164 -428 q -171 -500 -174 -486 q -176 -519 -169 -512 q -194 -522 -182 -525 q -260 -482 -240 -510 q -281 -418 -279 -454 q -275 -341 -283 -382 q -257 -260 -267 -300 q -179 9 -225 -132 q -74 284 -133 150 q 59 537 -15 418 q 221 740 133 656 q 374 700 301 821 q 334 673 357 696 q 288 622 311 650 q 243 567 264 594 q 210 526 222 540 q 289 565 250 546 q 365 598 328 585 q 433 617 401 611 q 492 614 465 622 q 533 590 514 607 q 572 551 553 572 q 597 501 594 528 q 589 447 600 474 q 549 376 572 410 q 497 314 525 342 l 508 319 q 619 382 560 349 q 740 447 678 415 q 869 506 803 479 q 1000 549 935 533 q 1129 567 1065 565 q 1253 549 1193 568 q 1324 501 1297 533 q 1354 401 1350 469 q 1336 358 1350 363 q 1303 364 1322 354 q 1136 400 1231 400 q 941 381 1042 400 q 740 328 840 361 q 553 264 639 294 q 306 190 432 211 q 54 161 181 168 m 494 569 q 378 550 438 575 q 264 478 318 525 q 165 367 210 431 q 93 236 119 304 q 197 271 147 250 q 296 319 247 292 q 358 365 322 336 q 426 427 394 393 q 478 499 457 461 q 494 569 499 536 z "},"":{"ha":1275,"x_min":-100,"x_max":1233,"o":"m 251 -639 q 216 -656 232 -656 q 176 -646 200 -657 q 121 -608 144 -628 q 88 -551 97 -587 q 85 -437 74 -500 q 122 -310 97 -375 q 181 -185 147 -246 q 243 -76 214 -125 q 410 180 332 63 q 563 414 488 297 q 581 456 581 443 q 569 467 582 468 q 531 451 557 465 q 472 415 506 438 q 270 263 365 342 q 72 121 175 185 q 16 113 47 106 q -42 140 -15 119 q -84 187 -68 160 q -94 242 -100 214 q -67 326 -87 283 q -15 410 -46 368 q 52 490 15 451 q 129 561 89 528 q 209 627 167 592 q 295 681 251 663 q 381 690 339 699 q 458 626 424 682 q 399 602 438 626 q 315 538 361 578 q 221 451 269 499 q 130 357 172 403 q 58 273 88 311 q 18 215 28 235 q 26 199 8 194 q 96 242 43 203 q 206 327 150 282 q 315 413 261 372 q 423 486 369 454 q 528 533 476 518 q 576 531 557 543 q 618 500 594 519 q 646 401 665 458 q 599 299 626 350 q 542 199 572 249 q 481 102 511 150 q 424 10 450 54 q 565 62 492 28 q 710 142 639 96 q 847 246 782 189 q 965 367 913 303 q 1051 498 1017 431 q 1096 635 1086 565 q 1110 665 1099 656 q 1157 656 1122 674 q 1222 574 1210 614 q 1219 489 1233 533 q 1149 350 1197 417 q 1037 225 1101 283 q 895 118 972 167 q 738 33 818 69 q 579 -24 658 -3 q 432 -49 500 -46 q 426 -225 438 -139 q 391 -387 415 -311 q 331 -528 367 -464 q 251 -639 294 -592 m 372 -46 q 296 -185 332 -107 q 234 -340 260 -262 q 197 -487 208 -418 q 193 -597 185 -556 q 265 -487 229 -546 q 326 -361 300 -429 q 367 -215 353 -293 q 372 -46 381 -136 z "},"":{"ha":1442,"x_min":-86,"x_max":1399,"o":"m 421 217 q 363 251 382 221 q 361 324 343 282 q 396 395 376 361 q 435 463 415 429 q 471 529 454 496 q 499 599 488 563 q 344 509 417 565 q 209 383 271 453 q 99 233 147 313 q 18 76 50 154 q -22 88 -1 78 q -57 115 -42 99 q -79 154 -72 132 q -79 204 -86 176 q -46 326 -65 265 q -1 446 -26 388 q 58 556 25 504 q 136 650 92 608 q 170 672 154 668 q 202 669 186 675 q 233 651 218 663 q 263 625 247 639 l 186 496 q 309 589 249 542 q 444 667 369 636 q 517 675 485 683 q 578 639 550 667 q 597 610 592 625 q 594 575 603 594 q 522 439 564 501 q 439 314 479 376 q 503 356 469 336 q 568 392 536 375 q 739 467 644 433 q 933 515 833 500 q 1132 521 1033 529 q 1314 471 1231 513 q 1377 415 1356 450 q 1393 311 1399 379 q 1367 272 1382 274 q 1335 282 1353 269 q 1206 343 1278 322 q 1052 369 1133 364 q 885 365 971 374 q 717 335 799 356 q 559 283 635 314 q 424 215 483 253 l 421 217 z "},"":{"ha":1163,"x_min":-306,"x_max":1107,"o":"m 118 -92 q -106 -239 32 -199 q -204 -238 -160 -254 q -287 -185 -249 -222 q -303 -151 -300 -169 q -302 -111 -306 -132 q -290 -69 -299 -90 q -269 -28 -282 -49 q -214 44 -246 13 q -142 106 -182 76 q -56 165 -103 135 q 47 233 -8 196 q 19 313 31 281 q -1 367 7 344 q -13 403 -8 389 q -21 432 -18 418 q -24 522 -32 478 q 9 604 -15 567 q 70 669 33 642 q 153 706 107 696 q 198 706 175 710 q 241 690 221 701 q 278 663 261 679 q 306 625 294 646 q 296 622 301 622 q 286 622 290 622 q 184 594 224 619 q 126 524 144 568 q 110 421 108 481 q 135 290 113 361 q 338 393 225 347 q 571 463 451 439 q 807 483 690 486 q 1022 439 924 479 q 1087 383 1067 421 q 1100 279 1107 346 q 1074 238 1089 240 q 1043 249 1058 235 q 843 349 957 322 q 608 367 729 375 q 369 325 488 360 q 158 242 251 290 q 179 148 171 189 q 185 69 188 107 q 168 -7 183 32 q 118 -92 153 -46 m -236 -153 q -129 -115 -182 -147 q -35 -36 -76 -83 q 28 67 6 11 q 46 174 51 122 q -53 108 -3 142 q -145 35 -104 74 q -212 -50 -186 -4 q -236 -153 -239 -96 z "},"":{"ha":1364,"x_min":-82,"x_max":1279,"o":"m 24 -17 q 8 -9 17 -12 q -8 0 0 -6 q -60 42 -44 15 q -78 104 -76 68 q -72 204 -81 156 q -47 300 -62 253 q 49 536 -10 424 q 174 758 107 649 q 189 781 182 769 q 207 810 196 793 q 133 809 169 810 q 61 813 96 808 q -6 828 26 817 q -65 868 -37 840 q -81 896 -81 882 q -76 921 -82 910 q -58 939 -69 932 q -33 946 -46 946 q 10 922 -22 931 q 84 910 42 914 q 173 905 126 906 q 261 904 219 904 q 336 996 300 950 q 409 1085 372 1042 q 483 1169 446 1129 q 560 1244 519 1210 q 585 1261 572 1254 q 613 1258 597 1268 q 641 1233 628 1247 q 665 1203 654 1218 q 661 1184 667 1201 q 648 1145 656 1167 q 633 1103 640 1124 q 625 1076 626 1083 q 606 1087 614 1082 q 589 1099 597 1092 l 464 928 q 677 947 568 940 q 883 953 786 954 q 1059 944 981 953 q 1183 919 1138 936 q 1231 897 1210 910 q 1269 864 1251 883 q 1278 843 1279 851 q 1260 839 1278 835 q 1138 868 1206 860 q 997 877 1071 876 q 844 872 922 878 q 692 858 767 865 q 550 842 618 850 q 428 829 482 833 q 399 822 411 826 q 378 804 388 818 q 270 626 322 717 q 175 441 218 535 q 100 249 132 347 q 54 50 68 151 q 199 97 124 65 q 349 171 275 128 q 490 268 422 214 q 613 385 558 322 q 703 515 667 447 q 749 654 739 583 q 763 684 751 675 q 810 675 775 693 q 874 593 863 633 q 872 508 886 553 q 783 341 844 418 q 643 201 722 264 q 474 93 564 139 q 303 19 385 47 q 185 -16 247 0 q 64 -29 122 -32 q 24 -17 40 -29 z "},"":{"ha":1360,"x_min":-51,"x_max":1322,"o":"m 404 182 q 388 233 388 203 q 400 322 389 264 q 340 264 372 294 q 274 204 308 233 q 203 149 239 175 q 132 107 167 124 q 21 118 74 82 q 2 130 13 125 q -15 143 -8 135 q -46 211 -40 171 q -43 298 -51 251 q -15 394 -35 344 q 28 488 4 443 q 79 569 53 532 q 128 629 106 607 q 197 653 160 658 q 256 611 233 647 q 258 587 263 597 q 246 565 253 576 q 185 476 217 526 q 128 372 154 426 q 83 264 101 318 q 61 163 65 210 q 174 221 115 179 q 286 313 232 263 q 386 415 340 364 q 461 503 432 467 q 493 490 476 496 q 522 474 510 483 q 538 452 533 465 q 533 418 542 439 q 509 356 521 389 q 488 289 497 322 q 475 225 479 256 q 474 172 471 194 q 620 222 543 188 q 773 303 697 256 q 919 409 849 350 q 1044 534 989 468 q 1138 670 1100 600 q 1185 811 1175 740 q 1199 841 1188 832 q 1246 832 1211 850 q 1310 750 1299 790 q 1308 665 1322 710 q 1219 498 1281 575 q 1079 358 1158 421 q 910 250 1000 296 q 739 176 821 204 q 617 141 682 157 q 494 128 553 125 q 444 146 469 128 q 404 182 419 164 z "},"":{"ha":1439,"x_min":-60,"x_max":1394,"o":"m 164 89 q 107 66 136 65 q 47 86 78 67 q -9 125 14 111 q -44 156 -32 139 q -58 199 -57 174 q -49 274 -60 225 q 13 458 -26 369 q 110 629 53 546 q 142 669 128 656 q 172 683 157 682 q 206 670 188 683 q 247 632 224 657 q 211 551 232 597 q 169 454 190 504 q 128 354 147 404 q 95 263 108 304 q 78 192 82 221 q 82 153 74 163 q 117 160 94 147 q 165 194 139 172 q 219 246 192 217 q 272 306 247 275 q 317 363 297 336 q 347 407 338 389 q 350 417 350 410 q 349 432 350 424 q 347 448 349 440 q 343 460 344 456 q 338 579 328 519 q 376 693 349 639 q 442 794 403 747 q 525 875 482 842 q 593 899 567 906 q 657 858 619 893 q 666 841 664 853 q 665 821 668 829 q 603 670 642 747 q 524 522 565 593 q 775 678 649 618 q 1044 756 901 738 q 1126 760 1085 760 q 1206 757 1168 761 q 1279 742 1244 753 q 1340 715 1314 732 q 1378 675 1364 700 q 1394 607 1392 650 q 1374 564 1389 568 q 1340 569 1360 560 q 1199 615 1276 603 q 1038 622 1122 628 q 867 594 954 615 q 700 540 781 572 q 549 465 619 507 q 425 375 478 422 q 369 306 400 343 q 303 229 338 268 q 234 154 269 190 q 164 89 199 118 m 406 486 q 456 551 431 511 q 504 635 482 592 q 542 717 526 678 q 563 779 558 756 q 511 722 538 760 q 463 642 485 685 q 425 556 440 599 q 406 486 410 514 z "},"":{"ha":1740,"x_min":-72,"x_max":1697,"o":"m 532 104 q 456 57 493 72 q 375 63 419 42 q 320 94 342 78 q 287 132 299 111 q 272 178 275 153 q 274 240 269 204 q 274 256 274 247 q 276 278 275 264 q 260 266 267 271 q 249 256 254 261 q 187 198 217 228 q 122 140 157 168 q 76 117 101 124 q 26 115 51 111 q -21 131 1 118 q -57 167 -43 144 q -69 198 -67 179 q -71 233 -72 217 q -55 315 -68 265 q -20 417 -42 364 q 30 519 1 471 q 92 599 58 568 q 162 633 125 629 q 238 600 199 636 q 163 503 200 565 q 95 377 125 442 q 48 258 65 313 q 33 182 31 203 q 81 207 51 182 q 146 269 111 232 q 218 350 181 307 q 289 428 256 393 q 350 483 322 463 q 393 496 378 503 q 419 484 411 489 q 442 467 428 479 q 443 449 446 461 q 438 429 440 438 q 397 277 414 349 q 376 131 381 206 q 435 158 403 136 q 503 213 468 181 q 569 287 538 246 q 625 371 601 328 q 607 382 615 376 q 590 394 599 388 q 517 535 513 444 q 566 747 519 646 q 678 932 613 849 l 714 967 q 775 999 749 997 q 840 978 801 1001 l 879 953 q 924 864 928 919 q 883 688 917 781 q 814 510 850 594 q 990 631 894 576 q 1190 717 1086 685 q 1398 753 1293 749 q 1600 722 1503 757 q 1669 674 1644 707 q 1697 574 1694 642 q 1678 531 1692 535 q 1644 536 1664 526 q 1510 581 1585 568 q 1356 591 1436 594 q 1192 569 1275 588 q 1029 522 1108 551 q 878 456 950 493 q 750 375 807 418 q 653 229 707 297 q 532 104 600 161 m 813 876 q 803 869 807 872 q 796 864 799 867 q 728 763 760 817 q 674 650 696 708 q 644 533 653 592 q 647 417 636 474 q 684 472 664 436 q 724 552 704 508 q 760 644 743 596 q 790 736 778 692 q 809 817 803 781 q 813 876 815 854 z "},"":{"ha":1164,"x_min":-44,"x_max":1124,"o":"m 194 47 q 153 111 158 74 q 167 218 147 149 q 98 151 135 189 q 36 89 61 114 q 1 74 17 69 q -44 100 -14 78 q 6 149 -28 118 q 76 212 39 179 q 144 276 113 244 q 190 329 176 308 q 233 434 211 379 q 276 543 254 489 q 316 648 297 597 q 350 740 335 699 q 245 672 293 718 q 160 574 197 626 q 99 471 124 521 q 68 392 75 421 q 53 380 65 379 q 33 385 42 381 q -8 427 4 400 q -15 487 -19 454 q 8 554 -11 519 q 56 618 26 589 q 174 723 114 676 q 313 796 235 769 q 358 801 336 803 q 401 785 381 800 q 422 770 411 776 q 443 757 432 764 q 473 731 461 743 q 490 706 485 719 q 493 676 494 693 q 485 636 492 660 q 461 564 474 600 q 433 485 449 528 q 469 509 446 490 q 518 549 493 528 q 565 588 543 569 q 597 610 588 606 q 610 615 606 614 q 621 615 615 617 q 634 609 626 614 q 656 596 642 604 q 608 562 639 586 q 540 504 578 538 q 460 432 503 471 q 378 353 418 393 q 325 206 349 286 q 290 56 301 125 q 435 104 360 71 q 585 184 511 138 q 728 288 660 231 q 850 410 796 346 q 940 544 904 475 q 986 685 976 614 q 1001 715 989 706 q 1047 706 1013 724 q 1112 624 1100 664 q 1110 539 1124 583 q 1021 372 1082 449 q 881 232 960 294 q 712 124 801 169 q 540 50 622 78 q 422 15 485 31 q 303 1 360 -1 q 245 17 275 1 q 194 47 215 32 z "},"":{"ha":1250,"x_min":-194,"x_max":1218,"o":"m 768 133 q 675 -162 740 -12 q 514 -446 610 -312 q 295 -685 418 -579 q 29 -849 172 -792 q -49 -858 -10 -864 q -126 -826 -87 -851 q -180 -757 -165 -799 q -192 -667 -194 -715 q -175 -568 -190 -619 q -138 -469 -160 -517 q -92 -383 -117 -422 q -49 -318 -68 -343 q 103 -157 21 -228 q 274 -28 185 -86 q 456 78 363 29 q 646 175 550 126 q 670 196 661 183 q 682 228 679 208 q 688 277 683 244 q 696 347 693 310 q 699 422 699 385 q 690 487 699 460 q 663 526 681 514 q 611 524 644 538 q 485 453 544 492 q 371 373 426 415 q 263 286 315 331 q 158 199 211 242 q 64 197 115 164 q 37 215 50 207 q 10 231 24 222 q -31 289 -26 256 q -29 358 -35 322 q -7 434 -22 390 q 29 520 8 478 q 74 597 50 563 q 125 647 99 632 q 165 649 144 658 q 214 610 185 640 q 177 535 197 575 q 138 452 157 494 q 103 368 119 410 q 79 288 88 326 q 178 366 118 317 q 302 465 238 415 q 429 556 367 515 q 536 610 492 597 q 591 618 563 619 q 647 606 619 617 q 697 575 674 594 q 738 531 721 556 q 765 472 756 506 q 780 401 775 438 q 785 326 785 364 q 785 256 786 289 q 892 355 842 297 q 982 476 943 413 q 1047 606 1021 540 q 1081 731 1072 672 q 1095 760 1083 751 q 1142 751 1107 769 q 1206 669 1194 710 q 1204 585 1218 629 q 1140 451 1183 514 q 1038 333 1096 388 q 913 234 981 279 q 776 154 844 189 q 768 133 769 146 m 656 106 q 291 -108 457 17 q 7 -404 125 -232 q -69 -529 -35 -465 q -114 -669 -103 -593 q -117 -754 -125 -725 q -90 -794 -110 -783 q -42 -799 -71 -804 q 19 -779 -12 -793 q 83 -745 51 -765 q 140 -707 114 -725 q 319 -545 239 -635 q 464 -352 400 -456 q 576 -133 528 -249 q 656 106 624 -18 z "},"":{"ha":1104,"x_min":-514,"x_max":1056,"o":"m 438 -319 q 240 -524 346 -432 q 10 -687 135 -617 q -125 -751 -57 -725 q -268 -789 -193 -778 q -382 -776 -331 -796 q -478 -714 -433 -757 q -512 -647 -510 -685 q -501 -569 -514 -608 q -465 -495 -487 -531 q -422 -436 -442 -460 q -292 -306 -361 -364 q -147 -201 -222 -249 q 8 -111 -71 -153 q 164 -28 86 -69 q 317 55 242 13 q 463 149 393 97 q 399 185 432 169 q 334 214 367 200 q 269 242 301 228 q 208 274 238 256 q 172 333 169 297 q 199 408 175 368 q 268 510 229 465 q 338 604 307 556 q 266 573 308 599 q 182 513 224 547 q 106 442 140 479 q 54 378 71 406 q -3 400 13 381 q -15 445 -18 419 q 3 499 -12 471 q 36 547 18 526 q 106 610 65 579 q 188 665 146 642 q 272 699 231 688 q 342 704 313 710 q 380 690 358 700 q 422 667 401 681 q 458 635 443 653 q 478 601 474 618 q 477 565 482 583 q 463 531 472 547 q 443 499 454 514 q 424 472 432 485 q 360 387 392 428 q 306 300 329 346 q 353 277 326 288 q 410 253 381 267 q 468 223 439 240 q 522 182 497 206 q 666 300 597 235 q 788 438 735 365 q 873 588 840 511 q 908 742 906 665 q 921 774 910 764 q 968 769 932 785 q 1040 694 1025 733 q 1046 610 1056 656 q 983 455 1029 526 q 869 324 936 383 q 724 215 803 264 q 564 128 644 167 q 598 13 600 74 q 572 -106 596 -47 q 510 -221 549 -165 q 438 -319 472 -276 m 474 74 q 186 -94 328 -14 q -96 -260 44 -175 q -260 -373 -183 -312 q -389 -512 -336 -433 q -428 -579 -411 -544 q -447 -642 -444 -614 q -433 -690 -449 -671 q -375 -712 -418 -710 q -287 -700 -329 -712 q -203 -668 -244 -687 q 115 -462 -29 -586 q 365 -190 260 -337 q 442 -60 411 -126 q 474 74 474 7 z "},"@":{"ha":1003,"x_min":-56,"x_max":961,"o":"m 515 279 q 453 231 483 254 q 390 189 424 208 q 350 174 371 178 q 306 179 329 171 q 267 192 286 186 q 231 204 249 197 q 194 228 206 214 q 181 260 183 243 q 184 297 179 278 q 196 335 189 315 q 258 444 217 385 q 351 553 299 504 q 463 633 403 603 q 581 653 522 663 q 694 620 664 640 q 724 573 725 600 q 698 511 722 546 q 644 433 674 476 q 618 388 632 414 q 598 338 604 363 q 596 294 592 314 q 624 264 600 274 q 715 306 674 271 q 778 379 756 342 q 813 466 797 413 q 834 581 828 519 q 836 703 840 642 q 810 815 832 765 q 749 897 789 865 q 646 928 710 928 q 560 917 601 929 q 480 885 518 906 q 408 836 442 864 q 347 778 374 808 q 164 497 232 643 q 79 186 96 350 q 94 60 72 121 q 161 -39 115 0 q 217 -66 186 -61 q 281 -66 249 -71 q 342 -49 313 -61 q 396 -26 372 -37 q 549 51 475 8 q 679 150 622 93 q 694 157 686 157 q 746 131 739 146 q 721 89 753 117 q 605 -1 665 40 q 478 -83 544 -43 q 379 -118 433 -110 q 269 -121 325 -126 q 159 -96 213 -115 q 63 -45 106 -76 q -10 27 19 -14 q -46 118 -39 68 q -45 256 -56 189 q -14 389 -35 322 q 48 545 10 465 q 135 698 86 625 q 244 831 185 771 q 372 932 304 892 q 717 954 536 1032 q 887 825 833 904 q 950 646 940 746 q 922 429 961 533 q 801 254 882 325 q 726 210 764 219 q 653 208 689 200 q 582 235 617 215 q 515 279 547 256 m 593 571 q 520 527 558 557 q 449 460 482 497 q 392 384 417 424 q 360 311 368 344 q 499 429 439 367 q 593 571 558 492 z "},"`":{"ha":460,"x_min":56,"x_max":385,"o":"m 143 1088 q 185 1032 160 1060 q 241 979 211 1004 q 303 935 271 954 q 363 907 335 917 q 373 901 368 906 q 385 890 378 896 q 308 885 353 876 q 218 916 264 893 q 133 972 172 939 q 74 1040 93 1004 q 61 1088 56 1071 q 82 1108 67 1104 q 116 1107 97 1113 q 143 1088 135 1101 z "},"~":{"ha":853,"x_min":11,"x_max":801,"o":"m 11 222 q 85 326 36 275 q 190 413 133 376 q 247 434 217 429 q 306 431 276 439 q 359 406 335 424 q 399 363 383 389 q 433 304 415 335 q 469 251 450 274 q 608 311 547 271 q 728 413 669 351 q 801 386 754 401 q 748 316 786 353 q 662 250 710 279 q 563 205 614 221 q 471 199 511 189 q 411 215 436 206 q 363 249 386 224 q 322 309 342 272 q 290 369 301 346 q 201 304 242 342 q 124 231 160 267 q 98 207 108 214 q 76 200 88 200 q 51 206 65 200 q 11 222 36 213 z "},"!":{"ha":599,"x_min":17,"x_max":551,"o":"m 200 406 q 132 426 146 411 q 126 482 118 440 q 166 630 139 547 q 231 798 193 713 q 315 964 268 883 q 413 1106 361 1044 q 453 1138 429 1125 q 503 1133 476 1151 q 516 1127 510 1131 q 528 1121 522 1124 q 547 1109 542 1113 q 551 1102 551 1106 q 545 1093 550 1099 q 535 1075 540 1088 q 348 749 438 915 q 200 406 258 583 m 106 110 q 73 117 90 113 q 42 129 56 122 q 24 143 32 133 q 17 163 17 153 q 23 209 19 186 q 33 256 26 232 q 46 272 38 268 q 63 276 54 276 q 81 274 72 276 q 96 269 89 271 q 130 257 118 263 q 146 244 142 251 q 147 226 150 238 q 135 197 143 215 q 122 157 128 178 q 106 110 115 136 z "},"":{"ha":410,"x_min":-187,"x_max":347,"o":"m 164 403 q 232 383 218 397 q 238 326 246 368 q 198 179 225 261 q 133 10 171 96 q 49 -155 96 -75 q -49 -297 3 -236 q -89 -330 -65 -317 q -139 -325 -112 -343 q -152 -319 -146 -322 q -164 -312 -158 -315 q -183 -301 -178 -304 q -187 -294 -187 -297 q -181 -285 -186 -290 q -171 -267 -176 -279 q 16 59 -74 -107 q 164 403 106 225 m 258 699 q 291 691 274 696 q 322 679 308 686 q 340 665 332 675 q 347 646 347 656 q 341 599 344 622 q 331 553 338 576 q 318 536 326 540 q 301 532 310 532 q 283 535 292 532 q 268 539 275 538 q 234 551 246 546 q 218 564 222 557 q 217 582 214 571 q 229 611 221 593 q 242 651 236 631 q 258 699 249 672 z "},"#":{"ha":811,"x_min":7,"x_max":725,"o":"m 226 90 q 211 72 221 79 q 178 69 201 65 q 133 97 146 81 q 117 133 119 113 q 119 176 114 153 q 128 224 124 199 l 140 271 l 94 268 q 64 265 75 265 q 44 267 53 264 q 28 280 36 271 q 7 306 19 289 q 20 328 14 319 q 42 342 26 336 q 89 352 58 347 q 175 365 119 357 l 214 461 q 167 461 189 461 q 125 460 146 461 q 71 469 93 456 q 26 511 49 483 q 53 523 42 517 q 76 531 64 529 q 149 537 113 535 q 221 540 185 539 q 251 549 239 542 q 275 572 264 556 q 314 636 294 604 q 357 699 333 668 q 417 740 390 743 q 472 689 443 736 l 394 547 q 440 548 419 549 q 482 547 461 547 q 504 583 493 565 q 525 619 515 600 q 569 588 553 606 q 589 547 586 571 q 653 537 621 540 q 708 519 685 533 q 722 490 719 511 q 714 456 725 468 q 696 444 703 440 q 674 456 689 449 q 624 469 654 464 q 571 475 594 475 q 544 416 557 446 q 515 353 531 386 q 576 351 547 350 q 629 343 606 351 q 669 306 653 333 q 684 263 689 269 q 660 261 679 257 q 565 274 611 272 q 469 279 518 276 q 415 175 442 228 q 358 69 388 122 q 322 90 335 82 q 306 108 310 99 q 303 131 301 117 q 314 167 306 144 q 332 220 322 193 q 356 279 342 247 q 310 281 332 281 q 265 281 289 281 q 240 215 249 243 q 228 164 232 186 q 225 124 225 142 q 226 90 225 107 m 442 468 q 396 474 413 472 q 369 470 379 475 q 351 453 358 465 q 332 418 343 440 l 307 367 q 340 365 315 364 q 392 367 365 365 l 442 468 z "},"^":{"ha":631,"x_min":50,"x_max":550,"o":"m 50 722 q 67 744 60 733 q 82 763 74 754 q 219 894 147 832 q 365 1015 290 957 q 400 1044 383 1029 q 432 1074 417 1058 q 481 1082 453 1096 q 526 1058 511 1067 q 546 1039 542 1049 q 544 1015 550 1029 q 526 975 539 1000 q 494 910 510 943 q 464 843 478 876 q 435 769 449 807 q 425 690 421 731 q 376 701 396 694 q 346 719 357 708 q 331 745 335 729 q 328 785 326 761 q 335 830 331 807 q 344 883 339 853 q 303 850 321 864 q 271 821 286 836 q 213 770 242 796 q 157 721 185 744 q 130 702 140 708 q 109 696 119 696 q 85 703 99 696 q 50 722 71 710 z "},"*":{"ha":524,"x_min":15,"x_max":429,"o":"m 203 692 q 169 710 181 700 q 155 733 158 719 q 154 764 151 746 q 164 806 157 782 q 110 775 143 794 q 53 743 78 756 q 30 767 42 750 q 15 799 18 783 q 92 843 51 822 q 178 894 133 864 q 128 953 154 926 q 83 1021 103 981 q 123 1014 107 1022 q 151 993 139 1006 q 176 967 164 981 q 203 944 188 953 l 253 1032 q 281 1072 268 1058 q 306 1087 293 1086 q 333 1075 318 1088 q 368 1038 347 1063 q 355 1013 361 1026 q 342 988 349 1000 q 330 962 336 975 q 317 932 324 949 q 369 930 344 933 q 410 892 394 926 q 355 872 382 881 q 300 851 328 863 q 328 822 311 833 q 364 799 346 810 q 399 776 382 789 q 429 743 417 764 q 380 753 401 744 q 338 775 358 763 q 299 801 318 788 q 258 825 279 814 q 231 759 244 792 q 203 692 218 726 z "},"?":{"ha":761,"x_min":-8,"x_max":710,"o":"m 139 286 q 69 322 85 293 q 78 399 53 351 q 185 563 125 488 q 311 706 246 638 q 445 838 376 774 q 578 969 514 903 q 601 997 590 983 q 622 1024 611 1010 q 495 1026 569 1039 q 349 980 421 1013 q 217 901 276 947 q 136 807 158 856 q 162 790 149 799 q 189 769 175 781 q 131 754 154 751 q 69 782 107 757 q 44 830 42 801 q 66 886 47 858 q 110 938 85 914 q 150 972 135 961 q 226 1016 181 993 q 322 1058 271 1039 q 426 1088 372 1076 q 531 1101 481 1100 q 623 1088 581 1101 q 693 1042 665 1074 q 710 999 710 1021 q 701 957 710 978 q 676 917 692 936 q 646 883 661 899 q 509 743 579 814 q 372 599 439 672 q 244 449 304 526 q 139 286 185 371 m 78 89 q 10 110 29 82 q 13 174 -8 139 q 38 194 18 188 q 83 189 58 200 q 105 169 101 182 q 104 140 108 156 q 92 111 100 125 q 78 89 83 97 z "},"":{"ha":738,"x_min":26,"x_max":664,"o":"m 618 718 q 572 726 589 721 q 546 744 556 731 q 532 784 536 758 q 524 854 528 810 q 478 835 501 846 q 432 825 456 825 q 388 838 411 826 q 340 860 365 849 q 320 797 329 828 q 300 736 311 767 q 249 753 258 742 q 246 803 239 764 q 280 908 257 858 q 326 1007 303 958 q 367 994 351 1000 q 391 978 382 989 q 405 948 400 967 q 415 897 410 929 q 465 930 443 910 q 507 974 488 950 q 544 1024 526 999 q 578 1071 561 1049 q 610 1053 594 1061 q 639 1036 626 1046 q 658 1012 651 1026 q 660 975 664 997 q 639 844 649 907 q 618 718 629 781 m 394 1031 q 322 1025 354 1028 q 257 1021 289 1022 q 240 951 249 988 q 223 876 232 914 q 206 802 214 839 q 189 735 197 765 q 137 753 149 742 q 129 803 125 765 q 136 849 132 824 q 144 902 140 875 q 153 956 149 929 q 163 1004 158 982 q 128 1008 146 1008 q 92 1011 110 1008 q 58 1022 75 1014 q 26 1051 40 1031 q 48 1060 38 1056 q 68 1067 58 1065 q 178 1074 122 1071 q 289 1081 233 1078 q 350 1067 325 1083 q 394 1031 375 1051 z "},":":{"ha":392,"x_min":65,"x_max":278,"o":"m 132 557 q 155 613 138 597 q 211 615 172 629 q 218 613 215 614 q 226 610 221 613 q 268 586 258 599 q 271 551 278 574 q 260 528 268 539 q 240 511 251 518 q 215 501 228 504 q 190 501 203 499 q 142 520 154 508 q 132 557 131 532 m 200 249 q 188 216 200 232 q 160 196 175 200 q 150 194 157 194 q 85 205 104 192 q 72 254 65 218 q 99 292 78 283 q 144 297 121 301 q 184 279 167 293 q 200 249 201 265 z "},";":{"ha":392,"x_min":49,"x_max":278,"o":"m 49 122 q 55 165 51 144 q 63 207 58 186 q 79 268 71 239 q 97 326 88 297 q 116 354 107 350 q 147 350 125 358 q 192 324 183 338 q 189 272 200 310 q 168 208 179 239 q 146 144 157 176 q 122 104 133 110 q 75 110 110 99 q 65 115 69 113 q 49 122 60 118 m 132 557 q 155 613 138 597 q 211 615 172 629 q 218 613 215 614 q 226 610 221 613 q 268 586 258 599 q 271 551 278 574 q 260 528 268 539 q 240 511 251 518 q 215 501 228 504 q 190 501 203 499 q 142 520 154 508 q 132 557 131 532 z "},",":{"ha":322,"x_min":28,"x_max":214,"o":"m 119 231 q 142 244 128 240 q 172 247 157 249 q 198 240 186 246 q 214 225 210 235 q 210 210 214 218 q 201 194 206 201 q 171 147 183 165 q 147 113 158 129 q 122 79 135 97 q 90 35 110 61 q 72 41 81 39 q 53 46 63 43 q 31 78 28 54 q 49 132 33 103 q 87 189 65 161 q 119 231 108 217 z "},".":{"ha":274,"x_min":38,"x_max":174,"o":"m 172 146 q 160 113 172 129 q 132 93 147 97 q 122 92 129 92 q 57 102 76 89 q 44 151 38 115 q 72 190 50 181 q 116 194 93 199 q 156 176 139 190 q 172 146 174 163 z "},"'":{"ha":354,"x_min":88,"x_max":240,"o":"m 138 1029 q 108 1047 119 1042 q 88 1088 89 1065 q 97 1132 88 1110 q 121 1176 106 1154 q 147 1215 136 1197 q 167 1239 156 1229 q 199 1238 179 1249 q 231 1204 222 1225 q 229 1163 240 1183 q 187 1093 214 1125 q 138 1029 160 1061 z "},"\"":{"ha":460,"x_min":67,"x_max":385,"o":"m 117 1029 q 88 1047 99 1042 q 67 1088 68 1065 q 76 1132 67 1110 q 100 1176 85 1154 q 126 1215 115 1197 q 147 1239 135 1229 q 178 1238 158 1249 q 210 1204 201 1225 q 208 1163 219 1183 q 166 1093 193 1125 q 117 1029 139 1061 m 282 1029 q 253 1047 264 1042 q 233 1088 233 1065 q 241 1132 232 1110 q 265 1176 250 1154 q 292 1215 281 1197 q 312 1239 300 1229 q 343 1238 324 1249 q 376 1204 367 1225 q 374 1163 385 1183 q 331 1093 358 1125 q 282 1029 304 1061 z "},"":{"ha":596,"x_min":38,"x_max":539,"o":"m 172 146 q 160 113 172 129 q 132 93 147 97 q 122 92 129 92 q 57 102 76 89 q 44 151 38 115 q 72 190 50 181 q 116 194 93 199 q 156 176 139 190 q 172 146 174 163 m 358 146 q 346 113 358 129 q 318 93 333 97 q 308 92 315 92 q 243 102 263 89 q 231 151 224 115 q 258 190 236 181 q 302 194 279 199 q 342 176 325 190 q 358 146 360 163 m 538 146 q 525 113 538 129 q 497 93 513 97 q 488 92 494 92 q 422 102 442 89 q 410 151 403 115 q 437 190 415 181 q 481 194 458 199 q 522 176 504 190 q 538 146 539 163 z "},"":{"ha":322,"x_min":28,"x_max":214,"o":"m 119 231 q 142 244 128 240 q 172 247 157 249 q 198 240 186 246 q 214 225 210 235 q 210 210 214 218 q 201 194 206 201 q 171 147 183 165 q 147 113 158 129 q 122 79 135 97 q 90 35 110 61 q 72 41 81 39 q 53 46 63 43 q 31 78 28 54 q 49 132 33 103 q 87 189 65 161 q 119 231 108 217 z "},"":{"ha":489,"x_min":28,"x_max":392,"o":"m 119 231 q 142 244 128 240 q 172 247 157 249 q 198 240 186 246 q 214 225 210 235 q 210 210 214 218 q 201 194 206 201 q 171 147 183 165 q 147 113 158 129 q 122 79 135 97 q 90 35 110 61 q 72 41 81 39 q 53 46 63 43 q 31 78 28 54 q 49 132 33 103 q 87 189 65 161 q 119 231 108 217 m 297 231 q 320 244 306 240 q 349 247 335 249 q 376 240 364 246 q 392 225 388 235 q 388 210 392 218 q 379 194 383 201 q 349 147 361 165 q 324 113 336 129 q 300 79 313 97 q 268 35 288 61 q 249 41 258 39 q 231 46 240 43 q 208 78 206 54 q 227 132 211 103 q 265 189 243 161 q 297 231 286 217 z "},"":{"ha":431,"x_min":42,"x_max":364,"o":"m 42 854 q 53 867 49 861 q 63 879 57 874 q 150 965 104 924 q 244 1043 196 1006 q 266 1061 256 1051 q 288 1081 276 1071 q 319 1085 301 1094 q 349 1069 339 1075 q 361 1056 358 1063 q 360 1042 364 1050 q 349 1017 357 1033 q 327 974 338 996 q 308 932 317 953 q 289 884 297 908 q 283 833 281 860 q 232 852 244 840 q 221 894 219 864 q 226 923 224 908 q 232 957 228 938 q 206 936 217 946 q 183 917 194 926 q 147 885 164 901 q 111 853 129 868 q 79 837 90 836 q 42 854 68 838 z "},"":{"ha":372,"x_min":38,"x_max":281,"o":"m 146 946 q 135 911 146 928 q 114 890 125 894 q 106 889 111 889 q 53 900 69 886 q 43 951 38 914 q 65 991 49 982 q 101 996 82 1000 q 133 978 119 992 q 146 946 147 964 m 279 946 q 269 911 279 928 q 247 890 258 894 q 239 889 244 889 q 187 900 203 886 q 176 951 171 914 q 199 991 182 982 q 234 996 215 1000 q 267 978 253 992 q 279 946 281 964 z "},"":{"ha":488,"x_min":29,"x_max":429,"o":"m 29 861 q 78 938 49 900 q 140 1003 108 975 q 197 1017 169 1029 q 233 965 225 1006 q 241 921 238 943 q 251 882 244 899 q 326 927 292 897 q 397 1003 361 957 q 411 993 404 997 q 429 982 418 989 q 394 931 418 958 q 344 882 371 904 q 292 849 318 860 q 247 844 265 838 q 219 856 231 850 q 201 881 208 861 q 190 926 194 897 q 182 971 185 954 q 131 923 156 951 q 82 867 106 894 q 57 844 64 843 q 29 861 50 846 z "},"":{"ha":332,"x_min":33,"x_max":249,"o":"m 161 1032 q 159 1047 160 1039 q 157 1065 158 1054 q 201 1042 192 1065 q 223 1002 213 1022 q 240 961 233 982 q 243 917 249 936 q 217 879 238 899 q 191 858 204 867 q 165 838 178 849 q 105 819 132 817 q 51 836 78 821 q 38 875 33 847 q 69 957 46 921 q 128 1022 92 993 q 143 1028 135 1028 q 161 1032 151 1029 m 176 992 q 151 972 164 988 q 128 938 139 957 q 109 899 117 919 q 100 863 101 879 q 110 864 108 863 q 124 871 117 867 q 138 878 132 875 q 188 927 179 903 q 176 992 196 951 z "},"":{"ha":460,"x_min":25,"x_max":354,"o":"m 267 1088 q 294 1107 275 1101 q 328 1108 313 1113 q 349 1088 343 1104 q 336 1040 354 1071 q 277 972 317 1004 q 192 916 238 939 q 101 885 146 893 q 25 890 56 876 q 37 901 32 896 q 47 907 42 906 q 107 935 75 917 q 169 979 139 954 q 224 1032 199 1004 q 267 1088 250 1060 z "},"":{"ha":460,"x_min":67,"x_max":385,"o":"m 117 1029 q 88 1047 99 1042 q 67 1088 68 1065 q 76 1132 67 1110 q 100 1176 85 1154 q 126 1215 115 1197 q 147 1239 135 1229 q 178 1238 158 1249 q 210 1204 201 1225 q 208 1163 219 1183 q 166 1093 193 1125 q 117 1029 139 1061 m 282 1029 q 253 1047 264 1042 q 233 1088 233 1065 q 241 1132 232 1110 q 265 1176 250 1154 q 292 1215 281 1197 q 312 1239 300 1229 q 343 1238 324 1249 q 376 1204 367 1225 q 374 1163 385 1183 q 331 1093 358 1125 q 282 1029 304 1061 z "},"":{"ha":460,"x_min":38,"x_max":356,"o":"m 306 1029 q 256 1093 283 1061 q 214 1163 229 1125 q 212 1204 203 1183 q 244 1238 221 1225 q 276 1239 264 1249 q 296 1215 288 1229 q 322 1176 307 1197 q 347 1132 338 1154 q 355 1088 356 1110 q 335 1047 354 1065 q 322 1040 328 1044 q 306 1029 317 1036 m 140 1029 q 91 1093 118 1061 q 49 1163 64 1125 q 47 1204 38 1183 q 79 1238 56 1225 q 110 1239 99 1249 q 131 1215 122 1229 q 157 1176 142 1197 q 181 1132 172 1154 q 190 1088 190 1110 q 169 1047 189 1065 q 157 1040 163 1044 q 140 1029 151 1036 z "},"":{"ha":307,"x_min":67,"x_max":219,"o":"m 117 1029 q 88 1047 99 1042 q 67 1088 68 1065 q 76 1132 67 1110 q 100 1176 85 1154 q 126 1215 115 1197 q 147 1239 135 1229 q 178 1238 158 1249 q 210 1204 201 1225 q 208 1163 219 1183 q 166 1093 193 1125 q 117 1029 139 1061 z "},"":{"ha":307,"x_min":38,"x_max":190,"o":"m 140 1029 q 91 1093 118 1061 q 49 1163 64 1125 q 47 1204 38 1183 q 79 1238 56 1225 q 110 1239 99 1249 q 131 1215 122 1229 q 157 1176 142 1197 q 181 1132 172 1154 q 190 1088 190 1110 q 169 1047 189 1065 q 157 1040 163 1044 q 140 1029 151 1036 z "},"":{"ha":1310,"x_min":-11,"x_max":1228,"o":"m 268 19 q 193 21 219 10 q 157 55 167 32 q 151 109 147 78 q 167 174 154 140 q 373 550 247 375 q 681 867 499 725 q 524 869 601 876 q 367 851 447 863 q 377 833 374 840 q 385 818 381 825 q 382 663 429 742 q 316 582 354 618 q 228 519 278 546 q 164 499 196 503 q 97 513 132 496 q 85 517 90 515 q 72 522 79 519 q 3 568 18 544 q 4 643 -11 592 q 164 911 44 790 q 176 922 169 917 q 189 932 183 926 q 271 970 236 968 q 354 938 306 972 q 440 924 396 926 q 528 924 483 922 q 618 928 574 926 q 706 929 663 931 q 756 920 733 929 q 803 897 779 911 q 826 874 824 885 q 813 843 828 863 q 768 799 793 818 q 603 623 686 714 q 451 435 521 532 q 331 234 381 338 q 268 19 282 131 m 131 590 q 213 635 174 608 q 276 695 253 661 q 301 769 300 729 q 268 854 301 810 q 183 729 215 793 q 131 590 151 665 m 594 308 q 584 331 590 319 q 571 360 578 343 q 631 351 606 358 q 674 325 657 343 q 732 265 704 296 q 785 203 760 235 q 806 140 811 167 q 768 83 801 113 q 726 51 749 65 q 679 22 703 38 q 565 -7 621 -10 q 451 19 510 -4 q 407 76 410 35 q 529 294 406 210 q 558 303 540 301 q 594 308 576 304 m 642 250 q 600 221 621 243 q 565 171 579 199 q 542 113 550 143 q 539 60 535 83 q 558 61 553 60 q 584 71 571 65 q 610 82 597 76 q 690 154 683 118 q 642 250 697 190 m 1011 308 q 1001 331 1007 319 q 988 360 994 343 q 1048 351 1022 358 q 1090 325 1074 343 q 1149 265 1121 296 q 1201 203 1176 235 q 1223 140 1228 167 q 1185 83 1218 113 q 1142 51 1165 65 q 1096 22 1119 38 q 982 -7 1038 -10 q 868 19 926 -4 q 824 76 826 35 q 946 294 822 210 q 975 303 957 301 q 1011 308 993 304 m 1058 250 q 1017 221 1038 243 q 981 171 996 199 q 959 113 967 143 q 956 60 951 83 q 975 61 969 60 q 1001 71 988 65 q 1026 82 1014 76 q 1107 154 1100 118 q 1058 250 1114 190 z "},"":{"ha":949,"x_min":-17,"x_max":1169,"o":"m 700 508 q 779 497 740 501 q 857 490 818 493 q 889 481 878 486 q 906 468 900 476 q 915 446 913 460 q 917 408 917 432 q 793 414 854 411 q 672 422 732 417 q 663 413 663 413 q 613 294 636 356 q 569 171 589 232 q 537 49 550 110 q 519 -67 524 -11 q 483 -67 500 -69 q 401 -30 428 -61 q 369 47 375 1 q 373 147 363 93 q 399 253 383 201 q 434 351 415 306 q 464 424 453 396 q 375 424 418 424 q 290 422 332 424 q 271 416 281 422 q 258 403 261 410 q 213 344 235 374 q 169 283 192 314 q 150 256 161 274 q 130 217 139 238 q 117 178 121 197 q 122 150 114 160 q 101 149 113 144 q 78 164 89 153 q 60 222 53 186 q 87 295 67 258 q 133 365 107 332 q 171 414 158 397 q 95 411 126 414 q 35 404 64 408 q 12 408 21 404 q -3 428 3 413 q -12 471 -17 458 q 26 492 -8 483 q 125 505 75 499 q 224 514 175 511 q 260 523 244 517 q 289 544 275 529 q 417 679 349 610 q 558 817 486 749 q 704 949 631 885 q 847 1067 778 1013 q 870 1085 860 1075 q 896 1086 881 1094 q 928 1062 914 1075 q 954 1033 943 1049 q 956 1019 957 1029 q 951 1001 954 1008 q 888 876 922 939 q 821 749 854 813 q 756 625 788 686 q 700 508 725 564 m 504 519 q 544 593 522 553 q 590 674 567 633 q 637 755 614 715 q 679 826 660 794 q 598 760 639 797 q 517 681 557 722 q 437 599 476 640 q 361 519 397 557 l 504 519 m 928 1365 q 970 1310 944 1338 q 1026 1257 996 1282 q 1088 1213 1056 1232 q 1147 1185 1119 1194 q 1158 1178 1153 1183 q 1169 1168 1163 1174 q 1093 1163 1138 1154 q 1003 1194 1049 1171 q 917 1249 957 1217 q 858 1318 878 1282 q 846 1365 840 1349 q 867 1386 851 1382 q 901 1385 882 1390 q 928 1365 919 1379 z "},"":{"ha":949,"x_min":-17,"x_max":1129,"o":"m 700 508 q 779 497 740 501 q 857 490 818 493 q 889 481 878 486 q 906 468 900 476 q 915 446 913 460 q 917 408 917 432 q 793 414 854 411 q 672 422 732 417 q 663 413 663 413 q 613 294 636 356 q 569 171 589 232 q 537 49 550 110 q 519 -67 524 -11 q 483 -67 500 -69 q 401 -30 428 -61 q 369 47 375 1 q 373 147 363 93 q 399 253 383 201 q 434 351 415 306 q 464 424 453 396 q 375 424 418 424 q 290 422 332 424 q 271 416 281 422 q 258 403 261 410 q 213 344 235 374 q 169 283 192 314 q 150 256 161 274 q 130 217 139 238 q 117 178 121 197 q 122 150 114 160 q 101 149 113 144 q 78 164 89 153 q 60 222 53 186 q 87 295 67 258 q 133 365 107 332 q 171 414 158 397 q 95 411 126 414 q 35 404 64 408 q 12 408 21 404 q -3 428 3 413 q -12 471 -17 458 q 26 492 -8 483 q 125 505 75 499 q 224 514 175 511 q 260 523 244 517 q 289 544 275 529 q 417 679 349 610 q 558 817 486 749 q 704 949 631 885 q 847 1067 778 1013 q 870 1085 860 1075 q 896 1086 881 1094 q 928 1062 914 1075 q 954 1033 943 1049 q 956 1019 957 1029 q 951 1001 954 1008 q 888 876 922 939 q 821 749 854 813 q 756 625 788 686 q 700 508 725 564 m 504 519 q 544 593 522 553 q 590 674 567 633 q 637 755 614 715 q 679 826 660 794 q 598 760 639 797 q 517 681 557 722 q 437 599 476 640 q 361 519 397 557 l 504 519 m 1042 1342 q 1069 1361 1050 1356 q 1103 1363 1088 1367 q 1124 1342 1118 1358 q 1111 1294 1129 1325 q 1052 1226 1092 1258 q 967 1170 1013 1193 q 876 1139 921 1147 q 800 1144 831 1131 q 812 1155 807 1150 q 822 1161 817 1160 q 882 1190 850 1171 q 944 1233 914 1208 q 999 1286 974 1258 q 1042 1342 1025 1314 z "},"":{"ha":949,"x_min":-17,"x_max":1132,"o":"m 700 508 q 779 497 740 501 q 857 490 818 493 q 889 481 878 486 q 906 468 900 476 q 915 446 913 460 q 917 408 917 432 q 793 414 854 411 q 672 422 732 417 q 663 413 663 413 q 613 294 636 356 q 569 171 589 232 q 537 49 550 110 q 519 -67 524 -11 q 483 -67 500 -69 q 401 -30 428 -61 q 369 47 375 1 q 373 147 363 93 q 399 253 383 201 q 434 351 415 306 q 464 424 453 396 q 375 424 418 424 q 290 422 332 424 q 271 416 281 422 q 258 403 261 410 q 213 344 235 374 q 169 283 192 314 q 150 256 161 274 q 130 217 139 238 q 117 178 121 197 q 122 150 114 160 q 101 149 113 144 q 78 164 89 153 q 60 222 53 186 q 87 295 67 258 q 133 365 107 332 q 171 414 158 397 q 95 411 126 414 q 35 404 64 408 q 12 408 21 404 q -3 428 3 413 q -12 471 -17 458 q 26 492 -8 483 q 125 505 75 499 q 224 514 175 511 q 260 523 244 517 q 289 544 275 529 q 417 679 349 610 q 558 817 486 749 q 704 949 631 885 q 847 1067 778 1013 q 870 1085 860 1075 q 896 1086 881 1094 q 928 1062 914 1075 q 954 1033 943 1049 q 956 1019 957 1029 q 951 1001 954 1008 q 888 876 922 939 q 821 749 854 813 q 756 625 788 686 q 700 508 725 564 m 504 519 q 544 593 522 553 q 590 674 567 633 q 637 755 614 715 q 679 826 660 794 q 598 760 639 797 q 517 681 557 722 q 437 599 476 640 q 361 519 397 557 l 504 519 m 810 1132 q 821 1145 817 1139 q 831 1157 825 1151 q 918 1242 872 1201 q 1013 1321 964 1283 q 1034 1339 1024 1329 q 1056 1358 1044 1349 q 1088 1363 1069 1372 q 1117 1347 1107 1353 q 1129 1334 1126 1340 q 1128 1319 1132 1328 q 1117 1294 1125 1311 q 1095 1252 1106 1274 q 1076 1210 1085 1231 q 1057 1162 1065 1186 q 1051 1111 1049 1138 q 1000 1130 1013 1118 q 989 1172 988 1142 q 994 1201 992 1186 q 1000 1235 996 1215 q 974 1214 985 1224 q 951 1194 963 1204 q 915 1163 932 1179 q 879 1131 897 1146 q 847 1115 858 1114 q 810 1132 836 1115 z "},"":{"ha":949,"x_min":-17,"x_max":1165,"o":"m 700 508 q 779 497 740 501 q 857 490 818 493 q 889 481 878 486 q 906 468 900 476 q 915 446 913 460 q 917 408 917 432 q 793 414 854 411 q 672 422 732 417 q 663 413 663 413 q 613 294 636 356 q 569 171 589 232 q 537 49 550 110 q 519 -67 524 -11 q 483 -67 500 -69 q 401 -30 428 -61 q 369 47 375 1 q 373 147 363 93 q 399 253 383 201 q 434 351 415 306 q 464 424 453 396 q 375 424 418 424 q 290 422 332 424 q 271 416 281 422 q 258 403 261 410 q 213 344 235 374 q 169 283 192 314 q 150 256 161 274 q 130 217 139 238 q 117 178 121 197 q 122 150 114 160 q 101 149 113 144 q 78 164 89 153 q 60 222 53 186 q 87 295 67 258 q 133 365 107 332 q 171 414 158 397 q 95 411 126 414 q 35 404 64 408 q 12 408 21 404 q -3 428 3 413 q -12 471 -17 458 q 26 492 -8 483 q 125 505 75 499 q 224 514 175 511 q 260 523 244 517 q 289 544 275 529 q 417 679 349 610 q 558 817 486 749 q 704 949 631 885 q 847 1067 778 1013 q 870 1085 860 1075 q 896 1086 881 1094 q 928 1062 914 1075 q 954 1033 943 1049 q 956 1019 957 1029 q 951 1001 954 1008 q 888 876 922 939 q 821 749 854 813 q 756 625 788 686 q 700 508 725 564 m 504 519 q 544 593 522 553 q 590 674 567 633 q 637 755 614 715 q 679 826 660 794 q 598 760 639 797 q 517 681 557 722 q 437 599 476 640 q 361 519 397 557 l 504 519 m 765 1139 q 815 1215 785 1178 q 876 1281 844 1253 q 933 1295 906 1307 q 969 1243 961 1283 q 977 1199 974 1221 q 988 1160 981 1176 q 1063 1205 1028 1175 q 1133 1281 1097 1235 q 1147 1271 1140 1275 q 1165 1260 1154 1267 q 1131 1209 1154 1236 q 1081 1160 1107 1182 q 1028 1126 1054 1138 q 983 1122 1001 1115 q 956 1133 967 1128 q 938 1158 944 1139 q 926 1203 931 1175 q 918 1249 921 1232 q 867 1201 892 1229 q 818 1144 842 1172 q 793 1122 800 1121 q 765 1139 786 1124 z "},"":{"ha":949,"x_min":-17,"x_max":1107,"o":"m 700 508 q 779 497 740 501 q 857 490 818 493 q 889 481 878 486 q 906 468 900 476 q 915 446 913 460 q 917 408 917 432 q 793 414 854 411 q 672 422 732 417 q 663 413 663 413 q 613 294 636 356 q 569 171 589 232 q 537 49 550 110 q 519 -67 524 -11 q 483 -67 500 -69 q 401 -30 428 -61 q 369 47 375 1 q 373 147 363 93 q 399 253 383 201 q 434 351 415 306 q 464 424 453 396 q 375 424 418 424 q 290 422 332 424 q 271 416 281 422 q 258 403 261 410 q 213 344 235 374 q 169 283 192 314 q 150 256 161 274 q 130 217 139 238 q 117 178 121 197 q 122 150 114 160 q 101 149 113 144 q 78 164 89 153 q 60 222 53 186 q 87 295 67 258 q 133 365 107 332 q 171 414 158 397 q 95 411 126 414 q 35 404 64 408 q 12 408 21 404 q -3 428 3 413 q -12 471 -17 458 q 26 492 -8 483 q 125 505 75 499 q 224 514 175 511 q 260 523 244 517 q 289 544 275 529 q 417 679 349 610 q 558 817 486 749 q 704 949 631 885 q 847 1067 778 1013 q 870 1085 860 1075 q 896 1086 881 1094 q 928 1062 914 1075 q 954 1033 943 1049 q 956 1019 957 1029 q 951 1001 954 1008 q 888 876 922 939 q 821 749 854 813 q 756 625 788 686 q 700 508 725 564 m 504 519 q 544 593 522 553 q 590 674 567 633 q 637 755 614 715 q 679 826 660 794 q 598 760 639 797 q 517 681 557 722 q 437 599 476 640 q 361 519 397 557 l 504 519 m 972 1224 q 962 1189 972 1206 q 940 1168 951 1172 q 932 1167 938 1167 q 880 1178 896 1164 q 869 1229 864 1192 q 892 1269 875 1260 q 927 1274 908 1278 q 960 1256 946 1269 q 972 1224 974 1242 m 1106 1224 q 1095 1189 1106 1206 q 1074 1168 1085 1172 q 1065 1167 1071 1167 q 1013 1178 1029 1164 q 1003 1229 997 1192 q 1025 1269 1008 1260 q 1060 1274 1042 1278 q 1093 1256 1079 1269 q 1106 1224 1107 1242 z "},"":{"ha":949,"x_min":-17,"x_max":1128,"o":"m 700 508 q 779 497 740 501 q 857 490 818 493 q 889 481 878 486 q 906 468 900 476 q 915 446 913 460 q 917 408 917 432 q 793 414 854 411 q 672 422 732 417 q 663 413 663 413 q 613 294 636 356 q 569 171 589 232 q 537 49 550 110 q 519 -67 524 -11 q 483 -67 500 -69 q 401 -30 428 -61 q 369 47 375 1 q 373 147 363 93 q 399 253 383 201 q 434 351 415 306 q 464 424 453 396 q 375 424 418 424 q 290 422 332 424 q 271 416 281 422 q 258 403 261 410 q 213 344 235 374 q 169 283 192 314 q 150 256 161 274 q 130 217 139 238 q 117 178 121 197 q 122 150 114 160 q 101 149 113 144 q 78 164 89 153 q 60 222 53 186 q 87 295 67 258 q 133 365 107 332 q 171 414 158 397 q 95 411 126 414 q 35 404 64 408 q 12 408 21 404 q -3 428 3 413 q -12 471 -17 458 q 26 492 -8 483 q 125 505 75 499 q 224 514 175 511 q 260 523 244 517 q 289 544 275 529 q 417 679 349 610 q 558 817 486 749 q 704 949 631 885 q 847 1067 778 1013 q 870 1085 860 1075 q 896 1086 881 1094 q 928 1062 914 1075 q 954 1033 943 1049 q 956 1019 957 1029 q 951 1001 954 1008 q 888 876 922 939 q 821 749 854 813 q 756 625 788 686 q 700 508 725 564 m 504 519 q 544 593 522 553 q 590 674 567 633 q 637 755 614 715 q 679 826 660 794 q 598 760 639 797 q 517 681 557 722 q 437 599 476 640 q 361 519 397 557 l 504 519 m 1040 1364 q 1038 1378 1039 1371 q 1036 1397 1038 1386 q 1081 1374 1071 1397 q 1102 1334 1092 1354 q 1119 1293 1113 1314 q 1122 1249 1128 1268 q 1096 1211 1117 1231 q 1070 1190 1083 1199 q 1044 1169 1057 1181 q 984 1151 1011 1149 q 931 1168 957 1153 q 917 1207 913 1179 q 948 1289 925 1253 q 1007 1354 971 1325 q 1022 1360 1014 1360 q 1040 1364 1031 1361 m 1056 1324 q 1031 1304 1043 1319 q 1007 1270 1018 1289 q 988 1231 996 1251 q 979 1194 981 1211 q 989 1196 988 1194 q 1003 1203 996 1199 q 1017 1210 1011 1207 q 1067 1259 1058 1235 q 1056 1324 1075 1283 z "},"":{"ha":968,"x_min":-8,"x_max":1528,"o":"m 624 632 q 749 640 689 635 q 867 650 808 644 q 888 651 881 651 q 901 648 896 651 q 910 637 906 644 q 921 615 914 629 q 735 588 826 599 q 553 564 644 578 q 504 544 522 557 q 390 442 454 500 q 266 320 325 383 q 162 192 207 257 q 104 72 117 128 q 291 97 201 75 q 463 153 381 119 q 617 229 544 188 q 756 312 690 271 q 876 389 821 353 q 979 447 932 425 q 994 431 986 439 q 1013 414 1003 424 q 799 275 894 340 q 612 156 704 210 q 419 60 519 101 q 189 -8 318 18 q 128 -6 157 -15 q 74 19 99 3 q 22 66 40 44 q -3 110 3 88 q -2 159 -8 133 q 21 217 4 185 q 98 328 53 276 q 193 433 143 381 q 230 469 213 451 q 271 511 247 488 q 165 483 213 499 q 72 449 117 467 q 38 488 42 472 q 71 515 35 503 q 196 553 133 535 q 322 582 258 571 q 365 596 346 588 q 403 618 383 604 q 541 725 469 674 q 676 838 613 776 q 463 776 569 806 q 250 715 357 747 q 219 706 231 708 q 200 707 208 704 q 184 719 192 710 q 164 746 176 728 q 349 837 247 794 q 560 914 450 879 q 788 976 671 949 q 1019 1022 904 1003 q 1242 1050 1133 1040 q 1444 1060 1350 1060 q 1475 1052 1460 1060 q 1502 1033 1490 1044 q 1521 1008 1514 1021 q 1526 982 1528 994 q 1517 969 1525 975 q 1501 963 1508 963 q 1222 940 1360 960 q 951 886 1085 921 q 784 763 871 824 q 624 632 697 701 m 981 1365 q 1023 1310 997 1338 q 1078 1257 1049 1282 q 1140 1213 1108 1232 q 1200 1185 1172 1194 q 1210 1178 1206 1183 q 1222 1168 1215 1174 q 1146 1163 1190 1154 q 1056 1194 1101 1171 q 970 1249 1010 1217 q 911 1318 931 1282 q 899 1365 893 1349 q 919 1386 904 1382 q 953 1385 935 1390 q 981 1365 972 1379 z "},"":{"ha":968,"x_min":-8,"x_max":1528,"o":"m 624 632 q 749 640 689 635 q 867 650 808 644 q 888 651 881 651 q 901 648 896 651 q 910 637 906 644 q 921 615 914 629 q 735 588 826 599 q 553 564 644 578 q 504 544 522 557 q 390 442 454 500 q 266 320 325 383 q 162 192 207 257 q 104 72 117 128 q 291 97 201 75 q 463 153 381 119 q 617 229 544 188 q 756 312 690 271 q 876 389 821 353 q 979 447 932 425 q 994 431 986 439 q 1013 414 1003 424 q 799 275 894 340 q 612 156 704 210 q 419 60 519 101 q 189 -8 318 18 q 128 -6 157 -15 q 74 19 99 3 q 22 66 40 44 q -3 110 3 88 q -2 159 -8 133 q 21 217 4 185 q 98 328 53 276 q 193 433 143 381 q 230 469 213 451 q 271 511 247 488 q 165 483 213 499 q 72 449 117 467 q 38 488 42 472 q 71 515 35 503 q 196 553 133 535 q 322 582 258 571 q 365 596 346 588 q 403 618 383 604 q 541 725 469 674 q 676 838 613 776 q 463 776 569 806 q 250 715 357 747 q 219 706 231 708 q 200 707 208 704 q 184 719 192 710 q 164 746 176 728 q 349 837 247 794 q 560 914 450 879 q 788 976 671 949 q 1019 1022 904 1003 q 1242 1050 1133 1040 q 1444 1060 1350 1060 q 1475 1052 1460 1060 q 1502 1033 1490 1044 q 1521 1008 1514 1021 q 1526 982 1528 994 q 1517 969 1525 975 q 1501 963 1508 963 q 1222 940 1360 960 q 951 886 1085 921 q 784 763 871 824 q 624 632 697 701 m 1157 1365 q 1184 1385 1165 1379 q 1218 1386 1203 1390 q 1239 1365 1233 1382 q 1226 1318 1244 1349 q 1167 1249 1207 1282 q 1082 1194 1128 1217 q 991 1163 1036 1171 q 915 1168 946 1154 q 927 1178 922 1174 q 938 1185 932 1183 q 997 1213 965 1194 q 1059 1257 1029 1232 q 1115 1310 1089 1282 q 1157 1365 1140 1338 z "},"":{"ha":968,"x_min":-8,"x_max":1528,"o":"m 624 632 q 749 640 689 635 q 867 650 808 644 q 888 651 881 651 q 901 648 896 651 q 910 637 906 644 q 921 615 914 629 q 735 588 826 599 q 553 564 644 578 q 504 544 522 557 q 390 442 454 500 q 266 320 325 383 q 162 192 207 257 q 104 72 117 128 q 291 97 201 75 q 463 153 381 119 q 617 229 544 188 q 756 312 690 271 q 876 389 821 353 q 979 447 932 425 q 994 431 986 439 q 1013 414 1003 424 q 799 275 894 340 q 612 156 704 210 q 419 60 519 101 q 189 -8 318 18 q 128 -6 157 -15 q 74 19 99 3 q 22 66 40 44 q -3 110 3 88 q -2 159 -8 133 q 21 217 4 185 q 98 328 53 276 q 193 433 143 381 q 230 469 213 451 q 271 511 247 488 q 165 483 213 499 q 72 449 117 467 q 38 488 42 472 q 71 515 35 503 q 196 553 133 535 q 322 582 258 571 q 365 596 346 588 q 403 618 383 604 q 541 725 469 674 q 676 838 613 776 q 463 776 569 806 q 250 715 357 747 q 219 706 231 708 q 200 707 208 704 q 184 719 192 710 q 164 746 176 728 q 349 837 247 794 q 560 914 450 879 q 788 976 671 949 q 1019 1022 904 1003 q 1242 1050 1133 1040 q 1444 1060 1350 1060 q 1475 1052 1460 1060 q 1502 1033 1490 1044 q 1521 1008 1514 1021 q 1526 982 1528 994 q 1517 969 1525 975 q 1501 963 1508 963 q 1222 940 1360 960 q 951 886 1085 921 q 784 763 871 824 q 624 632 697 701 m 901 1132 q 913 1145 908 1139 q 922 1157 917 1151 q 1010 1242 964 1201 q 1104 1321 1056 1283 q 1126 1339 1115 1329 q 1147 1358 1136 1349 q 1179 1363 1161 1372 q 1208 1347 1199 1353 q 1221 1334 1218 1340 q 1220 1319 1224 1328 q 1208 1294 1217 1311 q 1187 1252 1197 1274 q 1168 1210 1176 1231 q 1149 1162 1157 1186 q 1143 1111 1140 1138 q 1092 1130 1104 1118 q 1081 1172 1079 1142 q 1085 1201 1083 1186 q 1092 1235 1088 1215 q 1065 1214 1076 1224 q 1043 1194 1054 1204 q 1006 1163 1024 1179 q 971 1131 989 1146 q 939 1115 950 1114 q 901 1132 928 1115 z "},"":{"ha":968,"x_min":-8,"x_max":1528,"o":"m 624 632 q 749 640 689 635 q 867 650 808 644 q 888 651 881 651 q 901 648 896 651 q 910 637 906 644 q 921 615 914 629 q 735 588 826 599 q 553 564 644 578 q 504 544 522 557 q 390 442 454 500 q 266 320 325 383 q 162 192 207 257 q 104 72 117 128 q 291 97 201 75 q 463 153 381 119 q 617 229 544 188 q 756 312 690 271 q 876 389 821 353 q 979 447 932 425 q 994 431 986 439 q 1013 414 1003 424 q 799 275 894 340 q 612 156 704 210 q 419 60 519 101 q 189 -8 318 18 q 128 -6 157 -15 q 74 19 99 3 q 22 66 40 44 q -3 110 3 88 q -2 159 -8 133 q 21 217 4 185 q 98 328 53 276 q 193 433 143 381 q 230 469 213 451 q 271 511 247 488 q 165 483 213 499 q 72 449 117 467 q 38 488 42 472 q 71 515 35 503 q 196 553 133 535 q 322 582 258 571 q 365 596 346 588 q 403 618 383 604 q 541 725 469 674 q 676 838 613 776 q 463 776 569 806 q 250 715 357 747 q 219 706 231 708 q 200 707 208 704 q 184 719 192 710 q 164 746 176 728 q 349 837 247 794 q 560 914 450 879 q 788 976 671 949 q 1019 1022 904 1003 q 1242 1050 1133 1040 q 1444 1060 1350 1060 q 1475 1052 1460 1060 q 1502 1033 1490 1044 q 1521 1008 1514 1021 q 1526 982 1528 994 q 1517 969 1525 975 q 1501 963 1508 963 q 1222 940 1360 960 q 951 886 1085 921 q 784 763 871 824 q 624 632 697 701 m 1039 1224 q 1028 1189 1039 1206 q 1007 1168 1018 1172 q 999 1167 1004 1167 q 947 1178 963 1164 q 936 1229 931 1192 q 958 1269 942 1260 q 994 1274 975 1278 q 1026 1256 1013 1269 q 1039 1224 1040 1242 m 1172 1224 q 1162 1189 1172 1206 q 1140 1168 1151 1172 q 1132 1167 1138 1167 q 1080 1178 1096 1164 q 1069 1229 1064 1192 q 1092 1269 1075 1260 q 1127 1274 1108 1278 q 1160 1256 1146 1269 q 1172 1224 1174 1242 z "},"":{"ha":576,"x_min":-10,"x_max":1003,"o":"m 106 -42 q 81 -26 93 -32 q 61 -12 68 -19 q 53 5 54 -6 q 61 35 53 15 q 184 257 114 149 q 333 469 254 365 q 496 672 413 574 q 657 865 579 771 q 681 902 669 881 q 710 951 692 924 q 603 933 667 947 q 472 899 540 919 q 335 852 403 878 q 217 799 268 826 q 138 744 167 772 q 118 689 110 715 q 60 672 86 663 q 10 701 35 681 q 6 763 -10 731 q 51 823 21 794 q 117 874 82 851 q 171 910 151 897 q 396 1010 282 975 q 629 1061 510 1046 q 688 1060 661 1067 q 735 1038 714 1053 q 776 1001 757 1022 q 811 956 794 979 q 822 909 825 935 q 808 858 819 883 q 779 809 796 832 q 750 772 763 786 q 420 389 581 583 q 121 -19 260 194 q 115 -29 118 -24 q 106 -42 111 -35 m 761 1311 q 803 1256 778 1283 q 859 1203 829 1228 q 921 1159 889 1178 q 981 1131 953 1140 q 991 1124 986 1129 q 1003 1114 996 1119 q 926 1108 971 1100 q 836 1140 882 1117 q 751 1195 790 1163 q 692 1264 711 1228 q 679 1311 674 1294 q 700 1332 685 1328 q 734 1331 715 1336 q 761 1311 753 1325 z "},"":{"ha":576,"x_min":-10,"x_max":994,"o":"m 106 -42 q 81 -26 93 -32 q 61 -12 68 -19 q 53 5 54 -6 q 61 35 53 15 q 184 257 114 149 q 333 469 254 365 q 496 672 413 574 q 657 865 579 771 q 681 902 669 881 q 710 951 692 924 q 603 933 667 947 q 472 899 540 919 q 335 852 403 878 q 217 799 268 826 q 138 744 167 772 q 118 689 110 715 q 60 672 86 663 q 10 701 35 681 q 6 763 -10 731 q 51 823 21 794 q 117 874 82 851 q 171 910 151 897 q 396 1010 282 975 q 629 1061 510 1046 q 688 1060 661 1067 q 735 1038 714 1053 q 776 1001 757 1022 q 811 956 794 979 q 822 909 825 935 q 808 858 819 883 q 779 809 796 832 q 750 772 763 786 q 420 389 581 583 q 121 -19 260 194 q 115 -29 118 -24 q 106 -42 111 -35 m 907 1379 q 934 1399 915 1393 q 968 1400 953 1404 q 989 1379 983 1396 q 976 1332 994 1363 q 917 1263 957 1296 q 832 1208 878 1231 q 741 1176 786 1185 q 665 1182 696 1168 q 677 1192 672 1188 q 688 1199 682 1197 q 747 1227 715 1208 q 809 1271 779 1246 q 865 1324 839 1296 q 907 1379 890 1351 z "},"":{"ha":576,"x_min":-10,"x_max":979,"o":"m 106 -42 q 81 -26 93 -32 q 61 -12 68 -19 q 53 5 54 -6 q 61 35 53 15 q 184 257 114 149 q 333 469 254 365 q 496 672 413 574 q 657 865 579 771 q 681 902 669 881 q 710 951 692 924 q 603 933 667 947 q 472 899 540 919 q 335 852 403 878 q 217 799 268 826 q 138 744 167 772 q 118 689 110 715 q 60 672 86 663 q 10 701 35 681 q 6 763 -10 731 q 51 823 21 794 q 117 874 82 851 q 171 910 151 897 q 396 1010 282 975 q 629 1061 510 1046 q 688 1060 661 1067 q 735 1038 714 1053 q 776 1001 757 1022 q 811 956 794 979 q 822 909 825 935 q 808 858 819 883 q 779 809 796 832 q 750 772 763 786 q 420 389 581 583 q 121 -19 260 194 q 115 -29 118 -24 q 106 -42 111 -35 m 657 1132 q 668 1145 664 1139 q 678 1157 672 1151 q 765 1242 719 1201 q 860 1321 811 1283 q 881 1339 871 1329 q 903 1358 892 1349 q 935 1363 917 1372 q 964 1347 954 1353 q 976 1334 974 1340 q 976 1319 979 1328 q 964 1294 972 1311 q 942 1252 953 1274 q 924 1210 932 1231 q 904 1162 913 1186 q 899 1111 896 1138 q 847 1130 860 1118 q 836 1172 835 1142 q 841 1201 839 1186 q 847 1235 843 1215 q 821 1214 832 1224 q 799 1194 810 1204 q 762 1163 779 1179 q 726 1131 744 1146 q 694 1115 706 1114 q 657 1132 683 1115 z "},"":{"ha":576,"x_min":-10,"x_max":924,"o":"m 106 -42 q 81 -26 93 -32 q 61 -12 68 -19 q 53 5 54 -6 q 61 35 53 15 q 184 257 114 149 q 333 469 254 365 q 496 672 413 574 q 657 865 579 771 q 681 902 669 881 q 710 951 692 924 q 603 933 667 947 q 472 899 540 919 q 335 852 403 878 q 217 799 268 826 q 138 744 167 772 q 118 689 110 715 q 60 672 86 663 q 10 701 35 681 q 6 763 -10 731 q 51 823 21 794 q 117 874 82 851 q 171 910 151 897 q 396 1010 282 975 q 629 1061 510 1046 q 688 1060 661 1067 q 735 1038 714 1053 q 776 1001 757 1022 q 811 956 794 979 q 822 909 825 935 q 808 858 819 883 q 779 809 796 832 q 750 772 763 786 q 420 389 581 583 q 121 -19 260 194 q 115 -29 118 -24 q 106 -42 111 -35 m 789 1214 q 778 1179 789 1196 q 757 1158 768 1163 q 749 1157 754 1157 q 697 1168 713 1154 q 686 1219 681 1182 q 708 1259 692 1250 q 744 1264 725 1268 q 776 1246 763 1260 q 789 1214 790 1232 m 922 1214 q 912 1179 922 1196 q 890 1158 901 1163 q 882 1157 888 1157 q 830 1168 846 1154 q 819 1219 814 1182 q 842 1259 825 1250 q 877 1264 858 1268 q 910 1246 896 1260 q 922 1214 924 1232 z "},"":{"ha":1096,"x_min":0,"x_max":1297,"o":"m 821 -29 q 773 3 785 -21 q 763 58 761 28 q 776 118 765 88 q 794 172 786 149 q 885 379 833 283 q 993 565 938 475 q 1104 744 1049 656 q 1204 931 1160 833 q 1211 968 1219 963 q 1144 942 1203 974 q 896 755 1018 864 q 663 521 774 646 q 458 263 553 396 q 290 6 363 129 q 239 38 257 17 q 224 96 221 60 q 233 147 226 122 q 246 197 239 172 q 320 389 275 297 q 419 568 365 481 q 532 741 474 656 q 644 914 590 826 q 462 840 553 888 q 292 728 371 792 q 150 586 213 664 q 53 422 88 508 q 8 452 17 428 q 8 507 0 476 q 31 567 15 538 q 60 614 47 597 q 606 1015 267 915 q 699 1015 661 1033 q 764 942 736 996 q 774 903 774 924 q 764 865 774 883 q 699 750 736 807 q 624 637 663 693 q 547 525 585 581 q 482 414 510 469 q 810 756 642 600 q 1175 1036 979 913 q 1223 1050 1200 1049 q 1268 1026 1246 1051 q 1295 976 1293 1003 q 1286 921 1297 950 q 1157 686 1226 800 q 1022 456 1088 572 q 903 221 957 340 q 821 -29 850 101 m 814 1139 q 863 1215 833 1178 q 925 1281 893 1253 q 982 1295 954 1307 q 1018 1243 1010 1283 q 1026 1199 1022 1221 q 1036 1160 1029 1176 q 1111 1205 1076 1175 q 1182 1281 1146 1235 q 1196 1271 1189 1275 q 1214 1260 1203 1267 q 1179 1209 1203 1236 q 1129 1160 1156 1182 q 1076 1126 1103 1138 q 1032 1122 1050 1115 q 1004 1133 1015 1128 q 986 1158 993 1139 q 974 1203 979 1175 q 967 1249 969 1232 q 915 1201 940 1229 q 867 1144 890 1172 q 842 1122 849 1121 q 814 1139 835 1124 z "},"":{"ha":914,"x_min":-3,"x_max":1018,"o":"m 369 -3 q 284 -27 328 -24 q 196 -19 240 -31 q 160 -10 176 -14 q 129 0 144 -6 q 40 49 71 14 q 1 132 10 83 q 7 238 -3 188 q 35 336 17 289 q 77 428 53 383 q 126 519 101 474 q 140 549 135 535 q 136 581 144 563 q 131 701 111 643 q 199 811 150 760 q 315 906 247 863 q 454 980 383 949 q 590 1028 525 1011 q 699 1047 656 1046 q 788 1040 742 1051 q 874 1002 835 1028 q 941 936 914 976 q 972 843 968 896 q 960 672 983 758 q 892 502 938 586 q 785 340 847 418 q 651 197 722 263 q 508 79 581 131 q 369 -3 435 28 m 208 631 q 242 672 221 647 q 290 723 264 697 q 344 772 315 749 q 403 807 374 794 q 444 815 419 814 q 492 808 469 815 q 530 788 514 801 q 544 751 546 774 q 463 710 501 739 q 391 646 424 682 q 331 569 358 610 q 283 494 304 529 q 320 488 306 489 q 346 491 335 488 q 365 503 357 494 q 383 524 374 511 q 400 545 390 533 q 422 565 410 557 q 446 575 433 574 q 471 568 458 576 q 486 558 478 563 q 501 549 494 553 q 463 471 486 514 q 423 383 440 428 q 399 295 406 339 q 411 217 393 251 q 340 240 360 217 q 317 296 319 263 q 325 368 315 329 q 342 440 335 407 q 302 450 322 447 q 257 457 282 453 q 193 342 222 400 q 147 228 164 283 q 131 126 131 174 q 157 46 132 79 q 309 117 231 72 q 462 221 388 163 q 604 348 536 279 q 726 492 672 417 q 819 644 781 567 q 871 799 857 722 q 874 885 878 844 q 853 952 871 925 q 801 991 835 979 q 717 994 768 1003 q 548 951 629 981 q 400 876 467 922 q 284 769 333 831 q 208 631 235 708 m 776 1319 q 819 1264 793 1292 q 874 1211 844 1236 q 936 1167 904 1186 q 996 1139 968 1149 q 1006 1133 1001 1138 q 1018 1122 1011 1128 q 942 1117 986 1108 q 851 1148 897 1125 q 766 1203 806 1171 q 707 1272 726 1236 q 694 1319 689 1303 q 715 1340 700 1336 q 749 1339 731 1344 q 776 1319 768 1333 z "},"":{"ha":914,"x_min":-3,"x_max":997,"o":"m 369 -3 q 284 -27 328 -24 q 196 -19 240 -31 q 160 -10 176 -14 q 129 0 144 -6 q 40 49 71 14 q 1 132 10 83 q 7 238 -3 188 q 35 336 17 289 q 77 428 53 383 q 126 519 101 474 q 140 549 135 535 q 136 581 144 563 q 131 701 111 643 q 199 811 150 760 q 315 906 247 863 q 454 980 383 949 q 590 1028 525 1011 q 699 1047 656 1046 q 788 1040 742 1051 q 874 1002 835 1028 q 941 936 914 976 q 972 843 968 896 q 960 672 983 758 q 892 502 938 586 q 785 340 847 418 q 651 197 722 263 q 508 79 581 131 q 369 -3 435 28 m 208 631 q 242 672 221 647 q 290 723 264 697 q 344 772 315 749 q 403 807 374 794 q 444 815 419 814 q 492 808 469 815 q 530 788 514 801 q 544 751 546 774 q 463 710 501 739 q 391 646 424 682 q 331 569 358 610 q 283 494 304 529 q 320 488 306 489 q 346 491 335 488 q 365 503 357 494 q 383 524 374 511 q 400 545 390 533 q 422 565 410 557 q 446 575 433 574 q 471 568 458 576 q 486 558 478 563 q 501 549 494 553 q 463 471 486 514 q 423 383 440 428 q 399 295 406 339 q 411 217 393 251 q 340 240 360 217 q 317 296 319 263 q 325 368 315 329 q 342 440 335 407 q 302 450 322 447 q 257 457 282 453 q 193 342 222 400 q 147 228 164 283 q 131 126 131 174 q 157 46 132 79 q 309 117 231 72 q 462 221 388 163 q 604 348 536 279 q 726 492 672 417 q 819 644 781 567 q 871 799 857 722 q 874 885 878 844 q 853 952 871 925 q 801 991 835 979 q 717 994 768 1003 q 548 951 629 981 q 400 876 467 922 q 284 769 333 831 q 208 631 235 708 m 910 1340 q 937 1360 918 1354 q 971 1361 956 1365 q 992 1340 986 1357 q 979 1293 997 1324 q 920 1224 960 1257 q 835 1169 881 1192 q 744 1138 789 1146 q 668 1143 699 1129 q 680 1153 675 1149 q 690 1160 685 1158 q 750 1188 718 1169 q 812 1232 782 1207 q 867 1285 842 1257 q 910 1340 893 1313 z "},"":{"ha":914,"x_min":-3,"x_max":996,"o":"m 369 -3 q 284 -27 328 -24 q 196 -19 240 -31 q 160 -10 176 -14 q 129 0 144 -6 q 40 49 71 14 q 1 132 10 83 q 7 238 -3 188 q 35 336 17 289 q 77 428 53 383 q 126 519 101 474 q 140 549 135 535 q 136 581 144 563 q 131 701 111 643 q 199 811 150 760 q 315 906 247 863 q 454 980 383 949 q 590 1028 525 1011 q 699 1047 656 1046 q 788 1040 742 1051 q 874 1002 835 1028 q 941 936 914 976 q 972 843 968 896 q 960 672 983 758 q 892 502 938 586 q 785 340 847 418 q 651 197 722 263 q 508 79 581 131 q 369 -3 435 28 m 208 631 q 242 672 221 647 q 290 723 264 697 q 344 772 315 749 q 403 807 374 794 q 444 815 419 814 q 492 808 469 815 q 530 788 514 801 q 544 751 546 774 q 463 710 501 739 q 391 646 424 682 q 331 569 358 610 q 283 494 304 529 q 320 488 306 489 q 346 491 335 488 q 365 503 357 494 q 383 524 374 511 q 400 545 390 533 q 422 565 410 557 q 446 575 433 574 q 471 568 458 576 q 486 558 478 563 q 501 549 494 553 q 463 471 486 514 q 423 383 440 428 q 399 295 406 339 q 411 217 393 251 q 340 240 360 217 q 317 296 319 263 q 325 368 315 329 q 342 440 335 407 q 302 450 322 447 q 257 457 282 453 q 193 342 222 400 q 147 228 164 283 q 131 126 131 174 q 157 46 132 79 q 309 117 231 72 q 462 221 388 163 q 604 348 536 279 q 726 492 672 417 q 819 644 781 567 q 871 799 857 722 q 874 885 878 844 q 853 952 871 925 q 801 991 835 979 q 717 994 768 1003 q 548 951 629 981 q 400 876 467 922 q 284 769 333 831 q 208 631 235 708 m 674 1132 q 685 1145 681 1139 q 694 1157 689 1151 q 782 1242 736 1201 q 876 1321 828 1283 q 898 1339 888 1329 q 919 1358 908 1349 q 951 1363 933 1372 q 981 1347 971 1353 q 993 1334 990 1340 q 992 1319 996 1328 q 981 1294 989 1311 q 959 1252 969 1274 q 940 1210 949 1231 q 921 1162 929 1186 q 915 1111 913 1138 q 864 1130 876 1118 q 853 1172 851 1142 q 858 1201 856 1186 q 864 1235 860 1215 q 838 1214 849 1224 q 815 1194 826 1204 q 778 1163 796 1179 q 743 1131 761 1146 q 711 1115 722 1114 q 674 1132 700 1115 z "},"":{"ha":914,"x_min":-3,"x_max":986,"o":"m 369 -3 q 284 -27 328 -24 q 196 -19 240 -31 q 160 -10 176 -14 q 129 0 144 -6 q 40 49 71 14 q 1 132 10 83 q 7 238 -3 188 q 35 336 17 289 q 77 428 53 383 q 126 519 101 474 q 140 549 135 535 q 136 581 144 563 q 131 701 111 643 q 199 811 150 760 q 315 906 247 863 q 454 980 383 949 q 590 1028 525 1011 q 699 1047 656 1046 q 788 1040 742 1051 q 874 1002 835 1028 q 941 936 914 976 q 972 843 968 896 q 960 672 983 758 q 892 502 938 586 q 785 340 847 418 q 651 197 722 263 q 508 79 581 131 q 369 -3 435 28 m 208 631 q 242 672 221 647 q 290 723 264 697 q 344 772 315 749 q 403 807 374 794 q 444 815 419 814 q 492 808 469 815 q 530 788 514 801 q 544 751 546 774 q 463 710 501 739 q 391 646 424 682 q 331 569 358 610 q 283 494 304 529 q 320 488 306 489 q 346 491 335 488 q 365 503 357 494 q 383 524 374 511 q 400 545 390 533 q 422 565 410 557 q 446 575 433 574 q 471 568 458 576 q 486 558 478 563 q 501 549 494 553 q 463 471 486 514 q 423 383 440 428 q 399 295 406 339 q 411 217 393 251 q 340 240 360 217 q 317 296 319 263 q 325 368 315 329 q 342 440 335 407 q 302 450 322 447 q 257 457 282 453 q 193 342 222 400 q 147 228 164 283 q 131 126 131 174 q 157 46 132 79 q 309 117 231 72 q 462 221 388 163 q 604 348 536 279 q 726 492 672 417 q 819 644 781 567 q 871 799 857 722 q 874 885 878 844 q 853 952 871 925 q 801 991 835 979 q 717 994 768 1003 q 548 951 629 981 q 400 876 467 922 q 284 769 333 831 q 208 631 235 708 m 586 1139 q 635 1215 606 1178 q 697 1281 665 1253 q 754 1295 726 1307 q 790 1243 782 1283 q 798 1199 794 1221 q 808 1160 801 1176 q 883 1205 849 1175 q 954 1281 918 1235 q 968 1271 961 1275 q 986 1260 975 1267 q 951 1209 975 1236 q 901 1160 928 1182 q 849 1126 875 1138 q 804 1122 822 1115 q 776 1133 788 1128 q 758 1158 765 1139 q 747 1203 751 1175 q 739 1249 742 1232 q 688 1201 713 1229 q 639 1144 663 1172 q 614 1122 621 1121 q 586 1139 607 1124 z "},"":{"ha":914,"x_min":-3,"x_max":983,"o":"m 369 -3 q 284 -27 328 -24 q 196 -19 240 -31 q 160 -10 176 -14 q 129 0 144 -6 q 40 49 71 14 q 1 132 10 83 q 7 238 -3 188 q 35 336 17 289 q 77 428 53 383 q 126 519 101 474 q 140 549 135 535 q 136 581 144 563 q 131 701 111 643 q 199 811 150 760 q 315 906 247 863 q 454 980 383 949 q 590 1028 525 1011 q 699 1047 656 1046 q 788 1040 742 1051 q 874 1002 835 1028 q 941 936 914 976 q 972 843 968 896 q 960 672 983 758 q 892 502 938 586 q 785 340 847 418 q 651 197 722 263 q 508 79 581 131 q 369 -3 435 28 m 208 631 q 242 672 221 647 q 290 723 264 697 q 344 772 315 749 q 403 807 374 794 q 444 815 419 814 q 492 808 469 815 q 530 788 514 801 q 544 751 546 774 q 463 710 501 739 q 391 646 424 682 q 331 569 358 610 q 283 494 304 529 q 320 488 306 489 q 346 491 335 488 q 365 503 357 494 q 383 524 374 511 q 400 545 390 533 q 422 565 410 557 q 446 575 433 574 q 471 568 458 576 q 486 558 478 563 q 501 549 494 553 q 463 471 486 514 q 423 383 440 428 q 399 295 406 339 q 411 217 393 251 q 340 240 360 217 q 317 296 319 263 q 325 368 315 329 q 342 440 335 407 q 302 450 322 447 q 257 457 282 453 q 193 342 222 400 q 147 228 164 283 q 131 126 131 174 q 157 46 132 79 q 309 117 231 72 q 462 221 388 163 q 604 348 536 279 q 726 492 672 417 q 819 644 781 567 q 871 799 857 722 q 874 885 878 844 q 853 952 871 925 q 801 991 835 979 q 717 994 768 1003 q 548 951 629 981 q 400 876 467 922 q 284 769 333 831 q 208 631 235 708 m 828 1224 q 817 1189 828 1206 q 796 1168 807 1172 q 788 1167 793 1167 q 735 1178 751 1164 q 725 1229 719 1192 q 747 1269 731 1260 q 783 1274 764 1278 q 815 1256 801 1269 q 828 1224 829 1242 m 961 1224 q 951 1189 961 1206 q 929 1168 940 1172 q 921 1167 926 1167 q 869 1178 885 1164 q 858 1229 853 1192 q 881 1269 864 1260 q 916 1274 897 1278 q 949 1256 935 1269 q 961 1224 963 1242 z "},"":{"ha":914,"x_min":-3,"x_max":983,"o":"m 851 1015 q 933 946 900 989 q 972 843 967 903 q 960 672 983 758 q 892 502 938 586 q 785 340 847 418 q 651 197 722 263 q 508 79 581 131 q 369 -3 435 28 q 288 -26 329 -22 q 204 -21 247 -31 q 177 -69 190 -44 q 151 -118 164 -93 q 141 -115 146 -117 q 131 -111 136 -114 q 100 -92 111 -100 q 86 -75 89 -85 q 87 -53 83 -65 q 99 -19 90 -40 l 108 6 q 34 54 60 21 q 1 132 8 88 q 7 238 -3 188 q 35 336 17 289 q 77 428 53 383 q 126 519 101 474 q 140 549 135 535 q 136 581 144 563 q 131 701 111 643 q 199 811 150 760 q 315 906 247 863 q 454 980 383 949 q 590 1028 525 1011 q 699 1047 656 1046 q 724 1049 711 1049 q 750 1046 738 1049 l 776 1078 q 841 1122 811 1119 q 903 1081 871 1124 l 851 1015 m 871 799 q 871 908 881 860 q 825 979 861 956 q 531 547 665 768 q 268 94 396 325 q 469 226 369 147 q 651 399 568 306 q 793 596 735 493 q 871 799 851 699 m 208 631 q 242 672 221 647 q 290 723 264 697 q 344 772 315 749 q 403 807 374 794 q 440 814 418 813 q 482 810 461 815 q 519 794 503 806 q 542 767 536 783 q 623 881 582 825 q 708 993 664 938 q 542 949 621 979 q 397 874 463 919 q 282 768 331 829 q 208 631 233 707 m 257 457 q 198 354 225 407 q 153 251 171 301 q 131 156 136 201 q 140 75 126 110 q 229 252 181 160 q 335 442 278 344 q 299 450 318 447 q 257 457 281 453 m 283 494 q 320 488 306 489 q 346 491 335 488 q 365 503 357 494 q 383 524 374 511 l 386 528 q 455 637 419 582 q 528 746 490 692 q 451 702 488 731 q 384 638 415 674 q 328 565 353 603 q 283 494 303 528 z "},"":{"ha":1185,"x_min":-24,"x_max":1372,"o":"m 876 -132 q 775 -14 763 -115 q 833 208 796 99 q 917 420 871 317 q 1015 621 963 524 q 1117 808 1067 718 q 911 608 1010 706 q 719 421 813 511 q 533 247 625 331 q 347 88 440 163 q 290 44 319 64 q 228 15 260 25 q 166 6 197 4 q 104 29 135 8 q 4 251 -24 104 q 54 448 17 344 q 149 651 92 551 q 279 839 206 750 q 438 994 353 928 q 483 1017 464 1015 q 517 1010 501 1019 q 546 985 532 1001 q 578 954 560 968 q 411 769 489 868 q 274 563 333 671 q 176 338 214 456 q 131 97 139 221 q 275 169 210 124 q 403 264 340 214 q 642 480 528 376 q 866 681 757 583 q 1080 874 975 779 q 1288 1063 1185 968 q 1306 1076 1296 1076 q 1325 1069 1317 1076 q 1358 1038 1344 1058 q 1364 994 1372 1017 q 1235 708 1304 846 q 1099 433 1165 569 q 973 158 1032 297 q 876 -132 914 18 m 947 1365 q 990 1310 964 1338 q 1045 1257 1015 1282 q 1107 1213 1075 1232 q 1167 1185 1139 1194 q 1177 1178 1172 1183 q 1189 1168 1182 1174 q 1113 1163 1157 1154 q 1022 1194 1068 1171 q 937 1249 976 1217 q 878 1318 897 1282 q 865 1365 860 1349 q 886 1386 871 1382 q 920 1385 901 1390 q 947 1365 939 1379 z "},"":{"ha":1185,"x_min":-24,"x_max":1372,"o":"m 876 -132 q 775 -14 763 -115 q 833 208 796 99 q 917 420 871 317 q 1015 621 963 524 q 1117 808 1067 718 q 911 608 1010 706 q 719 421 813 511 q 533 247 625 331 q 347 88 440 163 q 290 44 319 64 q 228 15 260 25 q 166 6 197 4 q 104 29 135 8 q 4 251 -24 104 q 54 448 17 344 q 149 651 92 551 q 279 839 206 750 q 438 994 353 928 q 483 1017 464 1015 q 517 1010 501 1019 q 546 985 532 1001 q 578 954 560 968 q 411 769 489 868 q 274 563 333 671 q 176 338 214 456 q 131 97 139 221 q 275 169 210 124 q 403 264 340 214 q 642 480 528 376 q 866 681 757 583 q 1080 874 975 779 q 1288 1063 1185 968 q 1306 1076 1296 1076 q 1325 1069 1317 1076 q 1358 1038 1344 1058 q 1364 994 1372 1017 q 1235 708 1304 846 q 1099 433 1165 569 q 973 158 1032 297 q 876 -132 914 18 m 1100 1365 q 1127 1385 1108 1379 q 1161 1386 1146 1390 q 1182 1365 1176 1382 q 1169 1318 1188 1349 q 1110 1249 1150 1282 q 1025 1194 1071 1217 q 934 1163 979 1171 q 858 1168 889 1154 q 870 1178 865 1174 q 881 1185 875 1183 q 940 1213 908 1194 q 1002 1257 972 1232 q 1058 1310 1032 1282 q 1100 1365 1083 1338 z "},"":{"ha":1185,"x_min":-24,"x_max":1372,"o":"m 876 -132 q 775 -14 763 -115 q 833 208 796 99 q 917 420 871 317 q 1015 621 963 524 q 1117 808 1067 718 q 911 608 1010 706 q 719 421 813 511 q 533 247 625 331 q 347 88 440 163 q 290 44 319 64 q 228 15 260 25 q 166 6 197 4 q 104 29 135 8 q 4 251 -24 104 q 54 448 17 344 q 149 651 92 551 q 279 839 206 750 q 438 994 353 928 q 483 1017 464 1015 q 517 1010 501 1019 q 546 985 532 1001 q 578 954 560 968 q 411 769 489 868 q 274 563 333 671 q 176 338 214 456 q 131 97 139 221 q 275 169 210 124 q 403 264 340 214 q 642 480 528 376 q 866 681 757 583 q 1080 874 975 779 q 1288 1063 1185 968 q 1306 1076 1296 1076 q 1325 1069 1317 1076 q 1358 1038 1344 1058 q 1364 994 1372 1017 q 1235 708 1304 846 q 1099 433 1165 569 q 973 158 1032 297 q 876 -132 914 18 m 825 1132 q 836 1145 832 1139 q 846 1157 840 1151 q 933 1242 888 1201 q 1028 1321 979 1283 q 1049 1339 1039 1329 q 1071 1358 1060 1349 q 1103 1363 1085 1372 q 1132 1347 1122 1353 q 1144 1334 1142 1340 q 1144 1319 1147 1328 q 1132 1294 1140 1311 q 1110 1252 1121 1274 q 1092 1210 1100 1231 q 1072 1162 1081 1186 q 1067 1111 1064 1138 q 1015 1130 1028 1118 q 1004 1172 1003 1142 q 1009 1201 1007 1186 q 1015 1235 1011 1215 q 989 1214 1000 1224 q 967 1194 978 1204 q 930 1163 947 1179 q 894 1131 913 1146 q 863 1115 874 1114 q 825 1132 851 1115 z "},"":{"ha":1185,"x_min":-24,"x_max":1372,"o":"m 876 -132 q 775 -14 763 -115 q 833 208 796 99 q 917 420 871 317 q 1015 621 963 524 q 1117 808 1067 718 q 911 608 1010 706 q 719 421 813 511 q 533 247 625 331 q 347 88 440 163 q 290 44 319 64 q 228 15 260 25 q 166 6 197 4 q 104 29 135 8 q 4 251 -24 104 q 54 448 17 344 q 149 651 92 551 q 279 839 206 750 q 438 994 353 928 q 483 1017 464 1015 q 517 1010 501 1019 q 546 985 532 1001 q 578 954 560 968 q 411 769 489 868 q 274 563 333 671 q 176 338 214 456 q 131 97 139 221 q 275 169 210 124 q 403 264 340 214 q 642 480 528 376 q 866 681 757 583 q 1080 874 975 779 q 1288 1063 1185 968 q 1306 1076 1296 1076 q 1325 1069 1317 1076 q 1358 1038 1344 1058 q 1364 994 1372 1017 q 1235 708 1304 846 q 1099 433 1165 569 q 973 158 1032 297 q 876 -132 914 18 m 1014 1224 q 1003 1189 1014 1206 q 982 1168 993 1172 q 974 1167 979 1167 q 922 1178 938 1164 q 911 1229 906 1192 q 933 1269 917 1260 q 969 1274 950 1278 q 1001 1256 988 1269 q 1014 1224 1015 1242 m 1147 1224 q 1137 1189 1147 1206 q 1115 1168 1126 1172 q 1107 1167 1113 1167 q 1055 1178 1071 1164 q 1044 1229 1039 1192 q 1067 1269 1050 1260 q 1102 1274 1083 1278 q 1135 1256 1121 1269 q 1147 1224 1149 1242 z "},"":{"ha":1263,"x_min":3,"x_max":1432,"o":"m 553 938 q 272 768 397 863 q 54 550 147 674 q 74 538 65 544 q 87 524 83 531 q 87 513 90 517 q 71 510 83 508 q 16 531 29 514 q 6 572 3 549 q 24 620 10 596 q 51 661 39 644 q 160 777 100 722 q 285 878 219 832 q 420 959 351 924 q 556 1017 489 994 q 647 1004 607 1033 q 678 977 667 989 q 692 954 689 965 q 690 930 694 943 q 672 899 685 917 q 610 815 644 857 q 539 730 575 772 q 468 645 503 688 q 407 563 433 603 q 365 486 381 524 q 353 417 350 449 q 463 449 403 421 q 592 519 524 476 q 735 617 661 563 q 886 733 810 672 q 1038 854 963 793 q 1186 972 1114 915 q 1240 1013 1214 993 q 1292 1053 1265 1033 q 1333 1069 1308 1064 q 1381 1069 1358 1074 q 1418 1047 1404 1064 q 1426 994 1432 1029 q 1330 706 1399 849 q 1164 435 1261 563 q 947 205 1067 308 q 694 35 826 101 q 592 -8 642 7 q 488 -27 542 -24 q 376 -19 435 -31 q 249 19 318 -8 q 210 43 219 31 q 204 67 200 56 q 224 85 208 78 q 258 96 239 93 q 469 151 363 108 q 677 255 576 193 q 871 394 778 317 q 1042 554 964 471 q 1179 722 1119 638 q 1274 883 1239 807 q 1303 956 1296 932 q 1304 984 1311 981 q 1276 972 1297 988 q 1217 928 1254 957 q 1034 776 1132 858 q 834 615 936 693 q 629 472 732 538 q 432 372 526 407 q 368 363 401 361 q 308 378 335 365 q 263 411 281 390 q 244 457 244 432 q 263 544 244 500 q 310 630 282 588 q 375 713 339 672 q 445 792 411 753 q 508 867 479 831 q 553 938 538 904 m 1101 1365 q 1128 1385 1110 1379 q 1163 1386 1147 1390 q 1183 1365 1178 1382 q 1171 1318 1189 1349 q 1112 1249 1151 1282 q 1026 1194 1072 1217 q 935 1163 981 1171 q 860 1168 890 1154 q 872 1178 867 1174 q 882 1185 876 1183 q 942 1213 910 1194 q 1003 1257 974 1232 q 1059 1310 1033 1282 q 1101 1365 1085 1338 z "},"":{"ha":1263,"x_min":3,"x_max":1432,"o":"m 553 938 q 272 768 397 863 q 54 550 147 674 q 74 538 65 544 q 87 524 83 531 q 87 513 90 517 q 71 510 83 508 q 16 531 29 514 q 6 572 3 549 q 24 620 10 596 q 51 661 39 644 q 160 777 100 722 q 285 878 219 832 q 420 959 351 924 q 556 1017 489 994 q 647 1004 607 1033 q 678 977 667 989 q 692 954 689 965 q 690 930 694 943 q 672 899 685 917 q 610 815 644 857 q 539 730 575 772 q 468 645 503 688 q 407 563 433 603 q 365 486 381 524 q 353 417 350 449 q 463 449 403 421 q 592 519 524 476 q 735 617 661 563 q 886 733 810 672 q 1038 854 963 793 q 1186 972 1114 915 q 1240 1013 1214 993 q 1292 1053 1265 1033 q 1333 1069 1308 1064 q 1381 1069 1358 1074 q 1418 1047 1404 1064 q 1426 994 1432 1029 q 1330 706 1399 849 q 1164 435 1261 563 q 947 205 1067 308 q 694 35 826 101 q 592 -8 642 7 q 488 -27 542 -24 q 376 -19 435 -31 q 249 19 318 -8 q 210 43 219 31 q 204 67 200 56 q 224 85 208 78 q 258 96 239 93 q 469 151 363 108 q 677 255 576 193 q 871 394 778 317 q 1042 554 964 471 q 1179 722 1119 638 q 1274 883 1239 807 q 1303 956 1296 932 q 1304 984 1311 981 q 1276 972 1297 988 q 1217 928 1254 957 q 1034 776 1132 858 q 834 615 936 693 q 629 472 732 538 q 432 372 526 407 q 368 363 401 361 q 308 378 335 365 q 263 411 281 390 q 244 457 244 432 q 263 544 244 500 q 310 630 282 588 q 375 713 339 672 q 445 792 411 753 q 508 867 479 831 q 553 938 538 904 m 1043 1224 q 1033 1189 1043 1206 q 1011 1168 1022 1172 q 1003 1167 1008 1167 q 951 1178 967 1164 q 940 1229 935 1192 q 963 1269 946 1260 q 998 1274 979 1278 q 1031 1256 1017 1269 q 1043 1224 1044 1242 m 1176 1224 q 1166 1189 1176 1206 q 1144 1168 1156 1172 q 1136 1167 1142 1167 q 1084 1178 1100 1164 q 1074 1229 1068 1192 q 1096 1269 1079 1260 q 1131 1274 1113 1278 q 1164 1256 1150 1269 q 1176 1224 1178 1242 z "},"":{"ha":528,"x_min":-240,"x_max":476,"o":"m 331 506 q 401 469 385 499 q 392 393 417 440 q 284 229 344 304 q 158 86 224 154 q 24 -46 93 18 q -108 -178 -44 -111 q -131 -205 -121 -192 q -153 -232 -142 -218 q -26 -234 -100 -247 q 121 -188 49 -221 q 252 -110 193 -155 q 333 -15 311 -64 q 308 2 321 -7 q 281 22 294 11 q 339 38 315 40 q 400 10 363 35 q 425 -38 428 -10 q 403 -94 422 -67 q 360 -146 385 -122 q 319 -180 335 -169 q 244 -224 289 -201 q 148 -266 199 -247 q 43 -296 97 -285 q -61 -309 -11 -308 q -153 -296 -111 -310 q -224 -250 -196 -282 q -240 -208 -240 -229 q -231 -165 -240 -186 q -207 -126 -222 -144 q -176 -92 -192 -107 q -40 49 -110 -22 q 98 192 31 119 q 225 343 165 265 q 331 506 285 421 m 392 703 q 459 681 440 710 q 457 618 478 653 q 431 598 451 604 q 386 603 411 592 q 365 623 368 610 q 365 651 361 636 q 378 681 369 667 q 392 703 386 694 z "},"":{"ha":431,"x_min":49,"x_max":371,"o":"m 371 1068 q 360 1055 364 1061 q 350 1043 356 1049 q 263 958 308 999 q 168 879 217 917 q 147 861 157 871 q 125 842 136 851 q 93 838 111 828 q 64 853 74 847 q 51 865 54 858 q 52 880 49 871 q 64 906 56 889 q 85 948 75 926 q 104 990 96 969 q 124 1038 115 1014 q 129 1089 132 1063 q 181 1070 168 1082 q 192 1028 193 1058 q 187 999 189 1014 q 181 965 185 985 q 207 986 196 976 q 229 1006 218 996 q 266 1038 249 1021 q 301 1069 283 1054 q 319 1082 311 1078 q 333 1085 326 1086 q 349 1081 340 1085 q 371 1068 357 1076 z "},"":{"ha":1240,"x_min":-7,"x_max":1447,"o":"m 696 193 q 867 129 783 165 q 1033 61 950 93 q 1064 44 1050 54 q 1094 22 1078 33 q 1063 16 1075 13 q 1039 22 1050 19 q 850 90 943 60 q 663 151 757 121 q 625 154 642 157 q 590 144 608 151 q 376 60 482 93 q 157 17 271 28 q 74 30 110 11 q 8 72 39 49 q 0 105 -7 89 q 23 134 7 121 q 58 157 39 147 q 88 172 76 167 q 190 199 129 189 q 316 216 251 210 q 442 224 381 222 q 546 225 504 226 q 545 222 554 225 q 519 215 536 219 q 482 206 503 210 q 443 198 461 201 q 415 194 425 194 q 413 197 406 193 q 547 281 465 229 q 722 398 629 332 q 913 542 815 464 q 1096 708 1011 621 q 1244 890 1181 796 q 1336 1081 1308 983 q 1144 1062 1244 1088 q 946 985 1044 1036 q 756 864 847 935 q 591 712 665 793 q 465 544 517 631 q 394 372 413 457 q 344 381 363 374 q 309 415 314 390 q 313 467 304 439 q 335 524 321 496 q 358 568 350 551 q 517 794 422 692 q 723 972 611 896 q 960 1097 835 1049 q 1210 1161 1085 1144 q 1275 1163 1235 1169 q 1353 1132 1315 1157 q 1419 1060 1392 1107 q 1447 940 1447 1014 q 1331 712 1408 817 q 1156 517 1254 607 q 946 353 1057 428 q 728 214 835 278 q 713 205 719 210 q 696 193 707 200 m 401 175 q 271 161 335 172 q 163 135 207 150 q 99 106 118 121 q 106 83 81 92 q 166 93 124 83 q 255 117 208 103 q 342 147 301 132 q 401 175 383 163 m 1308 1426 q 1297 1413 1301 1419 q 1288 1401 1293 1407 q 1200 1316 1246 1357 q 1106 1238 1154 1275 q 1084 1219 1094 1229 q 1063 1200 1074 1210 q 1031 1196 1049 1186 q 1001 1211 1011 1206 q 989 1223 992 1217 q 990 1238 986 1229 q 1001 1264 993 1247 q 1023 1306 1013 1285 q 1042 1349 1033 1328 q 1061 1397 1053 1372 q 1067 1447 1069 1421 q 1118 1428 1106 1440 q 1129 1386 1131 1417 q 1124 1358 1126 1372 q 1118 1324 1122 1343 q 1144 1344 1133 1335 q 1167 1364 1156 1354 q 1203 1396 1186 1379 q 1239 1428 1221 1413 q 1256 1440 1249 1436 q 1271 1444 1264 1444 q 1286 1439 1278 1443 q 1308 1426 1294 1435 z "},"":{"ha":1081,"x_min":8,"x_max":1331,"o":"m 261 188 q 276 167 269 176 q 292 147 283 158 q 231 107 268 132 q 158 51 193 82 q 100 -12 122 21 q 86 -75 78 -44 q 297 -49 186 -79 q 512 34 407 -19 q 708 157 617 88 q 864 300 800 226 q 911 374 890 333 q 835 385 879 385 q 751 382 790 386 q 502 355 622 368 q 263 328 382 342 q 187 327 221 325 q 124 340 153 329 q 71 373 96 351 q 22 431 46 394 q 17 488 8 460 q 42 540 25 517 q 191 688 101 619 q 385 815 281 757 q 602 918 490 872 q 817 997 714 964 q 1008 1049 921 1029 q 1150 1072 1094 1068 q 1258 1040 1215 1078 q 1299 994 1279 1022 q 1325 939 1318 965 q 1308 882 1331 911 q 1188 772 1260 824 q 1040 678 1117 721 q 891 602 964 635 q 767 549 818 569 q 738 539 749 542 q 717 539 726 536 q 697 551 707 542 q 671 578 686 561 q 811 659 740 619 q 951 742 882 699 q 1084 835 1019 786 q 1207 944 1149 883 q 910 881 1058 925 q 623 769 763 836 q 358 617 483 703 q 128 431 232 531 q 291 423 208 419 q 458 435 374 426 q 624 453 542 444 q 788 461 707 461 q 897 440 847 460 q 968 364 946 419 q 963 306 976 336 q 925 247 949 275 q 772 108 865 176 q 574 -16 679 39 q 361 -106 468 -71 q 167 -146 254 -142 q 111 -137 140 -149 q 60 -106 82 -126 q 29 -60 39 -86 q 31 -10 19 -35 q 67 47 43 19 q 123 99 92 75 q 190 146 154 124 q 261 188 225 168 m 1083 1346 q 1072 1333 1076 1339 q 1063 1321 1068 1326 q 975 1235 1021 1276 q 881 1157 929 1194 q 859 1139 869 1149 q 838 1119 849 1129 q 806 1115 824 1106 q 776 1131 786 1125 q 764 1142 767 1136 q 765 1158 761 1149 q 776 1183 768 1167 q 798 1226 788 1204 q 817 1268 808 1247 q 836 1316 828 1292 q 842 1367 844 1340 q 893 1348 881 1360 q 904 1306 906 1336 q 899 1277 901 1292 q 893 1243 897 1263 q 919 1264 908 1254 q 942 1283 931 1274 q 978 1315 961 1299 q 1014 1347 996 1332 q 1031 1360 1024 1356 q 1046 1363 1039 1364 q 1061 1358 1053 1363 q 1083 1346 1069 1354 z "},"":{"ha":1590,"x_min":-4,"x_max":2150,"o":"m 1246 632 q 1371 640 1311 635 q 1489 650 1431 644 q 1510 651 1503 651 q 1523 648 1518 651 q 1532 637 1528 644 q 1543 615 1536 629 q 1358 588 1449 599 q 1175 564 1267 578 q 1126 544 1144 557 q 1012 442 1076 500 q 888 320 947 383 q 784 192 829 257 q 726 72 739 128 q 913 97 824 75 q 1085 153 1003 119 q 1240 229 1167 188 q 1378 312 1313 271 q 1499 389 1443 353 q 1601 447 1554 425 q 1617 431 1608 439 q 1635 414 1625 424 q 1422 275 1517 340 q 1234 156 1326 210 q 1041 60 1142 101 q 811 -8 940 18 q 750 -6 779 -15 q 696 19 721 3 q 644 66 663 44 q 619 110 625 88 q 620 159 614 133 q 643 217 626 185 q 711 318 671 269 q 796 414 751 367 q 740 418 768 417 q 685 422 713 419 q 675 413 675 413 q 625 294 649 356 q 582 171 601 232 q 549 49 563 110 q 532 -67 536 -11 q 496 -67 513 -69 q 414 -30 440 -61 q 381 47 388 1 q 385 147 375 93 q 412 253 396 201 q 447 351 428 306 q 476 424 465 396 q 388 424 431 424 q 303 422 344 424 q 283 416 293 422 q 271 403 274 410 q 226 344 247 374 q 182 283 204 314 q 163 256 174 274 q 142 217 151 238 q 130 178 133 197 q 135 150 126 160 q 113 149 125 144 q 90 164 101 153 q 72 222 65 186 q 99 295 79 258 q 145 365 119 332 q 183 414 171 397 q 108 411 139 414 q 47 404 76 408 q 24 408 33 404 q 10 428 15 413 q 0 471 -4 458 q 39 492 4 483 q 138 505 88 499 q 236 514 188 511 q 272 523 257 517 q 301 544 288 529 q 430 679 361 610 q 571 817 499 749 q 717 949 643 885 q 860 1067 790 1013 q 883 1085 872 1075 q 908 1086 893 1094 q 941 1062 926 1075 q 967 1033 956 1049 q 968 1019 969 1029 q 964 1001 967 1008 q 909 892 938 947 q 850 781 881 836 q 1134 897 978 846 q 1453 985 1290 949 q 1774 1040 1615 1021 q 2067 1060 1933 1060 q 2097 1052 2082 1060 q 2124 1033 2113 1044 q 2143 1008 2136 1021 q 2149 982 2150 994 q 2139 969 2147 975 q 2124 963 2131 963 q 1844 940 1982 960 q 1574 886 1707 921 q 1406 763 1493 824 q 1246 632 1319 701 m 944 582 q 987 596 968 588 q 1025 618 1006 604 q 1163 725 1092 674 q 1299 838 1235 776 q 1085 776 1192 806 q 872 715 979 747 q 835 706 847 707 q 813 711 824 704 q 763 615 788 663 q 719 524 739 568 q 831 556 775 540 q 944 582 886 571 m 517 519 q 557 593 535 553 q 603 674 579 633 q 649 755 626 715 q 692 826 672 794 q 610 760 651 797 q 529 681 569 722 q 449 599 489 640 q 374 519 410 557 l 517 519 m 893 511 q 857 503 874 507 q 824 493 840 499 l 869 490 q 872 489 869 490 l 893 511 z "},"":{"ha":1467,"x_min":-10,"x_max":2026,"o":"m 363 -3 q 277 -27 321 -24 q 189 -19 233 -31 q 153 -10 169 -14 q 122 0 138 -6 q 33 49 64 14 q -6 132 3 83 q 0 238 -10 188 q 28 336 10 289 q 70 428 46 383 q 119 519 94 474 q 133 549 128 535 q 129 581 138 563 q 123 701 103 643 q 192 811 143 760 q 308 906 240 863 q 447 980 376 949 q 583 1028 518 1011 q 692 1047 649 1046 q 773 1042 731 1051 q 853 1010 815 1032 q 919 956 890 989 q 958 879 947 922 q 1207 956 1078 922 q 1465 1012 1336 989 q 1715 1047 1593 1035 q 1943 1060 1838 1060 q 1974 1052 1958 1060 q 2001 1033 1989 1044 q 2019 1008 2013 1021 q 2025 982 2026 994 q 2015 969 2024 975 q 2000 963 2007 963 q 1721 940 1858 960 q 1450 886 1583 921 q 1283 763 1369 824 q 1122 632 1196 701 q 1247 640 1188 635 q 1365 650 1307 644 q 1387 651 1379 651 q 1399 648 1394 651 q 1408 637 1404 644 q 1419 615 1413 629 q 1234 588 1325 599 q 1051 564 1143 578 q 1003 544 1021 557 q 888 442 953 500 q 765 320 824 383 q 660 192 706 257 q 603 72 615 128 q 790 97 700 75 q 961 153 879 119 q 1116 229 1043 188 q 1254 312 1189 271 q 1375 389 1319 353 q 1478 447 1431 425 q 1493 431 1485 439 q 1511 414 1501 424 q 1298 275 1393 340 q 1110 156 1203 210 q 917 60 1018 101 q 688 -8 817 18 q 626 -6 656 -15 q 572 19 597 3 q 533 53 549 38 q 507 83 517 68 q 363 -3 431 28 m 201 631 q 235 672 214 647 q 283 723 257 697 q 338 772 308 749 q 396 807 367 794 q 438 815 413 814 q 485 808 463 815 q 523 788 507 801 q 538 751 539 774 q 456 710 494 739 q 384 646 417 682 q 324 569 351 610 q 276 494 297 529 q 313 488 299 489 q 339 491 328 488 q 358 503 350 494 q 376 524 367 511 q 393 545 383 533 q 415 565 403 557 q 439 575 426 574 q 464 568 451 576 l 494 549 q 456 471 479 514 q 416 383 433 428 q 392 295 399 339 q 404 217 386 251 q 333 240 353 217 q 310 296 313 263 q 318 368 308 329 q 335 440 328 407 q 295 450 315 447 q 250 457 275 453 q 186 342 215 400 q 140 228 157 283 q 124 126 124 174 q 150 46 125 79 q 304 119 225 74 q 459 224 383 165 q 603 353 535 283 q 726 500 672 424 q 644 476 682 489 q 571 449 607 463 q 537 488 540 472 q 569 515 533 503 q 670 546 619 531 q 772 572 721 561 q 850 744 826 660 l 749 715 q 718 706 729 708 q 699 707 707 704 q 683 719 690 710 q 663 746 675 728 q 760 798 708 774 q 868 846 811 822 q 862 914 869 883 q 835 965 854 944 q 785 994 817 986 q 710 994 754 1003 q 541 951 622 981 q 393 876 460 922 q 277 769 326 831 q 201 631 228 708 m 1175 838 q 1071 808 1122 822 q 968 778 1019 793 q 949 657 967 721 q 1064 744 1006 701 q 1175 838 1122 788 z "},"":{"ha":950,"x_min":-4,"x_max":1099,"o":"m 421 410 q 552 523 485 469 q 685 631 619 576 q 810 743 750 685 q 921 872 871 801 q 897 870 907 871 q 882 865 888 869 q 640 750 761 821 q 415 588 519 679 q 230 383 310 496 q 113 143 150 271 q 129 81 104 99 q 192 61 154 63 q 273 69 231 60 q 340 88 315 78 q 464 135 403 110 q 583 190 525 160 q 778 311 683 247 q 961 438 874 375 q 976 416 971 425 q 989 394 981 407 q 831 258 911 324 q 666 139 750 193 q 492 44 582 85 q 304 -19 401 3 q 290 -83 299 -50 q 263 -153 282 -117 q 219 -198 247 -181 q 157 -222 190 -215 q 91 -225 124 -228 q 36 -210 58 -222 q 6 -177 14 -197 q 15 -128 -1 -157 q 49 -100 25 -112 q 99 -86 72 -87 q 72 -130 74 -111 q 82 -162 69 -149 q 117 -182 94 -175 q 165 -190 140 -189 q 206 -104 199 -142 q 217 -31 214 -67 q 124 1 168 -28 q 49 73 79 29 q 7 171 18 117 q 15 281 -4 225 q 138 521 61 410 q 313 723 215 632 q 524 884 410 814 q 758 1003 638 954 q 828 1027 792 1015 q 898 1040 864 1039 q 962 1030 932 1042 q 1013 983 992 1018 q 1038 948 1025 965 q 1064 911 1051 931 q 1065 808 1099 857 q 1032 758 1050 782 q 992 714 1014 733 q 763 519 881 604 q 518 376 644 435 q 490 367 501 369 q 469 367 479 364 q 449 381 460 371 q 421 410 438 390 z "},"":{"ha":467,"x_min":-82,"x_max":515,"o":"m 515 397 q 369 264 444 325 q 210 156 293 203 q 167 136 186 143 q 129 126 147 129 q 120 92 126 110 q 103 54 114 74 q 45 14 83 24 q -21 11 7 4 q -67 29 -51 14 q -65 68 -82 44 q -43 84 -58 76 q -10 92 -28 92 q -28 67 -26 78 q -21 48 -29 56 q 3 36 -12 40 q 36 32 19 32 q 65 86 61 63 q 72 132 69 110 q 28 158 50 140 q -21 203 6 175 q -38 230 -32 214 q -46 261 -44 246 q -33 356 -49 307 q 9 451 -17 404 q 68 538 35 497 q 133 606 101 578 q 203 647 168 636 q 270 651 238 657 q 333 626 303 646 q 390 575 363 606 q 410 536 411 551 q 385 489 410 521 q 350 516 365 503 q 319 544 335 529 q 235 481 274 519 q 167 394 197 442 q 111 297 136 347 q 68 196 86 246 q 291 285 190 219 q 475 433 392 350 l 515 397 z "},"":{"ha":828,"x_min":-68,"x_max":869,"o":"m 869 393 q 718 263 796 325 q 551 154 640 200 q 364 160 457 104 q 307 214 328 183 q 289 288 286 244 q 290 300 289 294 q 290 313 290 306 l 181 172 q 115 130 154 139 q 38 132 75 121 q -29 172 0 143 q -64 243 -58 201 q -49 342 -68 290 q 2 441 -29 393 q 72 530 33 489 q 142 596 110 571 q 208 628 175 621 q 274 631 240 636 q 339 608 307 625 q 403 569 371 592 q 433 599 418 585 q 467 626 449 613 q 533 655 500 651 q 597 648 565 658 q 658 617 629 638 q 711 575 686 597 q 722 463 768 524 q 563 346 660 379 q 490 344 525 332 q 424 368 456 356 q 404 315 417 349 q 387 251 392 282 q 392 199 382 219 q 440 188 403 179 q 549 231 497 203 q 647 291 600 258 q 739 360 694 324 q 829 428 783 396 l 869 393 m 353 563 q 330 578 343 579 q 306 569 317 576 q 158 426 217 511 q 78 243 100 340 q 149 293 108 257 q 228 375 189 329 q 301 471 268 421 q 353 563 335 521 m 618 572 q 575 547 599 565 q 528 506 551 529 q 485 460 504 483 q 456 419 465 438 q 508 429 481 417 q 558 463 535 442 q 599 512 582 483 q 618 572 615 540 z "},"":{"ha":807,"x_min":-58,"x_max":849,"o":"m 849 393 q 697 263 775 325 q 531 154 619 200 q 343 160 436 104 q 288 210 308 179 q 253 172 272 190 q 215 139 235 154 q 134 104 175 108 q 46 129 93 100 q -39 213 -19 169 q -40 329 -58 256 q 20 487 -18 418 q 117 618 58 556 q 156 646 132 635 q 207 661 181 657 q 260 664 233 665 q 308 654 288 663 q 361 622 342 640 q 392 579 381 603 q 417 603 404 592 q 446 626 431 615 q 512 655 479 651 q 576 648 544 658 q 637 617 608 638 q 690 575 665 597 q 701 463 747 524 q 542 346 639 379 q 469 344 504 332 q 403 368 435 356 q 374 303 383 335 q 364 235 364 271 q 376 192 364 203 q 419 188 388 181 q 528 231 476 203 q 626 291 579 258 q 718 360 674 324 q 808 428 763 396 l 849 393 m 332 504 q 339 549 338 528 q 335 586 340 571 q 318 608 331 601 q 283 610 306 615 q 290 589 286 600 q 290 569 293 578 q 278 547 286 558 q 261 533 269 535 q 229 522 242 531 q 208 501 217 513 q 193 477 200 490 q 178 453 186 464 q 197 415 188 429 q 217 394 206 401 q 243 383 228 386 q 282 381 258 381 q 332 504 299 444 m 76 167 q 181 233 138 185 q 256 335 224 282 q 179 356 200 336 q 146 407 158 376 q 101 295 122 358 q 76 167 79 232 m 597 572 q 554 547 578 565 q 507 506 531 529 q 464 460 483 483 q 435 419 444 438 q 487 429 460 417 q 538 463 514 442 q 578 512 561 483 q 597 572 594 540 z "},"":{"ha":485,"x_min":-56,"x_max":504,"o":"m 382 600 q 402 552 397 578 q 405 499 407 526 q 397 442 403 471 q 386 385 392 413 q 440 407 413 392 q 492 435 468 422 l 504 394 q 458 373 481 385 q 413 353 436 361 q 377 335 393 346 q 350 301 361 324 q 218 139 303 206 q 160 108 189 117 q 99 107 131 100 q 93 94 96 100 q 88 83 90 89 q 79 86 85 83 q 60 101 64 96 q 63 121 57 106 q 55 124 58 122 q 49 129 51 126 q -36 213 -17 169 q -37 329 -56 256 q 23 487 -15 418 q 119 618 61 556 q 159 646 135 635 q 210 661 183 657 q 263 664 236 665 q 311 654 290 663 q 353 632 333 644 q 378 648 367 647 q 403 629 389 649 l 382 600 m 81 167 q 124 260 100 211 q 176 360 149 308 q 160 381 167 369 q 149 407 154 393 q 103 295 125 358 q 79 167 82 232 l 81 167 m 286 610 q 292 589 289 600 q 293 569 296 578 q 281 547 289 558 q 264 533 272 535 q 232 522 244 531 q 211 501 219 513 q 196 477 203 490 q 181 453 189 464 q 193 427 188 438 q 204 408 199 417 q 265 506 233 457 q 331 601 296 554 q 286 610 315 617 m 292 381 q 305 410 297 392 q 320 451 313 429 q 333 497 328 472 q 342 542 339 521 q 292 463 315 503 q 246 383 269 424 q 265 381 254 382 q 292 381 276 381 m 258 335 q 219 339 236 335 q 182 270 200 304 q 146 200 164 236 q 209 263 182 226 q 258 335 236 299 z "},"":{"ha":622,"x_min":54,"x_max":493,"o":"m 74 375 q 67 390 71 382 q 61 406 64 399 q 61 442 54 431 q 92 461 68 454 q 140 467 117 465 q 188 469 163 468 q 218 470 203 471 q 251 469 233 469 q 267 517 258 494 q 286 564 275 540 q 301 606 294 583 q 332 643 307 629 q 362 601 354 622 q 369 556 369 579 q 360 510 368 533 q 347 464 353 488 q 397 453 372 458 q 444 440 421 447 q 471 431 461 436 q 485 419 481 426 q 492 399 490 411 q 493 365 493 386 q 407 375 450 371 q 321 386 364 379 q 269 264 289 324 q 219 144 249 204 q 183 192 192 168 q 182 244 174 215 q 202 312 193 278 q 224 385 211 346 q 147 380 183 382 q 74 375 110 378 z "},"":{"ha":599,"x_min":29,"x_max":482,"o":"m 89 247 q 73 251 82 250 q 57 254 64 251 q 31 271 33 261 q 47 300 29 281 q 87 335 67 319 q 128 369 107 351 q 156 390 140 379 q 188 413 172 400 q 169 445 176 429 q 154 479 161 461 q 147 494 151 488 q 138 510 142 501 q 135 527 135 518 q 142 549 135 536 q 199 549 176 554 q 235 533 221 544 q 260 506 250 521 q 279 475 269 490 q 333 504 307 490 q 385 531 358 518 q 416 544 404 539 q 438 549 428 549 q 457 544 447 549 q 482 529 467 539 q 397 475 440 501 q 310 421 354 449 q 345 330 321 371 q 385 242 369 289 q 317 238 342 235 q 279 261 293 242 q 251 306 265 285 q 221 356 236 328 q 153 300 185 326 q 89 247 122 274 z "},"":{"ha":731,"x_min":-121,"x_max":858,"o":"m 310 551 q 373 581 332 558 q 463 634 414 603 q 563 702 511 665 q 656 775 614 739 q 727 843 699 811 q 759 895 756 875 q 737 922 763 915 q 644 913 711 928 q 537 872 589 900 q 439 810 485 844 q 356 737 393 775 q 296 665 319 699 q 240 578 272 631 q 173 465 207 526 q 107 339 139 404 q 51 211 75 274 q 13 94 26 149 q 3 1 -1 40 q 4 -14 4 -6 q 4 -29 4 -22 q 1 -32 4 -29 q -62 -14 -36 -33 q -102 37 -87 6 q -119 106 -117 68 q -110 176 -121 143 q -19 408 -74 293 q 103 631 36 522 q 183 756 144 699 q 266 860 221 814 q 367 940 311 906 q 500 997 424 974 q 586 1015 542 1010 q 673 1015 631 1019 q 751 997 715 1011 q 811 956 788 982 q 851 888 843 919 q 848 828 858 857 q 813 771 838 799 q 754 714 788 743 q 676 653 721 683 q 585 597 632 624 q 494 544 539 569 q 411 499 449 519 q 447 499 432 500 q 478 497 463 499 q 511 492 494 494 q 550 490 528 490 q 617 466 593 490 q 658 413 640 442 q 662 380 668 396 q 642 349 656 364 q 610 323 628 335 q 583 306 593 311 q 498 259 536 278 q 424 225 460 240 q 353 197 389 210 q 274 172 317 185 q 206 160 231 160 q 172 171 182 161 q 162 195 161 181 q 169 224 163 210 q 183 248 175 238 q 199 260 192 258 q 294 283 246 268 q 389 319 343 299 q 476 365 435 340 q 554 414 518 389 q 411 406 486 417 q 274 371 336 394 q 256 382 263 367 q 251 424 249 397 q 267 485 254 451 q 310 551 281 519 z "},"":{"ha":617,"x_min":-65,"x_max":661,"o":"m 451 158 q 401 113 419 129 q 370 87 382 96 q 353 74 358 78 q 343 69 347 71 q 294 69 318 61 q 256 97 271 76 q 234 151 240 118 q 238 225 228 183 l 183 172 q 113 133 153 142 q 36 135 72 125 q -28 174 0 146 q -61 243 -56 201 q -46 342 -65 290 q 5 441 -26 393 q 74 530 36 489 q 144 596 113 571 q 207 635 178 622 q 264 648 236 647 q 319 637 292 649 q 379 604 347 625 q 417 631 399 615 q 456 647 436 646 q 494 633 475 647 q 536 607 514 618 q 487 501 513 554 q 438 394 461 449 q 397 285 415 340 q 372 172 379 229 q 504 292 446 226 q 618 429 563 357 l 661 410 q 563 277 615 339 q 451 158 511 215 m 356 563 q 333 578 346 579 q 308 569 319 576 q 161 426 219 511 q 81 243 103 340 q 151 293 111 257 q 231 375 192 329 q 304 471 271 421 q 356 563 338 521 m 393 956 q 435 900 410 928 q 491 847 461 872 q 553 803 521 822 q 613 775 585 785 q 623 769 618 774 q 635 758 628 764 q 558 753 603 744 q 468 784 514 761 q 383 840 422 807 q 324 908 343 872 q 311 956 306 939 q 332 976 317 972 q 366 975 347 981 q 393 956 385 969 z "},"":{"ha":617,"x_min":-65,"x_max":661,"o":"m 451 158 q 401 113 419 129 q 370 87 382 96 q 353 74 358 78 q 343 69 347 71 q 294 69 318 61 q 256 97 271 76 q 234 151 240 118 q 238 225 228 183 l 183 172 q 113 133 153 142 q 36 135 72 125 q -28 174 0 146 q -61 243 -56 201 q -46 342 -65 290 q 5 441 -26 393 q 74 530 36 489 q 144 596 113 571 q 207 635 178 622 q 264 648 236 647 q 319 637 292 649 q 379 604 347 625 q 417 631 399 615 q 456 647 436 646 q 494 633 475 647 q 536 607 514 618 q 487 501 513 554 q 438 394 461 449 q 397 285 415 340 q 372 172 379 229 q 504 292 446 226 q 618 429 563 357 l 661 410 q 563 277 615 339 q 451 158 511 215 m 356 563 q 333 578 346 579 q 308 569 319 576 q 161 426 219 511 q 81 243 103 340 q 151 293 111 257 q 231 375 192 329 q 304 471 271 421 q 356 563 338 521 m 522 1000 q 549 1019 531 1014 q 583 1021 568 1025 q 604 1000 599 1017 q 592 953 610 983 q 533 884 572 917 q 447 828 493 851 q 356 797 401 806 q 281 803 311 789 q 292 813 288 808 q 303 819 297 818 q 363 848 331 829 q 424 892 394 867 q 480 944 454 917 q 522 1000 506 972 z "},"":{"ha":617,"x_min":-65,"x_max":661,"o":"m 451 158 q 401 113 419 129 q 370 87 382 96 q 353 74 358 78 q 343 69 347 71 q 294 69 318 61 q 256 97 271 76 q 234 151 240 118 q 238 225 228 183 l 183 172 q 113 133 153 142 q 36 135 72 125 q -28 174 0 146 q -61 243 -56 201 q -46 342 -65 290 q 5 441 -26 393 q 74 530 36 489 q 144 596 113 571 q 207 635 178 622 q 264 648 236 647 q 319 637 292 649 q 379 604 347 625 q 417 631 399 615 q 456 647 436 646 q 494 633 475 647 q 536 607 514 618 q 487 501 513 554 q 438 394 461 449 q 397 285 415 340 q 372 172 379 229 q 504 292 446 226 q 618 429 563 357 l 661 410 q 563 277 615 339 q 451 158 511 215 m 356 563 q 333 578 346 579 q 308 569 319 576 q 161 426 219 511 q 81 243 103 340 q 151 293 111 257 q 231 375 192 329 q 304 471 271 421 q 356 563 338 521 m 296 774 q 307 787 303 781 q 317 799 311 793 q 404 884 358 843 q 499 963 450 925 q 520 981 510 971 q 542 1000 531 990 q 574 1004 556 1014 q 603 988 593 994 q 615 976 613 982 q 615 961 618 969 q 603 936 611 953 q 581 894 592 915 q 563 851 571 872 q 543 803 551 828 q 538 753 535 779 q 486 772 499 760 q 475 814 474 783 q 480 842 478 828 q 486 876 482 857 q 460 856 471 865 q 438 836 449 846 q 401 804 418 821 q 365 772 383 788 q 333 756 344 756 q 296 774 322 757 z "},"":{"ha":617,"x_min":-65,"x_max":661,"o":"m 451 158 q 401 113 419 129 q 370 87 382 96 q 353 74 358 78 q 343 69 347 71 q 294 69 318 61 q 256 97 271 76 q 234 151 240 118 q 238 225 228 183 l 183 172 q 113 133 153 142 q 36 135 72 125 q -28 174 0 146 q -61 243 -56 201 q -46 342 -65 290 q 5 441 -26 393 q 74 530 36 489 q 144 596 113 571 q 207 635 178 622 q 264 648 236 647 q 319 637 292 649 q 379 604 347 625 q 417 631 399 615 q 456 647 436 646 q 494 633 475 647 q 536 607 514 618 q 487 501 513 554 q 438 394 461 449 q 397 285 415 340 q 372 172 379 229 q 504 292 446 226 q 618 429 563 357 l 661 410 q 563 277 615 339 q 451 158 511 215 m 356 563 q 333 578 346 579 q 308 569 319 576 q 161 426 219 511 q 81 243 103 340 q 151 293 111 257 q 231 375 192 329 q 304 471 271 421 q 356 563 338 521 m 257 783 q 306 860 276 822 q 368 925 336 897 q 425 940 397 951 q 461 888 453 928 q 469 843 465 865 q 479 804 472 821 q 554 849 519 819 q 625 925 589 879 q 639 915 632 919 q 657 904 646 911 q 622 853 646 881 q 572 804 599 826 q 519 771 546 782 q 475 767 493 760 q 447 778 458 772 q 429 803 436 783 q 417 848 422 819 q 410 893 413 876 q 358 845 383 874 q 310 789 333 817 q 285 767 292 765 q 257 783 278 768 z "},"":{"ha":617,"x_min":-65,"x_max":661,"o":"m 451 158 q 401 113 419 129 q 370 87 382 96 q 353 74 358 78 q 343 69 347 71 q 294 69 318 61 q 256 97 271 76 q 234 151 240 118 q 238 225 228 183 l 183 172 q 113 133 153 142 q 36 135 72 125 q -28 174 0 146 q -61 243 -56 201 q -46 342 -65 290 q 5 441 -26 393 q 74 530 36 489 q 144 596 113 571 q 207 635 178 622 q 264 648 236 647 q 319 637 292 649 q 379 604 347 625 q 417 631 399 615 q 456 647 436 646 q 494 633 475 647 q 536 607 514 618 q 487 501 513 554 q 438 394 461 449 q 397 285 415 340 q 372 172 379 229 q 504 292 446 226 q 618 429 563 357 l 661 410 q 563 277 615 339 q 451 158 511 215 m 356 563 q 333 578 346 579 q 308 569 319 576 q 161 426 219 511 q 81 243 103 340 q 151 293 111 257 q 231 375 192 329 q 304 471 271 421 q 356 563 338 521 m 450 843 q 440 808 450 825 q 418 788 429 792 q 410 786 415 786 q 358 797 374 783 q 347 849 342 811 q 369 888 353 879 q 405 893 386 897 q 438 875 424 889 q 450 843 451 861 m 583 843 q 573 808 583 825 q 551 788 563 792 q 543 786 549 786 q 491 797 507 783 q 481 849 475 811 q 503 888 486 879 q 538 893 519 897 q 571 875 557 889 q 583 843 585 861 z "},"":{"ha":617,"x_min":-65,"x_max":661,"o":"m 451 158 q 401 113 419 129 q 370 87 382 96 q 353 74 358 78 q 343 69 347 71 q 294 69 318 61 q 256 97 271 76 q 234 151 240 118 q 238 225 228 183 l 183 172 q 113 133 153 142 q 36 135 72 125 q -28 174 0 146 q -61 243 -56 201 q -46 342 -65 290 q 5 441 -26 393 q 74 530 36 489 q 144 596 113 571 q 207 635 178 622 q 264 648 236 647 q 319 637 292 649 q 379 604 347 625 q 417 631 399 615 q 456 647 436 646 q 494 633 475 647 q 536 607 514 618 q 487 501 513 554 q 438 394 461 449 q 397 285 415 340 q 372 172 379 229 q 504 292 446 226 q 618 429 563 357 l 661 410 q 563 277 615 339 q 451 158 511 215 m 356 563 q 333 578 346 579 q 308 569 319 576 q 161 426 219 511 q 81 243 103 340 q 151 293 111 257 q 231 375 192 329 q 304 471 271 421 q 356 563 338 521 m 468 963 q 466 977 467 969 q 464 996 465 985 q 508 972 499 996 q 530 933 519 953 q 547 892 540 913 q 550 848 556 867 q 524 810 544 829 q 498 788 511 797 q 472 768 485 779 q 412 749 439 747 q 358 767 385 751 q 344 806 340 778 q 376 888 353 851 q 435 953 399 924 q 450 959 442 958 q 468 963 458 960 m 483 922 q 458 903 471 918 q 435 869 446 888 q 416 830 424 850 q 407 793 408 810 q 417 794 415 793 q 431 801 424 797 q 444 808 439 806 q 494 858 486 833 q 483 922 503 882 z "},"":{"ha":511,"x_min":-31,"x_max":553,"o":"m 553 393 q 401 263 479 325 q 235 154 324 200 q 47 160 140 104 q -10 214 11 183 q -28 288 -31 244 q 22 478 -21 392 q 150 626 64 564 q 216 655 183 651 q 281 648 249 658 q 341 617 313 638 q 394 575 369 597 q 406 463 451 524 q 246 346 343 379 q 174 344 208 332 q 107 368 139 356 q 78 303 88 335 q 68 235 68 271 q 80 192 68 203 q 124 188 92 181 q 232 231 181 203 q 331 291 283 258 q 422 360 378 324 q 513 428 467 396 l 553 393 m 301 572 q 258 547 282 565 q 211 506 235 529 q 168 460 188 483 q 139 419 149 438 q 191 429 164 417 q 242 463 218 442 q 282 512 265 483 q 301 572 299 540 m 271 971 q 313 915 288 943 q 369 863 339 888 q 431 819 399 838 q 490 790 463 800 q 501 784 496 789 q 513 774 506 779 q 436 768 481 760 q 346 799 392 776 q 260 855 300 822 q 201 924 221 888 q 189 971 183 954 q 210 992 194 988 q 244 990 225 996 q 271 971 263 985 z "},"":{"ha":511,"x_min":-31,"x_max":553,"o":"m 553 393 q 401 263 479 325 q 235 154 324 200 q 47 160 140 104 q -10 214 11 183 q -28 288 -31 244 q 22 478 -21 392 q 150 626 64 564 q 216 655 183 651 q 281 648 249 658 q 341 617 313 638 q 394 575 369 597 q 406 463 451 524 q 246 346 343 379 q 174 344 208 332 q 107 368 139 356 q 78 303 88 335 q 68 235 68 271 q 80 192 68 203 q 124 188 92 181 q 232 231 181 203 q 331 291 283 258 q 422 360 378 324 q 513 428 467 396 l 553 393 m 301 572 q 258 547 282 565 q 211 506 235 529 q 168 460 188 483 q 139 419 149 438 q 191 429 164 417 q 242 463 218 442 q 282 512 265 483 q 301 572 299 540 m 392 985 q 419 1004 400 999 q 453 1006 438 1010 q 474 985 468 1001 q 461 938 479 968 q 402 869 442 901 q 317 813 363 836 q 226 782 271 790 q 150 788 181 774 q 162 798 157 793 q 172 804 167 803 q 232 833 200 814 q 294 876 264 851 q 349 929 324 901 q 392 985 375 957 z "},"":{"ha":511,"x_min":-31,"x_max":553,"o":"m 553 393 q 401 263 479 325 q 235 154 324 200 q 47 160 140 104 q -10 214 11 183 q -28 288 -31 244 q 22 478 -21 392 q 150 626 64 564 q 216 655 183 651 q 281 648 249 658 q 341 617 313 638 q 394 575 369 597 q 406 463 451 524 q 246 346 343 379 q 174 344 208 332 q 107 368 139 356 q 78 303 88 335 q 68 235 68 271 q 80 192 68 203 q 124 188 92 181 q 232 231 181 203 q 331 291 283 258 q 422 360 378 324 q 513 428 467 396 l 553 393 m 301 572 q 258 547 282 565 q 211 506 235 529 q 168 460 188 483 q 139 419 149 438 q 191 429 164 417 q 242 463 218 442 q 282 512 265 483 q 301 572 299 540 m 181 771 q 192 784 188 778 q 201 796 196 790 q 289 881 243 840 q 383 960 335 922 q 405 978 394 968 q 426 997 415 988 q 458 1001 440 1011 q 488 985 478 992 q 500 973 497 979 q 499 958 503 967 q 488 933 496 950 q 466 891 476 913 q 447 849 456 869 q 428 801 436 825 q 422 750 419 776 q 371 769 383 757 q 360 811 358 781 q 365 840 363 825 q 371 874 367 854 q 344 853 356 863 q 322 833 333 843 q 285 801 303 818 q 250 769 268 785 q 218 753 229 753 q 181 771 207 754 z "},"":{"ha":511,"x_min":-31,"x_max":553,"o":"m 553 393 q 401 263 479 325 q 235 154 324 200 q 47 160 140 104 q -10 214 11 183 q -28 288 -31 244 q 22 478 -21 392 q 150 626 64 564 q 216 655 183 651 q 281 648 249 658 q 341 617 313 638 q 394 575 369 597 q 406 463 451 524 q 246 346 343 379 q 174 344 208 332 q 107 368 139 356 q 78 303 88 335 q 68 235 68 271 q 80 192 68 203 q 124 188 92 181 q 232 231 181 203 q 331 291 283 258 q 422 360 378 324 q 513 428 467 396 l 553 393 m 301 572 q 258 547 282 565 q 211 506 235 529 q 168 460 188 483 q 139 419 149 438 q 191 429 164 417 q 242 463 218 442 q 282 512 265 483 q 301 572 299 540 m 342 840 q 331 806 342 822 q 310 785 321 789 q 301 783 307 783 q 249 794 265 781 q 239 846 233 808 q 261 885 244 876 q 297 890 278 894 q 329 872 315 886 q 342 840 343 858 m 475 840 q 465 806 475 822 q 443 785 454 789 q 435 783 440 783 q 383 794 399 781 q 372 846 367 808 q 394 885 378 876 q 430 890 411 894 q 463 872 449 886 q 475 840 476 858 z "},"":{"ha":317,"x_min":-65,"x_max":361,"o":"m 361 392 q 294 310 329 351 q 227 234 260 269 q 167 172 194 199 q 125 131 140 144 q 87 110 108 115 q 44 108 65 104 q 1 122 22 111 q -37 153 -21 133 q -53 180 -47 164 q -61 213 -58 196 q -57 273 -65 236 q -34 353 -49 310 q 1 440 -19 396 q 42 525 21 485 q 82 598 63 565 q 115 647 101 631 q 178 672 140 675 q 240 638 215 669 q 244 604 250 621 q 206 510 232 565 q 151 397 179 456 q 97 282 122 338 q 64 188 72 226 q 134 229 100 203 q 200 289 168 256 q 263 359 232 322 q 322 431 293 396 l 361 392 z "},"":{"ha":317,"x_min":-65,"x_max":438,"o":"m 361 392 q 294 310 329 351 q 227 234 260 269 q 167 172 194 199 q 125 131 140 144 q 87 110 108 115 q 44 108 65 104 q 1 122 22 111 q -37 153 -21 133 q -53 180 -47 164 q -61 213 -58 196 q -57 273 -65 236 q -34 353 -49 310 q 1 440 -19 396 q 42 525 21 485 q 82 598 63 565 q 115 647 101 631 q 178 672 140 675 q 240 638 215 669 q 244 604 250 621 q 206 510 232 565 q 151 397 179 456 q 97 282 122 338 q 64 188 72 226 q 134 229 100 203 q 200 289 168 256 q 263 359 232 322 q 322 431 293 396 l 361 392 m 196 983 q 238 928 213 956 q 294 875 264 900 q 356 831 324 850 q 415 803 388 813 q 426 797 421 801 q 438 786 431 792 q 361 781 406 772 q 271 812 317 789 q 185 867 225 835 q 126 936 146 900 q 114 983 108 967 q 135 1004 119 1000 q 169 1003 150 1008 q 196 983 188 997 z "},"":{"ha":317,"x_min":-65,"x_max":414,"o":"m 361 392 q 294 310 329 351 q 227 234 260 269 q 167 172 194 199 q 125 131 140 144 q 87 110 108 115 q 44 108 65 104 q 1 122 22 111 q -37 153 -21 133 q -53 180 -47 164 q -61 213 -58 196 q -57 273 -65 236 q -34 353 -49 310 q 1 440 -19 396 q 42 525 21 485 q 82 598 63 565 q 115 647 101 631 q 178 672 140 675 q 240 638 215 669 q 244 604 250 621 q 206 510 232 565 q 151 397 179 456 q 97 282 122 338 q 64 188 72 226 q 134 229 100 203 q 200 289 168 256 q 263 359 232 322 q 322 431 293 396 l 361 392 m 326 1010 q 353 1029 335 1024 q 388 1031 372 1035 q 408 1010 403 1026 q 396 963 414 993 q 337 894 376 926 q 251 838 297 861 q 160 807 206 815 q 85 813 115 799 q 97 823 92 818 q 107 829 101 828 q 167 858 135 839 q 228 901 199 876 q 284 954 258 926 q 326 1010 310 982 z "}}}
